<svg version="1.2" xmlns="http://www.w3.org/2000/svg" viewBox="0 0 172 170" width="172" height="170">
	<style>
		.s0 { fill: #fdebca } 
		.s1 { fill: #ffb1ae } 
		.s2 { fill: #947373 } 
		.s3 { fill: #fdf2e9 } 
	</style>
	<path id="&lt;Path&gt;" class="s0" d="m13.15 26.17c-0.02-7.75 2.37-15.85 8.08-21.1 5.7-5.25 15.1-6.78 21.33-2.16 5.73 4.24 7.36 11.98 8.32 19.04 0.54 3.93 0.91 8.28-1.34 11.55-1.48 2.16-3.87 3.49-6.17 4.74-5.44 2.95-17.13 12.66-23.48 9.75-6.3-2.89-6.74-16.22-6.74-21.82z"/>
	<path id="&lt;Path&gt;" class="s1" d="m24.5 31.45c-0.01-4.02 1.23-8.21 4.18-10.94 2.96-2.72 7.84-3.51 11.07-1.12 2.96 2.2 3.81 6.21 4.31 9.87 0.28 2.04 0.47 4.3-0.7 5.99-0.77 1.12-2 1.81-3.19 2.46-2.83 1.53-8.89 6.56-12.18 5.05-3.26-1.5-3.49-8.4-3.49-11.31z"/>
	<path id="&lt;Path&gt;" class="s0" d="m149.72 26.17c0.02-7.75-2.36-15.85-8.07-21.1-5.7-5.25-15.1-6.78-21.33-2.16-5.73 4.24-7.37 11.98-8.33 19.04-0.53 3.93-0.9 8.28 1.35 11.55 1.48 2.16 3.87 3.49 6.17 4.74 5.44 2.95 17.13 12.66 23.48 9.75 6.3-2.89 6.73-16.22 6.73-21.82z"/>
	<path id="&lt;Path&gt;" class="s1" d="m138.38 29.75c0.01-4.02-1.23-8.21-4.18-10.94-2.96-2.72-7.84-3.51-11.07-1.12-2.96 2.2-3.81 6.21-4.31 9.87-0.28 2.04-0.47 4.3 0.7 5.99 0.76 1.12 2 1.81 3.19 2.46 2.82 1.53 8.89 6.56 12.18 5.05 3.26-1.5 3.49-8.4 3.49-11.31z"/>
	<path id="&lt;Path&gt;" class="s0" d="m90.36 169.12c25.69-1.14 54.58-13.64 69.74-35.27 10.65-15.19 14.18-35.08 10.37-53.31-3.82-18.23-14.72-34.67-29.35-45.95-27.31-21.03-65.15-24.02-95.71-8.62-4.83 2.43-9.44 5.31-13.74 8.62-14.64 11.28-25.53 27.72-29.35 45.95-3.82 18.23-0.28 38.12 10.37 53.31 8.51 12.15 21.12 20.94 34.75 26.5 13.25 5.4 27.36 9.25 41.72 8.81q0.6-0.02 1.2-0.04z"/>
	<path id="&lt;Path&gt;" class="s2" d="m35.38 74.9c-1.82-0.71-5.01 1.14-6.18 2.6-1.7 2.12-4.15 8.04 1.16 6.93 2.89-0.6 6.35-3.81 6.34-6.96-0.01-1.48-0.54-2.26-1.32-2.57z"/>
	<path id="&lt;Path&gt;" class="s2" d="m133.9 76.22c-0.02 3.15 3.45 6.36 6.34 6.96 5.31 1.11 2.86-4.81 1.16-6.93-1.17-1.47-4.36-3.31-6.18-2.6-0.78 0.31-1.31 1.09-1.32 2.57z"/>
	<path id="&lt;Path&gt;" class="s3" d="m112.05 105.18c-2.44-13.31-8.03-30.03-22.76-32.34-5.15-0.8-10.49 0.8-14.79 3.74-11.48 7.84-16.19 24.5-17.04 37.68-0.79 12.17 4.91 22.48 17.35 25.08 11.17 2.33 26.53 1.03 33.94-8.82 4.38-5.83 5.09-13.72 4.03-20.94q-0.31-2.11-0.73-4.4z"/>
	<path id="&lt;Path&gt;" class="s2" d="m99.96 116.32c-0.22-0.98-1.81-0.68-1.72 0.3 0.38 4.15-3.77 5.62-7.19 4.25-2.23-0.89-2.63-2.97-3.58-4.87q0.08-5.56-0.2-11.1c-0.06-1.3 2.63-2.42 3.48-3.05 2.81-2.07 5.61-4.39 7.43-7.42 0.7-1.17 1.29-2.46 1.35-3.83 0.2-4.47-5.33-5.79-8.72-6.41-5.23-0.95-18.97-1.14-18.26 6.75 0.48 5.33 7.4 9.33 11.27 12.54q0.38 0.31 0.75 0.63 0.08 0.08 0.15 0.19-0.03 0.33 0.15 0.6-0.28 5.54-0.2 11.1c-0.95 1.9-1.35 3.98-3.58 4.87-3.42 1.37-7.57-0.1-7.19-4.25 0.09-0.98-1.5-1.28-1.72-0.3-0.98 4.33 2.76 7.03 6.77 6.73 2.67-0.21 4.8-1.6 5.93-3.72q0.11-0.22 0.22-0.45 0.16-0.33 0.29-0.69 0.31-0.42 0.68-0.89 0.37 0.46 0.67 0.95 0.15 0.28 0.3 0.63 0.11 0.23 0.22 0.45c1.14 2.12 3.26 3.51 5.93 3.72 4.01 0.3 7.75-2.4 6.77-6.73z"/>
	<path id="&lt;Path&gt;" class="s2" d="m37.04 98.94c0 5.18-2.3 9.38-5.13 9.38-2.82 0-5.12-4.2-5.12-9.38 0-5.17 2.3-9.37 5.12-9.37 2.83 0 5.13 4.2 5.13 9.37z"/>
	<path id="&lt;Path&gt;" class="s2" d="m143.81 97.69c0 5.18-2.3 9.37-5.13 9.37-2.82 0-5.12-4.19-5.12-9.37 0-5.18 2.3-9.37 5.12-9.37 2.83 0 5.13 4.19 5.13 9.37z"/>
	<path id="&lt;Path&gt;" class="s1" d="m38.27 121.91c0 6.32-5.12 11.43-11.44 11.43-6.31 0-11.43-5.11-11.43-11.43 0-6.31 5.12-11.43 11.43-11.43 6.32 0 11.44 5.12 11.44 11.43z"/>
	<path id="&lt;Path&gt;" class="s1" d="m156.43 121.91c0 6.32-5.12 11.43-11.44 11.43-6.31 0-11.43-5.11-11.43-11.43 0-6.31 5.12-11.43 11.43-11.43 6.32 0 11.44 5.12 11.44 11.43z"/>
	<path id="&lt;Path&gt;" class="s3" d="m70.78 53.97c-0.21-0.79-0.42-1.58-0.72-2.34-0.44-1.09-2.38-1.1-2.26 0.3 0.08 0.86 0.26 1.7 0.43 2.55 0.18 0.84 0.26 1.66 0.91 2.28 0.63 0.6 1.57 0.29 1.85-0.49 0.28-0.8 0-1.51-0.21-2.3z"/>
	<path id="&lt;Path&gt;" class="s3" d="m79.79 43.67c-0.06-1.07-0.19-2.13-0.47-3.17-0.22-0.8-1.63-0.93-1.76 0-0.15 1.07-0.17 2.1-0.1 3.17 0.05 0.87 0.05 2.01 0.91 2.47 0.22 0.12 0.53 0.16 0.75 0 0.81-0.59 0.73-1.54 0.67-2.47z"/>
	<path id="&lt;Path&gt;" class="s3" d="m80.35 59.15c-0.11-0.85-0.21-1.71-0.4-2.55-0.3-1.29-2.28-0.98-2.28 0.31 0 0.86 0.08 1.73 0.16 2.58 0.09 0.86 0.12 1.55 0.69 2.23 0.43 0.52 1.4 0.37 1.69-0.21 0.41-0.8 0.26-1.51 0.14-2.36z"/>
	<path id="&lt;Path&gt;" class="s3" d="m69.49 67.82c-0.87-0.92-2.36 0.26-1.74 1.34 0.4 0.69 0.78 1.33 0.99 2.11 0.2 0.73 0.26 1.45 0.8 2.02 0.44 0.46 1.12 0.27 1.45-0.19 1.07-1.49-0.44-4.16-1.5-5.28z"/>
	<path id="&lt;Path&gt;" class="s3" d="m59.16 52.28c-0.27-0.52-0.49-1.06-0.79-1.56-0.62-1.05-2.04-0.31-1.86 0.78 0.18 1.02 0.75 2.69 1.74 3.15 0.67 0.31 1.38-0.06 1.43-0.82 0.04-0.61-0.25-1.01-0.52-1.55z"/>
	<path id="&lt;Path&gt;" class="s3" d="m64.97 39.9c-0.2-0.77-0.37-1.53-0.74-2.24-0.47-0.87-1.75-0.42-1.79 0.48-0.03 0.81 0.18 1.58 0.34 2.36 0.15 0.78 0.23 1.51 0.81 2.09 0.53 0.53 1.36 0.24 1.59-0.42 0.26-0.76-0.02-1.52-0.21-2.27z"/>
	<path id="&lt;Path&gt;" class="s3" d="m52.62 37.29c-0.44-0.73-0.88-1.44-1.74-1.7-0.32-0.1-0.65 0.12-0.75 0.43-0.28 0.86 0.11 1.66 0.46 2.45 0.39 0.86 0.72 1.62 1.68 1.9 0.45 0.13 0.87-0.16 1.01-0.57 0.33-0.95-0.18-1.71-0.66-2.51z"/>
	<path id="&lt;Path&gt;" class="s3" d="m79.74 27.85c-0.19-1.01-1.84-1.01-2.03 0-0.22 1.17-0.53 2.82 0.41 3.73 0.34 0.33 0.87 0.33 1.21 0 0.94-0.92 0.63-2.56 0.41-3.73z"/>
	<path id="&lt;Path&gt;" class="s3" d="m69.35 22.85c-0.63-1.11-2.1-0.3-1.93 0.82 0.22 1.42 0.59 3.15 1.81 4.02 0.48 0.34 1.14-0.02 1.29-0.52 0.4-1.39-0.49-3.11-1.17-4.32z"/>
	<path id="&lt;Path&gt;" class="s3" d="m58.83 26.23c-0.24-0.55-0.38-1.14-0.6-1.7-0.39-1.03-1.97-0.94-2 0.27-0.02 1.2 0.45 3.34 1.62 3.89 0.72 0.33 1.43-0.07 1.5-0.86 0.05-0.64-0.27-1.04-0.52-1.6z"/>
	<path id="&lt;Path&gt;" class="s3" d="m91.67 20.93c-0.27-1.27-2.08-0.88-2.16 0.3-0.08 1.11-0.06 2.2-0.26 3.31-0.17 0.98-0.5 1.91-0.32 2.9 0.14 0.78 1.19 0.94 1.69 0.45 1.54-1.5 1.48-5 1.05-6.96z"/>
	<path id="&lt;Path&gt;" class="s3" d="m91.16 39.09c-0.01-0.8-0.07-1.6-0.13-2.39-0.1-1.45-2.14-1.45-2.24 0-0.06 0.79-0.12 1.59-0.13 2.39-0.01 0.79-0.12 1.5 0.33 2.19 0.46 0.68 1.39 0.68 1.84 0 0.46-0.69 0.34-1.39 0.33-2.19z"/>
	<path id="&lt;Path&gt;" class="s3" d="m89.91 54.54c-0.08-1.52-2.29-1.52-2.37 0-0.08 1.58-0.43 3.53 0.61 4.86 0.24 0.32 0.9 0.32 1.15 0 1.03-1.33 0.69-3.28 0.61-4.86z"/>
	<path id="&lt;Path&gt;" class="s3" d="m87.44 66.92c-0.17-1.41-2.03-1.41-2.2 0-0.09 0.76-0.08 1.52-0.09 2.28-0.01 0.72 0.26 1.26 0.65 1.85 0.26 0.4 0.82 0.4 1.09 0 0.38-0.6 0.65-1.13 0.65-1.85-0.01-0.76-0.01-1.52-0.1-2.28z"/>
	<path id="&lt;Path&gt;" class="s3" d="m98.48 45.24c-0.32-1.14-1.84-0.81-1.95 0.26-0.09 0.88-0.43 2.03-0.15 2.87 0.23 0.7 1.05 0.91 1.59 0.42 0.88-0.8 0.81-2.49 0.51-3.55z"/>
	<path id="&lt;Path&gt;" class="s3" d="m96.06 59.74c-0.26 1.33-0.94 3.33-0.28 4.59 0.28 0.54 1.12 0.65 1.53 0.19 0.95-1.05 0.79-3.14 0.88-4.5 0.07-1.2-1.9-1.49-2.13-0.28z"/>
	<path id="&lt;Path&gt;" class="s3" d="m104.77 51.21q0.01 1.09-0.11 2.16c-0.04 0.38-0.15 0.75-0.18 1.13-0.02 0.36 0.05 0.64 0.09 1 0.07 0.81 1.13 1.21 1.58 0.43 0.45-0.75 0.61-1.32 0.7-2.2q0.13-1.25 0.09-2.52c-0.03-1.39-2.17-1.4-2.17 0z"/>
	<path id="&lt;Path&gt;" class="s3" d="m101.84 67.86c-0.33 1.04-0.85 2.22-0.75 3.33 0.05 0.54 0.72 0.94 1.15 0.48 0.81-0.88 1.13-2.18 1.52-3.28 0.43-1.2-1.52-1.75-1.92-0.53z"/>
	<path id="&lt;Path&gt;" class="s3" d="m110.83 36.93c-0.18-0.71-1.37-0.98-1.69-0.22-0.51 1.2-0.86 3.08-0.29 4.29 0.33 0.7 1.31 0.55 1.68 0 0.66-0.99 0.6-2.95 0.3-4.07z"/>
	<path id="&lt;Path&gt;" class="s3" d="m101.44 32.17c-0.1-1.35-2.01-1.36-2.11 0-0.1 1.3-0.33 2.8 0.38 3.96 0.31 0.5 1.03 0.5 1.34 0 0.72-1.16 0.48-2.66 0.39-3.96z"/>
	<path id="&lt;Path&gt;" class="s3" d="m115.45 23.32c-0.26-1.27-1.96-0.81-2.08 0.29q-0.1 0.86-0.25 1.71c-0.1 0.53-0.3 1.07-0.26 1.62 0.06 0.61 0.68 1.07 1.27 0.72 1.36-0.81 1.62-2.92 1.32-4.34z"/>
	<path id="&lt;Path&gt;" class="s3" d="m102.64 20.89c-0.06-1.14-1.8-1.5-2.08-0.28-0.22 1.01-0.42 2.05-0.01 3.02 0.31 0.72 1.34 0.55 1.69 0 0.5-0.77 0.45-1.85 0.4-2.74z"/>
	<path id="&lt;Path&gt;" class="s3" d="m119.14 30.46c-1.45 1.36-2.76 3.35-1.89 5.36 0.15 0.34 0.73 0.41 0.97 0.12 1.01-1.23 1.32-2.83 2.3-4.09 0.76-0.97-0.43-2.27-1.38-1.39z"/>
	<path id="&lt;Path&gt;" class="s3" d="m115.49 46.63c-0.45 1.13-1.16 2.39-0.93 3.64 0.12 0.69 1.02 0.79 1.47 0.38 0.89-0.8 1.11-2.37 1.43-3.48 0.37-1.29-1.49-1.73-1.97-0.54z"/>
	<path id="&lt;Path&gt;" class="s3" d="m111.84 60.42c-1.04 2.31-1.99 4.92-1.86 7.47 0.04 0.71 0.86 0.86 1.26 0.34 1.49-1.95 2.21-4.56 2.63-6.95 0.2-1.14-1.47-2.09-2.03-0.86z"/>
	<path id="&lt;Path&gt;" class="s0" d="m91.21 89.33c-1.29-2.58-4.98-2.48-7.49-2.25-2.38 0.22-5.68 0.62-6.93 2.91-0.52 0.96-0.22 2.12 0.71 2.7 1.86 1.16 4.48 0.51 6.59 0.6 2.44 0.1 4.73 0.95 6.71-0.83 0.89-0.8 0.9-2.14 0.41-3.13z"/>
</svg>