<svg version="1.2" xmlns="http://www.w3.org/2000/svg" viewBox="0 0 182 179" width="182" height="179">
	<style>
		.s0 { fill: #ffb1ae } 
		.s1 { fill: #91787e } 
		.s2 { fill: #fdebca } 
		.s3 { fill: #ffddaf } 
		.s4 { fill: #674a51 } 
		.s5 { fill: #947373 } 
	</style>
	<path id="&lt;Path&gt;" class="s0" d="m174.17 30.99c1.62 0.14 3.43 0.48 4.33 1.84 1.4 2.13-0.48 4.86-2.3 6.65-5.28 5.23-11.03 10.12-17.71 13.38-6.68 3.26-14.41 4.78-21.64 3.08-3.23-0.76-7.44-3.09-6.58-7.13 0.6-2.83 4.88-5.28 7.01-6.91 6.62-5.07 14.45-8.55 22.63-10.13 4.69-0.91 9.5-1.18 14.26-0.78z"/>
	<path id="&lt;Path&gt;" class="s1" d="m129.31 46.64c0.26 0.33 0.66 0.52 0.96 0.81 1.17 1.12 0.39 1.61 2.21 0.83 2.82-1.19 5.52-5.35 8.14-7.22 9.43-6.77 21.44-9.87 32.97-8.8 8.84 0.83-1.63 10.9-4.26 13.32-3.47 3.18-7.6 5.62-12.04 7.16-8.13 2.83-20.29 2.19-28.43-0.46 1.67 3.33 5.84 4.44 9.55 4.73 9.55 0.76 19.29-1.69 27.41-6.74 5.1-3.16 18.02-11.71 15.2-19.1-1.57-4.12-13.6-3.71-17.01-3.53-10.04 0.56-21.52 4.4-29.54 10.54-2.13 1.63-4.1 3.59-5.15 6.06-0.25 0.59-0.42 1.29-0.27 1.88q0.07 0.28 0.26 0.52z"/>
	<path id="&lt;Path&gt;" class="s0" d="m7.56 29.76c-1.62 0.05-3.46 0.29-4.42 1.6-1.52 2.05 0.22 4.88 1.94 6.77 4.99 5.5 10.47 10.69 16.97 14.3 6.5 3.61 14.13 5.54 21.45 4.23 3.26-0.59 7.58-2.69 6.95-6.77-0.45-2.86-4.6-5.53-6.64-7.28-6.34-5.41-13.97-9.31-22.06-11.32-4.63-1.15-9.42-1.69-14.19-1.53z"/>
	<path id="&lt;Path&gt;" class="s1" d="m51.8 47.26c0.19-0.58 0.05-1.28-0.17-1.88-0.91-2.53-2.78-4.59-4.82-6.33-7.68-6.56-18.93-11.01-28.92-12.1-3.41-0.37-15.39-1.41-17.18 2.62-3.21 7.23 9.23 16.45 14.16 19.88 7.84 5.47 17.44 8.44 27.01 8.2 3.72-0.1 7.94-0.99 9.79-4.22-8.27 2.21-20.45 2.2-28.41-1.05-4.35-1.78-8.36-4.44-11.64-7.8-2.5-2.56-12.42-13.17-3.55-13.53 11.57-0.46 23.39 3.29 32.45 10.54 2.52 2.01 5 6.31 7.74 7.65 1.79 0.88 1.03 0.35 2.25-0.71 0.32-0.27 0.73-0.44 1.01-0.76q0.2-0.23 0.28-0.51z"/>
	<path id="&lt;Path&gt;" class="s2" d="m26.04 121.95c17.44-23.9 9.03-63.65 27.44-86.82 8.65-10.88 22.36-17.56 36.25-17.67 13.9-0.11 27.71 6.36 36.53 17.1 6.42 7.82 10.14 17.54 12.58 27.36 2.44 9.83 3.69 19.91 5.79 29.82 1.77 8.34 4.27 16.81 9.62 23.46 1.73 2.15 0.86 6.15-1.89 6.32-2.76 0.17-5.27-1.42-7.61-2.89-16.03-10.04-34.39-16.9-53.3-17.43-18.91-0.53-38.35 5.69-51.95 18.84-2.26 2.19-4.48 4.63-7.47 5.61-2.99 0.97-5.32-0.62-5.99-3.7z"/>
	<path id="&lt;Path&gt;" class="s3" d="m158.34 129.31c-3.63-13.31-15.18-23.04-28.35-28.16-1.76-7.15-6.53-17.12-15.13-16.9-4.27 0.11-6.76 2.83-9.01 6.06-1.06 1.54-2.04 3.03-2.73 4.59-9.14-1.12-18.41-1.31-27.6-0.58-2.44-6.22-8.5-10.89-15.84-9.28-6.47 1.42-10.56 7.89-12.48 14.59q-1.89 0.56-3.77 1.19c-20.39 6.8-29.07 28.77-20.5 47.96 1.24 2.8 2.85 5.44 4.82 7.82 14.54 17.61 38.83 22.31 60.82 22.26 27.86-0.07 71.82-5.25 70.95-41.45q-0.11-4.24-1.18-8.1z"/>
	<path id="&lt;Path&gt;" class="s1" d="m127.94 86.12c-1.94-3.07-4.22-6.31-5.62-9.78q-0.47-0.74-0.81-1.58c-1.1-2.72-1.1-6.13 0.18-8.86 0.59-1.57 1.52-2.59 2.68-3.21 0.99-0.63 2.09-0.92 3.16-0.78 1.22-0.05 2.57 0.08 4 0.35q1 0.19 1.97 0.48 0.59-0.24 1.36-0.29 0.32-0.13 0.64-0.25 1.66-0.4 3.32-0.37c2.46 9.92 3.71 20 5.81 29.91q0.43 2.02 0.93 4.04 0.12 0.48 0.25 0.97 0.5 1.93 1.09 3.84 0.03 0.11 0.06 0.23c-2.07 0.34-4.26 0.09-6.19-0.67-6.2-2.45-9.47-8.72-12.83-14.03z"/>
	<path id="&lt;Path&gt;" class="s1" d="m127.12 41.91c2.48 1.91 4.9 6.41 5.2 7.77 1.28 5.82-7.61 3.05-8.86-0.77-0.84-2.54-0.91-10.53 3.66-7z"/>
	<path id="&lt;Path&gt;" class="s1" d="m90.59 39.93c4.92-3.87 11.81 1.21 12.19 6.84 0.67 10.09-18.27 12.16-17.33 2.23 0.16-1.76 0.93-3.4 1.82-4.93q0.69-1.23 1.54-2.33 0.78-1.01 1.78-1.81z"/>
	<path id="&lt;Path&gt;" class="s1" d="m88.6 33.77c-1.02-0.68-1.6-1.65-2.32-2.61-1.88-2.5-3.43-3.31-6.65-3.14-1.33 0.06-2.44 0.58-3.8 0.15-4.18-1.31-3.66-4.74-1.89-7.75 2.13-0.79 4.33-1.4 6.54-1.88 3.04-0.68 6.14-1.05 9.25-1.08 4.3-0.03 8.58 0.57 12.71 1.72q-0.47 0.85-1.1 1.59c-0.14 1.53-0.49 3.05-1.03 4.43 0.17 3.86-0.68 7.53-3.79 9.01-2.22 1.06-5.84 0.94-7.92-0.44z"/>
	<path id="&lt;Path&gt;" class="s1" d="m38.12 86.56c1.41-8.74 2.51-17.68 4.42-26.11 0.19-0.72 0.34-1.46 0.51-2.19q1.72 0.18 3.37 0.89c5.5 2.44 9.03 9.05 8.11 14.99-0.76 4.86-4.46 7.15-8.57 8.68-1.23 1.07-2.61 1.88-4.05 2.33q-1.58 0.86-3.36 1.33-0.21 0.04-0.43 0.08z"/>
	<path id="&lt;Path&gt;" class="s4" d="m107.19 55.47c-0.1 3.15 3.27 6.45 6.15 7.13 5.27 1.24 2.98-4.74 1.35-6.9-1.13-1.5-4.28-3.43-6.12-2.76-0.78 0.28-1.33 1.05-1.38 2.53z"/>
	<path id="&lt;Path&gt;" class="s4" d="m76.2 52.07c-1.8-0.76-5.04 1-6.25 2.43-1.75 2.08-4.35 7.93 0.98 6.97 2.91-0.53 6.45-3.64 6.52-6.79 0.03-1.49-0.47-2.28-1.25-2.61z"/>
	<path id="&lt;Path&gt;" class="s4" d="m100.35 74.32c-0.14 5.18 2.04 9.44 4.87 9.51 2.83 0.08 5.23-4.06 5.37-9.23 0.14-5.18-2.04-9.43-4.87-9.51-2.83-0.07-5.23 4.06-5.37 9.23z"/>
	<path id="&lt;Path&gt;" class="s4" d="m83.28 73.87c-0.14 5.17-2.54 9.31-5.37 9.23-2.83-0.07-5.01-4.33-4.87-9.5 0.14-5.18 2.54-9.31 5.37-9.24 2.83 0.08 5.01 4.33 4.87 9.51z"/>
	<path id="&lt;Path&gt;" class="s0" d="m53.41 122.1c-0.56 5.36-5.36 9.25-10.72 8.69-5.36-0.56-9.25-5.36-8.69-10.72 0.56-5.36 5.36-9.25 10.72-8.69 5.36 0.56 9.25 5.36 8.69 10.72z"/>
	<path id="&lt;Path&gt;" class="s0" d="m145.14 122.1c-0.57 5.36-5.36 9.25-10.72 8.69-5.36-0.56-9.25-5.36-8.69-10.72 0.56-5.36 5.36-9.25 10.72-8.69 5.36 0.56 9.25 5.36 8.69 10.72z"/>
	<path id="&lt;Path&gt;" class="s5" d="m112.97 99.53c0 3.68 1.63 6.66 3.64 6.66 2.01 0 3.63-2.98 3.63-6.66 0-3.67-1.62-6.65-3.63-6.65-2.01 0-3.64 2.98-3.64 6.65z"/>
	<path id="&lt;Path&gt;" class="s5" d="m57.36 99.53c0 3.68 1.63 6.66 3.64 6.66 2 0 3.63-2.98 3.63-6.66 0-3.67-1.63-6.65-3.63-6.65-2.01 0-3.64 2.98-3.64 6.65z"/>
	<path id="&lt;Path&gt;" class="s5" d="m95.08 143.95c-0.3-0.51-1.17-0.73-1.59-0.2-2.49 3.09 0.71 9.23-4.42 10.57-2.24 0.59-4.09-0.66-5.04-2.67-1.08-2.3-0.39-4.94-1.52-7.19-0.24-0.48-0.92-0.41-1.18 0-3.15 5.06 1.06 13.49 7.26 12.96 2.51-0.22 4.84-1.69 5.95-3.97 0.67-1.39 0.75-2.95 0.85-4.47 0.12-1.7 0.6-3.51-0.31-5.03z"/>
	<path id="&lt;Path&gt;" class="s4" d="m66.2 32.39c0.81-3.54-0.01-7.18-3.62-8.71-9.34-3.93-15.69-11.33-18.86-21.11-1.13-3.45-6.08-2.78-6.27 0.85-0.41 7.8 0.53 16.11 3.42 23.41 2.74 6.94 10.58 17.24 19.31 13.6 2.85-1.19 5.22-4.57 6.02-8.04z"/>
	<path id="&lt;Path&gt;" class="s4" d="m111.33 32.39c-0.82-3.54 0-7.18 3.62-8.71 9.34-3.93 15.69-11.33 18.86-21.11 1.12-3.45 6.08-2.78 6.27 0.85 0.41 7.8-0.53 16.11-3.42 23.41-2.75 6.94-10.59 17.24-19.31 13.6-2.85-1.19-5.22-4.57-6.02-8.04z"/>
</svg>