<svg version="1.2" xmlns="http://www.w3.org/2000/svg" viewBox="0 0 176 150" width="176" height="150">
	<style>
		.s0 { fill: #feb03d } 
		.s1 { fill: #ffd6a3 } 
		.s2 { fill: #914e37 } 
		.s3 { fill: #ff9e5c } 
		.s4 { fill: #fec76c } 
	</style>
	<path id="&lt;Path&gt;" class="s0" d="m13.18 74.98c2.82-20.55 9.01-40.63 18.24-59.21 1.73-3.49 3.65-7.03 6.69-9.49 3.03-2.45 7.45-3.58 10.9-1.76 2.99 1.58 4.57 4.9 5.86 8.03 4.45 10.75 7.87 21.91 10.22 33.31-18.44 7.38-35.99 17.25-51.91 29.12z"/>
	<path id="&lt;Path&gt;" class="s1" d="m50.7 31.35q-0.76-3.33-1.88-6.52c-1.1-3.09-5.24-3.78-7.21-1.17-0.39 0.13-0.69 0.37-0.79 0.86q-0.03 0.14-0.06 0.28c-6.51 9.01-11.04 20.26-8.95 31.24 0.09 0.5 0.55 0.69 0.99 0.66 0.32 0.12 0.68 0.12 0.97-0.08l11.85-8.55c2.19-1.58 6.46-3.41 6.9-6.38 0.45-3.03-1.15-7.39-1.82-10.34z"/>
	<path id="&lt;Path&gt;" class="s0" d="m158.83 71.47c-2.82-20.55-9.01-40.64-18.24-59.21-1.73-3.5-3.65-7.04-6.69-9.49-3.03-2.45-7.45-3.58-10.9-1.76-2.99 1.58-4.57 4.9-5.86 8.02-4.44 10.75-7.87 21.92-10.22 33.31 18.44 7.39 35.99 17.25 51.91 29.13z"/>
	<path id="&lt;Path&gt;" class="s1" d="m119.57 38.28c0.44 2.95 4.67 4.77 6.85 6.34l11.77 8.49c0.28 0.2 0.64 0.2 0.96 0.07 0.43 0.04 0.89-0.16 0.98-0.64 2.07-10.91-2.42-22.08-8.89-31.02q-0.03-0.14-0.05-0.28c-0.1-0.49-0.4-0.73-0.75-0.8-2-2.65-6.11-1.97-7.2 1.1q-1.11 3.17-1.86 6.48c-0.67 2.93-2.26 7.26-1.81 10.26z"/>
	<path id="&lt;Path&gt;" class="s1" d="m171.2 104.19c-3.48-14.1-9.76-27.47-12.19-32.33-19.13 11.19-36.1 26.04-49.72 43.52-2.74 3.52-5.37 7.17-8.77 10.05-3.4 2.88-7.73 4.96-12.18 4.66q-0.68-0.05-1.3-0.22c-1.54 0.05-3.14-0.49-4.55-1.89-11.62-11.52-22.02-24.59-34.07-35.62-9.93-9.1-23.42-12.87-35.2-18.87-2.35 4.84-3.72 11.31-5.02 15.41q-3.92 12.36-6.46 25.13c-1.03 5.2-1.76 11.11 1.15 15.4 2.01 2.95 5.33 4.46 8.51 5.74 46.46 18.76 99.12 19.06 145.77 0.84 6.42-2.51 13.18-5.76 16.64-12.12 3.66-6.72-0.75-12.17-2.61-19.7z"/>
	<path id="&lt;Path&gt;" class="s0" d="m35.01 83.87q1.58 0.93 3.1 1.98c13.18 9.17 23.65 22.75 34.63 34.34 4.34 4.59 9.3 9.48 15.6 9.9 4.45 0.3 8.78-1.78 12.18-4.66 3.4-2.88 6.03-6.53 8.77-10.05 13.62-17.49 30.6-32.35 49.74-43.53-15.02-27.38-46.64-44.73-77.8-42.69-14.37 0.93-28.34 6-40.28 14-6.15 4.13-11.77 9.04-16.67 14.6-2.87 3.26-12.34 15.01-12.21 18.31 9.29 1.05 16.33 3.89 22.94 7.8z"/>
	<path id="&lt;Path&gt;" class="s2" d="m89.47 116.71c-6.26-0.08-12.66 2.44-13.09 7.4-0.08 0.86 0.26 1.7 0.65 2.48 2.26 4.43 5.65 11.4 11.42 11.8 6.05 0.43 10.26-7.24 12.57-11.8 0.4-0.78 0.73-1.62 0.66-2.48-0.43-4.91-6.26-7.33-12.21-7.4z"/>
	<path id="&lt;Path&gt;" class="s2" d="m127.75 96.57c3.11 0.12 6.38-3.19 7.07-6.02 1.26-5.2-4.66-2.97-6.8-1.37-1.48 1.11-3.41 4.19-2.76 6.01 0.28 0.78 1.03 1.33 2.49 1.38z"/>
	<path id="&lt;Path&gt;" class="s2" d="m42.84 88.49c-0.72 1.79 1.08 4.95 2.52 6.11 2.08 1.69 7.89 4.15 6.84-1.09-0.57-2.86-3.71-6.3-6.82-6.3-1.46-0.01-2.23 0.51-2.54 1.28z"/>
	<path id="&lt;Path&gt;" class="s2" d="m135.74 119.71c0 5.11-2.26 9.25-5.05 9.25-2.79 0-5.05-4.14-5.05-9.25 0-5.1 2.26-9.24 5.05-9.24 2.79 0 5.05 4.14 5.05 9.24z"/>
	<path id="&lt;Path&gt;" class="s2" d="m40.31 119.71c0 5.11 2.26 9.25 5.05 9.25 2.79 0 5.05-4.14 5.05-9.25 0-5.1-2.26-9.24-5.05-9.24-2.79 0-5.05 4.14-5.05 9.24z"/>
	<path id="&lt;Path&gt;" class="s3" d="m166.13 120.1c0 6.23-5.05 11.28-11.28 11.28-6.23 0-11.28-5.05-11.28-11.28 0-6.23 5.05-11.28 11.28-11.28 6.23 0 11.28 5.05 11.28 11.28z"/>
	<path id="&lt;Path&gt;" class="s3" d="m9.93 120.1c0 6.23 5.04 11.28 11.27 11.28 6.23 0 11.28-5.05 11.28-11.28 0-6.23-5.05-11.28-11.28-11.28-6.23 0-11.27 5.05-11.27 11.28z"/>
	<path id="&lt;Path&gt;" class="s4" d="m74.42 106.86c-0.57-0.87-1.09-1.84-1.84-2.56-0.76-0.72-2.16-0.01-1.82 1.06 0.34 1.05 1.01 1.99 1.56 2.93 0.54 0.91 1.07 1.83 2.1 2.2 0.6 0.21 1.07-0.33 1.13-0.86 0.11-1.03-0.59-1.96-1.13-2.77z"/>
	<path id="&lt;Path&gt;" class="s4" d="m83.76 102.43c-0.4-0.94-1.68-0.6-1.53 0.43 0.33 2.2 0.44 4.88 2 6.62 0.36 0.4 1.17 0.22 1.27-0.34 0.42-2.31-0.87-4.64-1.74-6.71z"/>
	<path id="&lt;Path&gt;" class="s4" d="m95.77 102.16c-0.69 1.14-1.27 2.31-1.78 3.54-0.48 1.13-1.07 2.26-0.79 3.5 0.11 0.5 0.78 0.78 1.21 0.49 1-0.67 1.34-1.79 1.77-2.88 0.51-1.3 0.91-2.6 1.21-3.96 0.22-0.97-1.09-1.58-1.62-0.69z"/>
	<path id="&lt;Path&gt;" class="s4" d="m106.78 105.52c-1.25 0.41-2.09 1.63-2.85 2.63-0.73 0.96-1.8 2.3-1.75 3.56 0.03 0.76 0.83 1.25 1.51 0.86 0.98-0.55 1.62-1.9 2.26-2.81 0.68-0.97 1.72-1.89 2.03-3.05 0.18-0.69-0.48-1.43-1.2-1.19z"/>
	<path id="&lt;Path&gt;" class="s4" d="m89.98 95.4q-0.05-1.69-0.11-3.37c-0.04-1.31-1.99-1.31-2.03 0q-0.06 1.68-0.11 3.37-0.04 0.72-0.03 1.44c0.02 0.65 0.23 1.04 0.37 1.66 0.17 0.78 1.41 0.78 1.57 0 0.14-0.62 0.35-1.01 0.37-1.66 0.02-0.48-0.01-0.96-0.03-1.44z"/>
	<path id="&lt;Path&gt;" class="s4" d="m105.35 91.29c-0.87 1.21-1.5 2.58-2.11 3.93-0.55 1.18-1.16 2.37-1.26 3.68-0.07 0.8 1.06 1.22 1.58 0.65 0.89-0.96 1.34-2.22 1.84-3.42 0.57-1.36 1.15-2.75 1.45-4.2 0.2-0.94-0.96-1.39-1.5-0.64z"/>
	<path id="&lt;Path&gt;" class="s4" d="m76 97.41c-0.2-0.77-0.61-1.4-0.91-2.12-0.3-0.72-0.51-1.5-0.64-2.27-0.19-1.08-2-0.84-1.93 0.26 0.11 1.7 0.49 3.93 1.89 5.05 0.71 0.57 1.84 0.07 1.59-0.92z"/>
	<path id="&lt;Path&gt;" class="s4" d="m80.57 84.53c-0.38-1.32-0.85-2.89-1.9-3.83-0.52-0.47-1.49-0.18-1.46 0.6 0.06 1.33 0.7 2.59 1.02 3.87 0.32 1.28 0.4 2.73 0.98 3.9 0.38 0.77 1.53 0.52 1.75-0.23 0.4-1.31-0.01-3.02-0.39-4.31z"/>
	<path id="&lt;Path&gt;" class="s4" d="m71 77.43c-0.42-1.22-0.68-2.5-1.2-3.67-0.4-0.88-1.52-0.29-1.61 0.44-0.28 2.26 0.75 5.97 2.57 7.45 0.48 0.39 1.48 0.2 1.4-0.58-0.13-1.3-0.74-2.42-1.16-3.64z"/>
	<path id="&lt;Path&gt;" class="s4" d="m89.06 72.96c-0.3-0.84-1.79-1.09-1.96 0-0.21 1.29-0.04 2.59-0.04 3.9 0 1.41-0.12 2.82-0.21 4.23-0.11 1.62 2.27 1.53 2.47 0 0.32-2.45 0.61-5.78-0.26-8.13z"/>
	<path id="&lt;Path&gt;" class="s4" d="m99.92 74.85c-0.83 1-1.17 2.24-1.6 3.44-0.43 1.22-0.99 2.37-0.74 3.67 0.13 0.65 0.95 0.74 1.38 0.37 0.93-0.81 1.18-2.06 1.56-3.18 0.4-1.2 0.93-2.4 0.89-3.68-0.02-0.69-0.98-1.23-1.49-0.62z"/>
	<path id="&lt;Path&gt;" class="s4" d="m96.39 62.04c-0.39 1.66-0.74 3.23-0.64 4.94 0.06 1 1.42 1.19 1.74 0.24 0.54-1.63 0.62-3.23 0.68-4.93 0.03-1.02-1.55-1.24-1.78-0.25z"/>
	<path id="&lt;Path&gt;" class="s4" d="m78.97 64.17c0.01-0.99-1.46-0.97-1.52 0-0.12 1.8-0.65 4.1 0.44 5.71 0.37 0.55 1.27 0.51 1.45-0.19 0.46-1.76-0.37-3.73-0.37-5.52z"/>
	<path id="&lt;Path&gt;" class="s4" d="m66.9 59.3c-0.12-0.75-1.24-0.52-1.28 0.18-0.11 2.21 0.06 5 2.04 6.4 0.35 0.24 0.88-0.09 0.86-0.5-0.09-2.08-1.3-4.01-1.62-6.08z"/>
	<path id="&lt;Path&gt;" class="s4" d="m89.31 54.33c-0.48-0.96-1.74-0.22-1.6 0.68 0.27 1.78 0.44 3.6 0.97 5.31 0.23 0.76 1.44 0.86 1.63 0 0.45-2.07-0.06-4.11-1-5.99z"/>
	<path id="&lt;Path&gt;" class="s4" d="m64.41 89.32c-0.58-1.09-1.97-0.27-1.83 0.77 0.22 1.56 0.73 3.91 1.9 5.04 0.42 0.41 1.31 0.28 1.42-0.38 0.3-1.72-0.67-3.93-1.49-5.43z"/>
	<path id="&lt;Path&gt;" class="s4" d="m58.67 68.71c-0.67-1-2.07-0.14-1.59 0.93 0.4 0.9 0.73 1.83 1.08 2.75 0.31 0.81 0.58 1.73 1.02 2.46 0.29 0.49 1.23 0.48 1.33-0.17 0.31-2.07-0.72-4.3-1.84-5.97z"/>
	<path id="&lt;Path&gt;" class="s4" d="m80.6 48.98c-0.06-1.29 0.09-2.57-0.13-3.85-0.12-0.71-1.31-0.89-1.61-0.21-0.98 2.21-1.05 5.97 0.13 8.13 0.36 0.64 1.53 0.56 1.66-0.22 0.21-1.25 0-2.58-0.05-3.85z"/>
	<path id="&lt;Path&gt;" class="s4" d="m102.78 42.68c-0.18-0.56-0.87-0.62-1.2-0.15-0.78 1.1-0.8 2.63-0.94 3.94-0.15 1.48-0.23 2.97 0.12 4.43 0.17 0.7 1.17 0.65 1.37 0 0.4-1.34 0.47-2.74 0.59-4.13 0.11-1.32 0.49-2.8 0.06-4.09z"/>
	<path id="&lt;Path&gt;" class="s4" d="m68.49 46.8q-0.31-1.42-0.66-2.83c-0.21-0.9-1.49-0.5-1.36 0.37q0.22 1.45 0.48 2.88 0.11 0.62 0.24 1.23c0.11 0.5 0.32 0.82 0.53 1.29 0.23 0.55 1.05 0.24 1.06-0.28 0.01-0.96-0.09-1.72-0.29-2.66z"/>
	<path id="&lt;Path&gt;" class="s4" d="m92.45 35.53c-0.1-0.43-0.44-1.41-1.08-1.1-0.61 0.29-0.66 1.07-0.7 1.68-0.07 0.86-0.08 1.8 0.26 2.61 0.31 0.72 1.32 0.83 1.59 0 0.32-1.01 0.17-2.18-0.07-3.19z"/>
	<path id="&lt;Path&gt;" class="s4" d="m77.27 33.86c-0.15-0.93-1.72-0.93-1.87 0q-0.22 1.3-0.18 2.61c0.03 0.84-0.07 1.8 0.26 2.58 0.35 0.84 1.36 0.84 1.71 0 0.33-0.78 0.23-1.74 0.26-2.58q0.04-1.31-0.18-2.61z"/>
	<path id="&lt;Path&gt;" class="s4" d="m110.04 60.3c-0.7 1.15-1.86 3.01-1.29 4.41 0.26 0.65 1.1 0.83 1.51 0.19 0.36-0.55 0.34-1.17 0.48-1.8 0.15-0.68 0.3-1.41 0.59-2.04 0.4-0.86-0.78-1.6-1.29-0.76z"/>
	<path id="&lt;Path&gt;" class="s4" d="m110.48 77.37c-0.79 1.92-1.51 4.13-1.56 6.2-0.01 0.52 0.64 0.76 1 0.41 1.65-1.59 2.42-4.07 2.56-6.34 0.08-1.24-1.6-1.24-2-0.27z"/>
	<path id="&lt;Path&gt;" class="s4" d="m114.45 42.81c-0.61 0.98-0.96 1.97-1.31 3.07-0.33 1.01-0.86 2.19-0.75 3.27 0.08 0.67 0.98 1.29 1.53 0.63 0.71-0.87 0.94-2.04 1.24-3.12 0.33-1.17 0.6-2.26 0.63-3.48 0.02-0.74-0.97-0.95-1.34-0.37z"/>
	<path id="&lt;Path&gt;" class="s4" d="m97.01 92.73c-0.48 0.93-0.86 1.94-1.2 2.93-0.34 0.95-0.76 1.89-0.6 2.9 0.12 0.77 1.1 0.82 1.58 0.42 0.69-0.59 0.97-1.66 1.31-2.49 0.37-0.94 0.74-1.91 0.97-2.89 0.28-1.2-1.45-2.04-2.06-0.87z"/>
	<path id="&lt;Path&gt;" class="s1" d="m90.52 131.81c-1.94-0.28-3.56-0.26-4.93-1.9-1.29-1.55-1.58-3.66-2.79-5.24-0.55-0.74-1.62-0.49-1.71 0.46-0.25 2.62 1.2 5.78 3.13 7.55 1.77 1.62 4.78 2.8 6.79 1 0.58-0.52 0.34-1.75-0.49-1.87z"/>
	<path id="&lt;Path&gt;" class="s2" d="m96.98 140.04c-0.29-0.09-0.72 0-0.91 0.24-0.63 0.78-0.32 1.69-0.88 2.47-0.83 1.13-2.7 1.17-3.91 0.83-1.01-0.29-1.23-1.06-1.27-1.93q0-0.13 0-0.25c-0.01-0.43 0.02-0.87 0-1.28-0.04-1.28-0.03-2.63-0.35-3.87-0.02-0.08-0.08-0.11-0.12-0.17-0.21-0.8-1.3-0.81-1.49-0.08-0.32 1.24-0.31 2.6-0.36 3.88-0.05 1.32 0.34 3-1.26 3.45-1.21 0.34-3.09 0.31-3.91-0.82-0.56-0.78-0.26-1.69-0.88-2.47-0.2-0.24-0.63-0.34-0.91-0.24-1.86 0.64-1.33 2.93-0.44 4.2 1.22 1.76 3.43 2.27 5.45 2.05 1.06-0.11 2.15-0.43 2.97-1.05 0.83 0.79 2.06 1.17 3.25 1.29 2.03 0.22 4.23-0.29 5.45-2.04 0.89-1.28 1.43-3.57-0.43-4.21z"/>
</svg>