<svg version="1.2" xmlns="http://www.w3.org/2000/svg" viewBox="0 0 176 171" width="176" height="171">
	<style>
		.s0 { fill: #dd7b51 } 
		.s1 { fill: #ffb087 } 
		.s2 { fill: #ac3e1f } 
		.s3 { fill: #fdebca } 
		.s4 { fill: #e68d6a } 
	</style>
	<path id="&lt;Path&gt;" class="s0" d="m40.11 15.27c-2.81-5.87-8.18-10.9-14.65-11.61-5.63-0.61-11.29 2.19-15.03 6.45-3.74 4.25-8.27 12.91-9.2 18.5-2.31 13.85 4.37 25.53 13.54 36.16-1.05-1.22 20.09-22.94 22.13-25.02 2.59-2.62 6.5-5.11 6.8-9.04 0.38-4.89-1.5-11.09-3.59-15.44z"/>
	<path id="&lt;Path&gt;" class="s0" d="m128.41 14.96c2.2-6.13 7.02-11.69 13.39-13.05 5.54-1.19 11.45 1.02 15.61 4.87 4.15 3.85 6.71 9.16 8.21 14.63 3.71 13.54 1.1 28.67-6.93 40.19 0.92-1.32-22.33-20.77-24.58-22.62-2.84-2.34-6.98-4.43-7.69-8.31-0.87-4.82 0.36-11.17 1.99-15.71z"/>
	<path id="&lt;Path&gt;" class="s1" d="m153.11 27.06q-0.12-0.84-0.24-1.67c-0.56-3.57-1.69-7.83-5.45-9.17-2.45-0.87-4.83 0.21-6.58 1.96-2.46 2.47-3.81 5.96-3.81 9.44 0 4.2 2.05 6.02 5.32 8.25 2.03 1.38 3.9 2.99 5.57 4.79 1.46 1.59 2.48 3.78 4.04 5.22 1.31 1.22 1.54-2.12 1.6-2.81 0.44-5.33 0.26-10.72-0.45-16.01z"/>
	<path id="&lt;Path&gt;" class="s1" d="m34.69 36.22c0.96-2.71-0.07-5.86-1-8.43-0.85-2.32-2.35-4.32-4.64-5.35-4.39-1.97-7.88 1.47-9.59 5.27-1.83 4.06-2.32 8.59-2.28 13 0.02 2.58-0.3 7.19 1.35 9.34 1.48 1.92 2.61-0.23 3.84-1.55 2.2-2.38 4.54-4.68 7.05-6.75 1.94-1.6 4.36-3.02 5.27-5.53z"/>
	<path id="&lt;Path&gt;" class="s0" d="m93.51 171.33c25.7-1.14 54.58-13.64 69.75-35.27 10.65-15.19 14.18-35.07 10.36-53.31-3.81-18.23-14.71-34.67-29.34-45.94-27.31-21.04-65.15-24.03-95.71-8.63-4.83 2.44-9.45 5.32-13.74 8.63-14.64 11.27-25.54 27.71-29.35 45.94-3.82 18.24-0.28 38.12 10.37 53.31 8.51 12.15 21.12 20.94 34.75 26.5 13.25 5.4 27.36 9.25 41.72 8.81q0.6-0.01 1.19-0.04z"/>
	<path id="&lt;Path&gt;" class="s2" d="m38.54 77.11c-1.82-0.71-5.02 1.14-6.19 2.6-1.69 2.12-4.14 8.04 1.17 6.94 2.89-0.61 6.35-3.82 6.34-6.97-0.01-1.48-0.54-2.26-1.32-2.57z"/>
	<path id="&lt;Path&gt;" class="s2" d="m137.06 78.43c-0.02 3.15 3.44 6.36 6.33 6.96 5.31 1.11 2.86-4.81 1.17-6.93-1.17-1.46-4.36-3.31-6.18-2.6-0.78 0.31-1.31 1.09-1.32 2.57z"/>
	<path id="&lt;Path&gt;" class="s3" d="m115.21 107.39c-2.44-13.31-8.03-30.03-22.76-32.34-5.15-0.8-10.49 0.81-14.8 3.74-11.48 7.85-16.18 24.5-17.03 37.68-0.79 12.17 4.9 22.48 17.35 25.08 11.17 2.33 26.53 1.03 33.93-8.82 4.39-5.83 5.09-13.71 4.03-20.93q-0.3-2.12-0.72-4.41z"/>
	<path id="&lt;Path&gt;" class="s2" d="m103.12 118.53c-0.23-0.97-1.81-0.67-1.72 0.3 0.37 4.15-3.77 5.62-7.19 4.25-2.23-0.89-2.63-2.97-3.58-4.87q0.07-5.56-0.2-11.1c-0.07-1.3 2.63-2.42 3.48-3.05 2.81-2.07 5.61-4.39 7.42-7.42 0.71-1.17 1.3-2.46 1.36-3.83 0.2-4.47-5.33-5.79-8.72-6.4-5.23-0.95-18.97-1.15-18.26 6.74 0.47 5.33 7.4 9.33 11.27 12.54q0.38 0.32 0.75 0.63 0.08 0.08 0.14 0.19-0.02 0.33 0.16 0.6-0.28 5.54-0.2 11.1c-0.95 1.9-1.35 3.98-3.58 4.87-3.42 1.37-7.57-0.1-7.19-4.25 0.09-0.97-1.5-1.27-1.72-0.3-0.98 4.33 2.76 7.03 6.77 6.73 2.67-0.2 4.79-1.6 5.93-3.71q0.1-0.23 0.22-0.46 0.16-0.33 0.28-0.68 0.32-0.42 0.69-0.9 0.37 0.46 0.67 0.96 0.14 0.28 0.3 0.62 0.11 0.23 0.22 0.46c1.13 2.11 3.25 3.51 5.93 3.71 4.01 0.3 7.75-2.4 6.77-6.73z"/>
	<path id="&lt;Compound Path&gt;" fill-rule="evenodd" class="s2" d="m81.49 125.55c-2.14 0-4.1-0.81-5.32-2.23-1.14-1.32-1.51-3-1.09-4.85 0.13-0.56 0.64-0.89 1.25-0.79 0.54 0.08 1.06 0.52 1 1.17-0.14 1.54 0.35 2.77 1.43 3.57 1.36 1.01 3.48 1.18 5.39 0.41 1.65-0.66 2.25-2.04 2.88-3.51q0.25-0.59 0.53-1.17c-0.05-3.68 0.01-7.37 0.19-10.97q-0.15-0.26-0.15-0.59c-0.05-0.07-0.79-0.69-0.79-0.69-0.76-0.63-1.63-1.28-2.56-1.98-3.75-2.83-8.42-6.35-8.81-10.74q-0.25-2.78 1.73-4.59c4.11-3.75 13.78-3.01 16.85-2.45 2.5 0.46 9.17 1.67 8.94 6.68-0.06 1.21-0.5 2.47-1.39 3.96-1.86 3.11-4.71 5.44-7.5 7.5q-0.34 0.24-0.91 0.56c-0.99 0.57-2.5 1.44-2.46 2.26 0.18 3.61 0.25 7.33 0.2 11.05q0.28 0.58 0.53 1.17c0.63 1.47 1.22 2.85 2.88 3.51 1.91 0.76 4.03 0.6 5.39-0.41 1.07-0.8 1.57-2.03 1.43-3.57-0.06-0.65 0.45-1.09 0.99-1.17 0.63-0.1 1.13 0.23 1.26 0.79 0.42 1.86 0.04 3.53-1.09 4.85-1.35 1.56-3.59 2.37-5.96 2.21-2.7-0.21-4.94-1.61-6.15-3.86q-0.09-0.19-0.17-0.35l-0.05-0.11q-0.13-0.26-0.22-0.5l-0.08-0.11q-0.19-0.33-0.43-0.64-0.25 0.32-0.44 0.64l-0.1 0.17q-0.07 0.18-0.16 0.36l-0.08 0.19q-0.09 0.16-0.16 0.33c-1.22 2.27-3.46 3.67-6.16 3.88q-0.33 0.02-0.64 0.02zm-5.36-7.35c-0.22 0-0.46 0.1-0.53 0.39-0.38 1.68-0.04 3.19 0.98 4.38 1.21 1.41 3.32 2.18 5.51 2.02 2.51-0.19 4.59-1.49 5.71-3.57q0.07-0.16 0.16-0.34l0.08-0.17q0.14-0.29 0.25-0.59l0.36-1.1 0.07 0.51q0.13-0.17 0.26-0.34l0.21-0.28 0.25 0.24q0.18 0.23 0.34 0.45l0.09-0.36 0.3 0.88q0.11 0.32 0.26 0.62l0.06 0.14q0.09 0.18 0.17 0.36c1.11 2.06 3.19 3.36 5.71 3.55 2.19 0.18 4.29-0.61 5.51-2.02 1.02-1.19 1.36-2.7 0.97-4.38-0.08-0.34-0.4-0.41-0.64-0.38-0.28 0.05-0.57 0.25-0.54 0.6 0.15 1.7-0.43 3.14-1.65 4.04-1.51 1.13-3.83 1.32-5.91 0.48-1.87-0.74-2.53-2.29-3.18-3.8q-0.25-0.6-0.54-1.2 0.03-5.78-0.23-11.2c-0.06-1.16 1.55-2.08 2.73-2.76 0.36-0.21 0.66-0.38 0.86-0.52 2.75-2.03 5.54-4.32 7.35-7.34 0.85-1.42 1.27-2.6 1.32-3.71 0.18-4.07-4.76-5.45-8.5-6.13-3.77-0.68-12.74-1.02-16.39 2.32q-1.78 1.63-1.56 4.14c0.38 4.16 4.94 7.6 8.61 10.36q1.41 1.05 2.57 2l0.75 0.62q0.11 0.1 0.15 0.19c0.06 0.08 0.09 0.23 0.09 0.23q-0.01 0.26 0.11 0.43c-0.14 3.8-0.2 7.53-0.15 11.24-0.23 0.53-0.4 0.93-0.57 1.33-0.65 1.51-1.32 3.06-3.18 3.8-2.09 0.84-4.41 0.65-5.91-0.48-1.22-0.9-1.81-2.34-1.65-4.04 0.03-0.35-0.26-0.55-0.54-0.6q-0.06-0.01-0.12-0.01z"/>
	<path id="&lt;Path&gt;" class="s2" d="m40.19 101.16c0 5.17-2.29 9.37-5.12 9.37-2.83 0-5.12-4.2-5.12-9.37 0-5.18 2.29-9.38 5.12-9.38 2.83 0 5.12 4.2 5.12 9.38z"/>
	<path id="&lt;Path&gt;" class="s2" d="m146.96 99.9c0 5.18-2.29 9.37-5.12 9.37-2.83 0-5.12-4.19-5.12-9.37 0-5.18 2.29-9.37 5.12-9.37 2.83 0 5.12 4.19 5.12 9.37z"/>
	<path id="&lt;Path&gt;" class="s1" d="m41.42 124.12c0 6.32-5.11 11.43-11.43 11.43-6.31 0-11.43-5.11-11.43-11.43 0-6.31 5.12-11.43 11.43-11.43 6.32 0 11.43 5.12 11.43 11.43z"/>
	<path id="&lt;Path&gt;" class="s1" d="m159.58 124.12c0 6.32-5.11 11.43-11.43 11.43-6.31 0-11.43-5.11-11.43-11.43 0-6.31 5.12-11.43 11.43-11.43 6.32 0 11.43 5.12 11.43 11.43z"/>
	<path id="&lt;Path&gt;" class="s4" d="m73.94 56.18c-0.22-0.79-0.42-1.58-0.73-2.34-0.43-1.09-2.38-1.1-2.25 0.3 0.08 0.86 0.25 1.71 0.43 2.55 0.17 0.84 0.26 1.66 0.91 2.28 0.63 0.6 1.57 0.29 1.85-0.49 0.27-0.79 0-1.51-0.21-2.3z"/>
	<path id="&lt;Path&gt;" class="s4" d="m82.95 45.88c-0.07-1.07-0.19-2.13-0.47-3.17-0.22-0.8-1.63-0.93-1.76 0-0.15 1.07-0.17 2.1-0.11 3.17 0.06 0.87 0.06 2.02 0.91 2.47 0.22 0.12 0.54 0.16 0.76 0 0.81-0.59 0.73-1.54 0.67-2.47z"/>
	<path id="&lt;Path&gt;" class="s4" d="m83.51 61.36c-0.11-0.85-0.22-1.71-0.41-2.54-0.29-1.29-2.28-0.99-2.28 0.31 0 0.85 0.09 1.72 0.17 2.57 0.09 0.86 0.12 1.55 0.69 2.24 0.43 0.51 1.39 0.36 1.69-0.22 0.41-0.8 0.26-1.51 0.14-2.36z"/>
	<path id="&lt;Path&gt;" class="s4" d="m72.65 70.03c-0.87-0.92-2.37 0.26-1.74 1.34 0.4 0.69 0.78 1.34 0.99 2.11 0.2 0.73 0.26 1.45 0.79 2.02 0.45 0.47 1.13 0.27 1.46-0.19 1.06-1.48-0.44-4.16-1.5-5.28z"/>
	<path id="&lt;Path&gt;" class="s4" d="m62.32 54.5c-0.27-0.53-0.49-1.07-0.79-1.57-0.62-1.05-2.05-0.31-1.86 0.78 0.17 1.02 0.74 2.69 1.74 3.16 0.67 0.31 1.38-0.07 1.43-0.82 0.04-0.62-0.25-1.02-0.52-1.55z"/>
	<path id="&lt;Path&gt;" class="s4" d="m68.12 42.11c-0.19-0.77-0.36-1.53-0.74-2.24-0.46-0.87-1.74-0.42-1.78 0.49-0.03 0.8 0.17 1.58 0.33 2.36 0.16 0.77 0.24 1.5 0.82 2.08 0.53 0.53 1.36 0.24 1.59-0.42 0.26-0.76-0.03-1.52-0.22-2.27z"/>
	<path id="&lt;Path&gt;" class="s4" d="m55.77 39.5c-0.44-0.73-0.88-1.44-1.73-1.7-0.33-0.1-0.66 0.12-0.76 0.43-0.27 0.86 0.12 1.67 0.47 2.45 0.39 0.86 0.71 1.62 1.68 1.9 0.45 0.13 0.87-0.16 1.01-0.57 0.32-0.95-0.19-1.71-0.67-2.51z"/>
	<path id="&lt;Path&gt;" class="s4" d="m82.9 30.06c-0.19-1.01-1.85-1.01-2.03 0-0.22 1.17-0.53 2.82 0.41 3.74 0.33 0.32 0.87 0.32 1.2 0 0.95-0.92 0.64-2.56 0.42-3.74z"/>
	<path id="&lt;Path&gt;" class="s4" d="m72.51 25.07c-0.63-1.12-2.11-0.31-1.93 0.81 0.22 1.42 0.59 3.16 1.81 4.03 0.47 0.33 1.14-0.03 1.28-0.53 0.41-1.39-0.48-3.11-1.16-4.31z"/>
	<path id="&lt;Path&gt;" class="s4" d="m61.99 28.44c-0.24-0.55-0.39-1.14-0.6-1.69-0.4-1.03-1.98-0.95-2 0.27-0.02 1.19 0.45 3.33 1.62 3.88 0.71 0.33 1.43-0.07 1.5-0.86 0.05-0.64-0.27-1.04-0.52-1.6z"/>
	<path id="&lt;Path&gt;" class="s4" d="m94.83 23.15c-0.28-1.28-2.08-0.89-2.16 0.29-0.08 1.11-0.06 2.2-0.26 3.31-0.17 0.98-0.5 1.91-0.32 2.9 0.14 0.78 1.19 0.94 1.69 0.45 1.54-1.5 1.48-5 1.05-6.95z"/>
	<path id="&lt;Path&gt;" class="s4" d="m94.32 41.3c-0.01-0.8-0.07-1.6-0.13-2.39-0.1-1.45-2.14-1.45-2.24 0-0.06 0.79-0.12 1.59-0.13 2.39-0.01 0.79-0.12 1.5 0.33 2.19 0.45 0.68 1.38 0.68 1.84 0 0.45-0.69 0.34-1.39 0.33-2.19z"/>
	<path id="&lt;Path&gt;" class="s4" d="m93.06 56.76c-0.08-1.53-2.29-1.53-2.36 0-0.09 1.58-0.43 3.52 0.6 4.85 0.25 0.32 0.91 0.32 1.15 0 1.04-1.33 0.7-3.27 0.61-4.85z"/>
	<path id="&lt;Path&gt;" class="s4" d="m90.6 69.13c-0.17-1.41-2.03-1.41-2.2 0-0.09 0.76-0.09 1.52-0.1 2.29 0 0.71 0.27 1.25 0.66 1.84 0.26 0.4 0.82 0.4 1.08 0 0.39-0.59 0.66-1.13 0.65-1.84 0-0.76 0-1.53-0.09-2.29z"/>
	<path id="&lt;Path&gt;" class="s4" d="m101.64 47.45c-0.33-1.14-1.84-0.81-1.96 0.26-0.09 0.89-0.42 2.03-0.14 2.88 0.23 0.69 1.04 0.91 1.59 0.41 0.88-0.8 0.81-2.48 0.51-3.55z"/>
	<path id="&lt;Path&gt;" class="s4" d="m99.21 61.95c-0.25 1.33-0.93 3.33-0.28 4.59 0.29 0.54 1.13 0.65 1.54 0.2 0.95-1.06 0.79-3.15 0.87-4.5 0.08-1.21-1.9-1.5-2.13-0.29z"/>
	<path id="&lt;Path&gt;" class="s4" d="m107.93 53.42q0.01 1.09-0.11 2.16c-0.05 0.38-0.15 0.76-0.18 1.13-0.03 0.37 0.05 0.64 0.08 1.01 0.08 0.8 1.13 1.2 1.59 0.43 0.44-0.76 0.6-1.33 0.7-2.21q0.13-1.25 0.09-2.52c-0.04-1.39-2.17-1.4-2.17 0z"/>
	<path id="&lt;Path&gt;" class="s4" d="m105 70.07c-0.33 1.04-0.86 2.22-0.75 3.33 0.05 0.54 0.72 0.94 1.15 0.48 0.81-0.87 1.13-2.18 1.52-3.28 0.43-1.2-1.53-1.75-1.92-0.53z"/>
	<path id="&lt;Path&gt;" class="s4" d="m113.99 39.14c-0.18-0.71-1.37-0.98-1.69-0.22-0.51 1.2-0.86 3.08-0.29 4.29 0.33 0.7 1.31 0.55 1.68 0 0.66-0.99 0.59-2.95 0.3-4.07z"/>
	<path id="&lt;Path&gt;" class="s4" d="m104.6 34.38c-0.1-1.35-2.02-1.35-2.11 0-0.1 1.3-0.34 2.8 0.38 3.97 0.31 0.5 1.03 0.5 1.34 0 0.72-1.17 0.48-2.67 0.39-3.97z"/>
	<path id="&lt;Path&gt;" class="s4" d="m118.61 25.53c-0.26-1.26-1.96-0.81-2.08 0.29q-0.1 0.86-0.25 1.71c-0.1 0.53-0.31 1.08-0.26 1.62 0.06 0.61 0.68 1.07 1.27 0.72 1.36-0.81 1.62-2.92 1.32-4.34z"/>
	<path id="&lt;Path&gt;" class="s4" d="m105.8 23.1c-0.06-1.14-1.8-1.5-2.08-0.28-0.23 1.01-0.42 2.05-0.01 3.02 0.3 0.72 1.33 0.55 1.69 0 0.49-0.77 0.45-1.85 0.4-2.74z"/>
	<path id="&lt;Path&gt;" class="s4" d="m122.3 32.68c-1.46 1.35-2.76 3.34-1.89 5.35 0.15 0.35 0.73 0.41 0.97 0.12 1.01-1.23 1.32-2.83 2.3-4.09 0.76-0.97-0.44-2.27-1.38-1.38z"/>
	<path id="&lt;Path&gt;" class="s4" d="m118.65 48.84c-0.45 1.14-1.16 2.39-0.94 3.64 0.13 0.69 1.02 0.79 1.48 0.39 0.89-0.81 1.1-2.38 1.42-3.49 0.37-1.29-1.49-1.73-1.96-0.54z"/>
	<path id="&lt;Path&gt;" class="s4" d="m115 62.64c-1.04 2.3-1.99 4.91-1.86 7.46 0.04 0.71 0.86 0.86 1.26 0.34 1.49-1.95 2.2-4.56 2.63-6.95 0.2-1.13-1.47-2.09-2.03-0.85z"/>
	<path id="&lt;Path&gt;" class="s3" d="m94.36 91.54c-1.28-2.58-4.97-2.47-7.49-2.25-2.37 0.22-5.67 0.62-6.92 2.91-0.52 0.96-0.22 2.12 0.71 2.7 1.86 1.16 4.48 0.52 6.59 0.6 2.43 0.11 4.72 0.95 6.71-0.83 0.89-0.8 0.9-2.13 0.4-3.13z"/>
</svg>