<svg version="1.2" xmlns="http://www.w3.org/2000/svg" viewBox="0 0 195 178" width="195" height="178">
	<style>
		.s0 { fill: #fe8d3d } 
		.s1 { fill: #feb03d } 
		.s2 { fill: #ff5342 } 
		.s3 { fill: #ffd6a3 } 
		.s4 { fill: #914538 } 
		.s5 { fill: #ac3e1f } 
		.s6 { fill: #313131 } 
		.s7 { fill: #feb367 } 
		.s8 { fill: #fe742e } 
	</style>
	<path id="&lt;Path&gt;" class="s0" d="m187.9 52.05q-1.54-3.46-3.42-6.77c-13.44-23.6-36.13-36.42-61.98-41.96-35.09-7.51-80.65-0.12-105.03 29.57-10.9 13.27-15.78 30.75-16.04 47.91-0.48 31.57 10.15 64.37 38 82.2 12.84 8.23 28.03 12.28 43.23 13.53 27.75 2.27 61.31-0.54 82.98-19.96 28.12-25.18 37.64-70.06 22.26-104.52z"/>
	<path id="&lt;Path&gt;" class="s1" d="m167.18 43.23c-1.51-3.91-5.06-6.96-9.45-6.94-4.4 0.02-8.47 2.65-11.4 5.76-0.82 0.86-5.3 6.52-4.52 7.61 1.34 1.88 11 9.38 13.09 12.17 0 0 9.04-4.66 11.86-9.63 1.55-2.72 1.56-6.04 0.42-8.97z"/>
	<path id="&lt;Path&gt;" class="s1" d="m165.5 113.25c-1.63-23.84-12.78-57.58-37.38-66.55-9.74-3.54-20.24-3.72-30.48-3.68-9.98 0.04-19.94 0.22-29.45 3.68-24.61 8.97-35.75 42.71-37.39 66.55-0.6 8.68 0.71 17.72 5.27 25.13 6.54 10.63 18.02 15.62 29.26 19.71 6.8 2.47 21.34 6.07 32.82 5.1 11.48 0.97 26.02-2.63 32.83-5.1 11.23-4.09 22.72-9.08 29.25-19.71 4.56-7.41 5.87-16.45 5.27-25.13z"/>
	<path id="&lt;Path&gt;" class="s2" d="m156.62 47.19c-3.94-2.96-8.88 3.36-10.04 6.7 1.44 1.21 2.93 2.52 4.11 3.81q0.69 0.6 1.31 1.18 0.09-0.09 0.2-0.18c1.1-0.2 2.39-1.97 3.24-3.15 2.4-2.7 4.27-6.03 1.18-8.36z"/>
	<path id="&lt;Path&gt;" class="s1" d="m17.76 44.14c1.55-3.99 5.17-7.11 9.65-7.09 4.5 0.02 8.65 2.71 11.65 5.89 0.83 0.88 5.41 6.65 4.61 7.77-1.37 1.92-11.23 9.58-13.36 12.43 0 0-9.23-4.76-12.12-9.84-1.58-2.78-1.59-6.17-0.43-9.16z"/>
	<path id="&lt;Path&gt;" class="s2" d="m28.55 48.19c4.02-3.03 9.07 3.43 10.25 6.84-1.47 1.23-2.99 2.57-4.2 3.89q-0.7 0.62-1.33 1.2-0.1-0.08-0.21-0.18c-1.12-0.2-2.44-2.01-3.3-3.22-2.46-2.75-4.36-6.15-1.21-8.53z"/>
	<path id="&lt;Path&gt;" class="s3" d="m87.56 77.03c1.32-4.19 3.32-8.72 6.9-9.89 2.49-0.81 5.22 0.31 7.22 2.28 2 1.98 3.38 4.72 4.54 7.51 5.39 12.98 6.7 27.78 7.91 42.23-7.59-3.03-15.79-3.84-23.68-2.32-2.04 0.39-6.23 1.72-7.61-0.79-1.38-2.51-0.21-10.13-0.03-13.05 0.54-8.87 2.14-17.65 4.75-25.97z"/>
	<path id="&lt;Path&gt;" class="s4" d="m110.76 112.71c-8.93-3.5-30.32-2.6-29.01 4.09 0.5 2.53 4.91 4.59 6.78 5.79 1.69 1.07 3.54 2.1 5.46 2.9q1.92 0.8 3.89 1.21 0.02 0.06 0.04 0.12 0.12-0.03 0.23-0.06 0.12 0.03 0.23 0.06 0.02-0.06 0.04-0.12 1.98-0.41 3.9-1.21c1.92-0.8 3.77-1.83 5.45-2.9 1.87-1.2 6.28-3.26 6.78-5.8 0.33-1.7-1.21-3.07-3.79-4.08z"/>
	<path id="&lt;Path&gt;" class="s5" d="m70.29 87.75c-1.82-0.71-5.02 1.14-6.19 2.6-1.69 2.12-4.14 8.04 1.17 6.94 2.89-0.6 6.35-3.81 6.34-6.97-0.01-1.48-0.54-2.26-1.32-2.57z"/>
	<path id="&lt;Path&gt;" class="s5" d="m71.94 111.8c0 5.17-2.29 9.37-5.12 9.37-2.83 0-5.12-4.2-5.12-9.37 0-5.18 2.29-9.38 5.12-9.38 2.83 0 5.12 4.2 5.12 9.38z"/>
	<path id="&lt;Path&gt;" class="s5" d="m124.71 90.32c-0.02 3.16 3.44 6.37 6.33 6.97 5.31 1.1 2.86-4.82 1.17-6.94-1.17-1.46-4.37-3.31-6.19-2.6-0.78 0.31-1.31 1.09-1.31 2.57z"/>
	<path id="&lt;Path&gt;" class="s5" d="m124.37 111.8c0 5.17 2.29 9.37 5.12 9.37 2.83 0 5.12-4.2 5.12-9.37 0-5.18-2.29-9.38-5.12-9.38-2.83 0-5.12 4.2-5.12 9.38z"/>
	<path id="&lt;Path&gt;" class="s2" d="m61.91 126.84c-0.66 6.28-6.28 10.84-12.56 10.18-6.28-0.65-10.84-6.28-10.18-12.56 0.65-6.28 6.28-10.83 12.56-10.18 6.28 0.66 10.83 6.28 10.18 12.56z"/>
	<path id="&lt;Path&gt;" class="s2" d="m156.68 126.84c-0.65 6.28-6.28 10.84-12.56 10.18-6.27-0.65-10.83-6.28-10.18-12.56 0.66-6.28 6.28-10.83 12.56-10.18 6.28 0.66 10.84 6.28 10.18 12.56z"/>
	<path id="&lt;Path&gt;" class="s6" d="m96.78 132.38c-0.06-0.09-0.23-0.04-0.18 0.08 0.12 0.32 0.06 0.22 0.27 0.5 0.05 0.07 0.18 0.03 0.15-0.07-0.1-0.32-0.05-0.22-0.24-0.51z"/>
	<path id="&lt;Path&gt;" class="s4" d="m99.17 123.71c-0.09-1.36-2-1.36-2.1 0-0.22 2.93-0.2 5.86-0.24 8.8-0.02 1.53 0.18 3.3-0.49 4.7q-0.43 2.33-3.39 2.54-1.93-0.23-2.45-2.16c0.4-1.91-2.46-2.74-2.95-0.82-1.26 4.85 5.23 7.38 8.83 4.9 1.86-1.27 2.63-3.38 2.9-5.53 0.49-4 0.18-8.42-0.11-12.43z"/>
	<path id="&lt;Path&gt;" class="s4" d="m97.13 123.71c0.09-1.36 2.01-1.36 2.11 0 0.21 2.93 0.19 5.86 0.23 8.8 0.02 1.53-0.18 3.3 0.49 4.7q0.43 2.33 3.4 2.54 1.93-0.23 2.45-2.16c-0.4-1.91 2.45-2.74 2.95-0.82 1.25 4.85-5.24 7.38-8.84 4.9-1.85-1.27-2.63-3.38-2.89-5.53-0.5-4-0.18-8.42 0.1-12.43z"/>
	<path id="&lt;Path&gt;" class="s7" d="m97 76.59q-0.01-1.44-0.03-2.89c-0.01-1.56-2.41-1.57-2.42 0q-0.02 1.45-0.03 2.89c0 0.89-0.04 1.77 0.4 2.57 0.35 0.63 1.33 0.63 1.68 0 0.45-0.8 0.41-1.68 0.4-2.57z"/>
	<path id="&lt;Path&gt;" class="s7" d="m101.83 81.15c-0.06-0.96-1.44-0.97-1.5 0-0.07 1.38-0.35 3.1 0.12 4.43 0.22 0.61 1.04 0.62 1.26 0 0.47-1.33 0.2-3.05 0.12-4.43z"/>
	<path id="&lt;Path&gt;" class="s7" d="m91.2 85.25c-0.01-0.96 0-1.99-0.25-2.92-0.24-0.85-1.49-0.85-1.72 0-0.26 0.93-0.25 1.96-0.26 2.92-0.01 0.95-0.06 1.87 0.33 2.74 0.27 0.59 1.3 0.59 1.57 0 0.39-0.87 0.34-1.79 0.33-2.74z"/>
	<path id="&lt;Path&gt;" class="s7" d="m97.69 89.31c0.15-1.56-2.23-1.52-2.41 0-0.17 1.44-0.17 3.37 0.97 4.45 0.42 0.41 1.14 0.23 1.3-0.34 0.36-1.27 0.01-2.79 0.14-4.11z"/>
	<path id="&lt;Path&gt;" class="s7" d="m105.97 92.57c-0.33-1.42-2.46-0.81-2.17 0.6 0.27 1.36 0.32 3.18 1.26 4.24 0.49 0.56 1.39 0.23 1.59-0.41 0.4-1.34-0.37-3.11-0.68-4.43z"/>
	<path id="&lt;Path&gt;" class="s7" d="m86.64 96.05c-0.16 1.26-0.8 3.1 0.01 4.2 0.26 0.35 0.66 0.41 0.99 0.13 1.1-0.92 0.88-3.01 1.02-4.33 0.13-1.31-1.86-1.26-2.02 0z"/>
	<path id="&lt;Path&gt;" class="s7" d="m91.18 100.02c-0.49 1.41-0.84 3.13 0.15 4.38 0.3 0.38 1.04 0.27 1.24-0.16 0.55-1.21 0.28-2.68 0.43-3.98 0.13-1.09-1.49-1.17-1.82-0.24z"/>
	<path id="&lt;Path&gt;" class="s7" d="m103.18 100.01c-0.15-1.02-1.92-1.02-2.07 0-0.14 0.99-0.19 1.94 0.34 2.82 0.31 0.52 1.08 0.52 1.39 0 0.53-0.88 0.48-1.83 0.34-2.82z"/>
	<path id="&lt;Path&gt;" class="s7" d="m110.1 104.55c-0.01-1.56-2.42-1.56-2.43 0-0.01 1.19-0.18 2.58 0.47 3.63 0.34 0.56 1.14 0.56 1.49 0 0.65-1.05 0.47-2.44 0.47-3.63z"/>
	<path id="&lt;Path&gt;" class="s7" d="m86.95 107.75c0-1.44-2.24-1.45-2.24 0 0 0.89-0.11 1.77 0.4 2.54 0.36 0.54 1.08 0.54 1.44 0 0.51-0.77 0.4-1.65 0.4-2.54z"/>
	<path id="&lt;Path&gt;" class="s7" d="m98.88 105.6c-0.29-0.48-0.98-0.48-1.27 0-0.64 1.05-0.61 2.9-0.06 3.97 0.27 0.53 1.12 0.53 1.39 0 0.55-1.07 0.57-2.92-0.06-3.97z"/>
	<path id="&lt;Path&gt;" class="s8" d="m57.71 36.95c-1.01-1.75-2.97-3.1-4.48-4.42-1.58-1.38-3.21-2.68-4.88-3.96-0.85-0.65-1.76 0.7-1.1 1.43q2.14 2.36 4.44 4.56c1.38 1.32 2.81 3.06 4.54 3.86 0.94 0.44 2.05-0.47 1.48-1.47z"/>
	<path id="&lt;Path&gt;" class="s8" d="m68.14 18.86c-0.32-1.25-2.15-0.71-1.92 0.53 0.86 4.57 1.34 9.71 3.17 14.01 0.39 0.91 1.83 0.42 1.8-0.49-0.14-4.66-1.91-9.55-3.05-14.05z"/>
	<path id="&lt;Path&gt;" class="s8" d="m92.8 13.41c-0.11-1.67-2.62-1.7-2.61 0 0.01 2.36 0.05 4.71-0.02 7.07-0.07 2.12-0.39 4.25-0.09 6.36 0.17 1.2 1.92 0.98 2.22 0 1.26-4.01 0.77-9.29 0.5-13.43z"/>
	<path id="&lt;Path&gt;" class="s8" d="m115.79 14.59c-0.16-0.76-1.24-0.82-1.61-0.21-1.32 2.17-1.53 5.01-2.21 7.44-0.69 2.51-1.55 4.98-1.85 7.57-0.12 1.03 1.33 1.21 1.8 0.49 1.54-2.33 2.31-5.12 2.96-7.82 0.58-2.37 1.43-5.03 0.91-7.47z"/>
	<path id="&lt;Path&gt;" class="s8" d="m144.14 21.72c-1.76 1.8-3.4 3.75-5.02 5.68-1.46 1.74-3.45 3.51-4.35 5.59-0.44 1 0.54 2.44 1.67 1.67 2-1.35 3.45-3.71 4.96-5.57 1.58-1.94 3.17-3.89 4.6-5.93 0.79-1.12-0.94-2.39-1.86-1.44z"/>
	<path id="&lt;Path&gt;" class="s8" d="m127.12 28.05c-1.59 0.9-2.68 2.71-3.68 4.2-1.1 1.64-2.09 3.38-2.77 5.24-0.53 1.45 1.57 2.12 2.36 0.99 1.06-1.53 1.97-3.16 2.99-4.72 0.94-1.43 2.22-2.8 2.75-4.45 0.3-0.95-0.82-1.72-1.65-1.26z"/>
	<path id="&lt;Path&gt;" class="s8" d="m102.17 26.17c-0.04-0.95-1.43-0.95-1.47 0-0.14 3.11-0.52 6.33 0.1 9.4 0.13 0.63 1.15 0.63 1.27 0 0.62-3.07 0.25-6.3 0.1-9.4z"/>
	<path id="&lt;Path&gt;" class="s8" d="m80.09 31.39c-0.55-1.39-1.25-3.01-2.69-3.64-0.35-0.15-0.74 0.02-0.76 0.43-0.04 1.43 0.74 2.77 1.13 4.13 0.42 1.42 0.4 3.04 1.07 4.35 0.46 0.88 1.73 0.58 2-0.26 0.51-1.54-0.18-3.56-0.75-5.01z"/>
	<path id="&lt;Path&gt;" class="s8" d="m175.03 64.73c-4.91 1.19-9.73 4.79-14.03 7.36-1.44 0.85-0.18 2.96 1.3 2.22 4.48-2.24 10.08-4.37 13.73-7.87 0.76-0.73-0.03-1.95-1-1.71z"/>
	<path id="&lt;Path&gt;" class="s8" d="m171.93 79.27c-1.28-0.21-2.45 0.19-3.69 0.53-1.31 0.35-2.55 0.74-3.8 1.28-0.89 0.38-0.45 1.95 0.5 1.85 1.36-0.14 2.64-0.42 3.96-0.75 1.24-0.31 2.43-0.53 3.45-1.34 0.53-0.42 0.25-1.47-0.42-1.57z"/>
	<path id="&lt;Path&gt;" class="s8" d="m187.1 90.5c-5.21-0.79-10.86-0.08-16.03 0.8-1.02 0.17-0.71 1.68 0.23 1.73 5.15 0.27 10.8 0.34 15.8-1.04 0.69-0.18 0.79-1.37 0-1.49z"/>
	<path id="&lt;Path&gt;" class="s8" d="m179.02 104.94c-1.2-0.45-2.49-0.49-3.74-0.74q-1.9-0.37-3.7-1.07c-1.28-0.5-2.19 1.64-0.94 2.23 2.43 1.16 5.69 2.46 8.38 1.51 0.96-0.34 0.93-1.58 0-1.93z"/>
	<path id="&lt;Path&gt;" class="s8" d="m184.61 121.39c-1.78-0.99-3.89-1.45-5.81-2.13-2.07-0.75-4.09-1.85-6.24-2.36-0.82-0.19-1.51 0.84-0.85 1.46 1.67 1.59 3.93 2.52 6.04 3.39 1.97 0.81 4.17 1.68 6.31 1.65 1.05-0.01 1.49-1.48 0.55-2.01z"/>
	<path id="&lt;Path&gt;" class="s8" d="m174.8 136.11c-1.54-2.93-5.55-4.31-8.5-5.38-1.23-0.45-2.02 1.49-0.89 2.11q2.19 1.19 4.31 2.48c1.4 0.86 2.53 1.71 4.17 1.98 0.69 0.11 1.26-0.53 0.91-1.19z"/>
	<path id="&lt;Path&gt;" class="s8" d="m34.32 71.97c-7.2-2.41-15.03-3.59-22.39-5.51-1.39-0.37-1.84 1.58-0.58 2.09 6.93 2.83 15.15 5.46 22.72 5.25 1.07-0.02 1.24-1.5 0.25-1.83z"/>
	<path id="&lt;Path&gt;" class="s8" d="m27.39 82.91c-2.64-1.63-6.54-2.58-9.62-2.72-0.83-0.04-1.12 1.16-0.42 1.55 2.69 1.52 6.5 2.77 9.6 2.8 0.88 0 1.16-1.18 0.44-1.63z"/>
	<path id="&lt;Path&gt;" class="s8" d="m23.28 92.65c-2.19-0.46-4.39-0.18-6.6 0.02-2.19 0.21-4.54 0.19-6.63 0.94-0.81 0.3-1.03 1.7 0 1.88 2.19 0.4 4.42 0.04 6.63-0.13 2.22-0.16 4.51-0.23 6.6-1.04 0.72-0.28 0.92-1.48 0-1.67z"/>
	<path id="&lt;Path&gt;" class="s8" d="m23.99 103.63c-1.28-0.48-2.7-0.07-4.01 0.16-1.56 0.28-3.08 0.59-4.61 1-1 0.27-0.82 1.87 0.25 1.83 1.58-0.05 3.12-0.2 4.69-0.39 1.32-0.15 2.8-0.16 3.89-0.99 0.62-0.47 0.54-1.33-0.21-1.61z"/>
	<path id="&lt;Path&gt;" class="s8" d="m24.9 115.58c-2.26 0.54-4.38 1.68-6.49 2.63-2.26 1.02-4.86 1.78-6.87 3.23-0.79 0.57-0.64 2.16 0.56 2.05 2.43-0.21 4.72-1.35 6.95-2.31 2.39-1.03 4.89-2.11 6.88-3.83 0.84-0.73-0.07-2.01-1.03-1.77z"/>
	<path id="&lt;Path&gt;" class="s8" d="m26.14 127.62c-2.28-0.41-4.47 0.78-6.1 2.29-1.1 1.03 0.55 2.67 1.66 1.66 1.3-1.19 2.85-1.6 4.44-2.23 0.73-0.28 0.96-1.54 0-1.72z"/>
	<path id="&lt;Path&gt;" class="s8" d="m30.96 138.81c-1.93 0.36-3.67 1.27-5.39 2.18-1.63 0.85-3.68 1.68-4.83 3.14-0.42 0.53-0.21 1.49 0.59 1.45 1.86-0.1 3.67-1.22 5.3-2.05 1.83-0.93 3.66-1.88 5.15-3.32 0.64-0.62-0.03-1.55-0.82-1.4z"/>
	<path id="&lt;Path&gt;" class="s8" d="m38.77 149.63c-1.58 1.21-3.52 2.71-4.14 4.68-0.2 0.6 0.43 1.21 1.03 1.03 1.86-0.55 3.39-2.37 4.56-3.83 0.76-0.96-0.28-2.79-1.45-1.88z"/>
	<path id="&lt;Path&gt;" class="s8" d="m53.72 157.93q-1.43 1.34-2.44 3.04c-0.62 1.02-1.38 2.29-1.07 3.51 0.17 0.64 0.98 0.98 1.55 0.63 0.96-0.6 1.34-1.81 1.89-2.76 0.58-1.03 1.26-2.01 1.94-2.98 0.8-1.15-0.91-2.32-1.87-1.44z"/>
	<path id="&lt;Path&gt;" class="s8" d="m73.52 163.11c-0.31-1.44-2.22-0.92-2.37 0.32-0.16 1.3-0.22 2.62-0.46 3.92-0.21 1.16-0.77 2.34-0.65 3.52 0.11 1 1.3 1.69 2.1 0.87 1.03-1.05 1.26-2.73 1.47-4.15 0.21-1.51 0.23-2.98-0.09-4.48z"/>
	<path id="&lt;Path&gt;" class="s8" d="m88.67 165.91c-0.17-1.82-2.67-1.82-2.84 0-0.14 1.54-0.34 3.77 0.56 5.12 0.42 0.64 1.29 0.64 1.72 0 0.9-1.35 0.7-3.58 0.56-5.12z"/>
	<path id="&lt;Path&gt;" class="s8" d="m106.09 169.67q-0.48-1.51-0.96-3.03c-0.52-1.64-3.1-0.95-2.6 0.72q0.45 1.52 0.9 3.04c0.27 0.92 0.53 1.96 1.26 2.62 0.58 0.51 1.58 0.34 1.79-0.48 0.24-0.98-0.09-1.93-0.39-2.87z"/>
	<path id="&lt;Path&gt;" class="s8" d="m122.84 165.22c-1.02-1.41-3.38-0.07-2.36 1.37q1.15 1.63 1.97 3.45c0.5 1.12 0.79 2.39 1.71 3.24 0.5 0.47 1.24 0.25 1.46-0.38 0.86-2.46-1.42-5.79-2.78-7.68z"/>
	<path id="&lt;Path&gt;" class="s8" d="m135.29 162.6c-0.47-0.71-0.92-1.49-1.57-2.05-0.81-0.7-2.18-0.04-1.87 1.09 0.23 0.84 0.7 1.56 1.15 2.29 0.45 0.74 0.77 1.48 1.57 1.89 0.73 0.38 1.74-0.08 1.71-0.98-0.04-0.93-0.49-1.47-0.99-2.24z"/>
	<path id="&lt;Path&gt;" class="s8" d="m148.91 157c-1.23-0.5-2.14 1.63-0.91 2.16q1.07 0.47 2.06 1.11c0.62 0.39 1.17 0.95 1.89 1.11 0.65 0.15 1.18-0.39 1.05-1.04-0.36-1.7-2.65-2.74-4.09-3.34z"/>
	<path id="&lt;Path&gt;" class="s8" d="m157.82 149.42c-0.94-0.01-1.18 1.21-0.46 1.69 0.75 0.5 1.54 0.93 2.24 1.51 0.63 0.52 1.28 1.34 2.03 1.66 0.61 0.26 1.39-0.03 1.38-0.79-0.02-2.32-3.14-4.06-5.19-4.07z"/>
</svg>