<svg version="1.2" xmlns="http://www.w3.org/2000/svg" viewBox="0 0 232 137" width="232" height="137">
	<style>
		.s0 { fill: #dd7b51 } 
		.s1 { fill: #ffa1a1 } 
		.s2 { fill: #ffddaf } 
		.s3 { fill: #ac3e1f } 
		.s4 { fill: #e7885f } 
	</style>
	<path id="&lt;Path&gt;" class="s0" d="m1.16 61.61c-1.45 7.56 2.87 15.73 9.76 19.17 14.44 7.21 30.91-8.52 23.39-23.24-6.92-13.56-30.2-11.33-33.15 4.07z"/>
	<path id="&lt;Path&gt;" class="s1" d="m30.17 65.59c0 4.89-3.97 8.86-8.86 8.86-4.9 0-8.86-3.97-8.86-8.86 0-4.9 3.96-8.86 8.86-8.86 4.89 0 8.86 3.96 8.86 8.86z"/>
	<path id="&lt;Path&gt;" class="s0" d="m196.03 61.61c-1.45 7.56 2.87 15.73 9.75 19.17 14.45 7.21 30.92-8.52 23.4-23.24-6.92-13.56-30.2-11.33-33.15 4.07z"/>
	<path id="&lt;Path&gt;" class="s1" d="m222.27 66.18c0 4.9-3.97 8.86-8.86 8.86-4.9 0-8.86-3.96-8.86-8.86 0-4.89 3.96-8.86 8.86-8.86 4.89 0 8.86 3.97 8.86 8.86z"/>
	<path id="&lt;Path&gt;" class="s0" d="m198.62 55.54c-1.97-13.58-10.3-25.73-21.11-34.17-31.46-24.54-82.08-26.64-115.81-5.3-14.04 8.89-26.32 22.54-28.77 39.47-2.5 17.28-3.19 34.97 6.69 49.37 20.93 30.51 61.57 35.58 95.58 31.17 22.3-2.89 43.59-12.02 56.73-31.17 9.87-14.4 9.19-32.09 6.69-49.37z"/>
	<path id="&lt;Path&gt;" class="s2" d="m184.78 56.31c-2.39-10.64-10.71-20.13-19.46-26.25-9.4-6.56-21.82-8.02-32.41-3.6-7.51 3.13-13.44 8.8-17.09 15.87-5.05-11.07-17.21-17.98-29.23-17.75-12.07 0.22-23.68 6.44-31.08 15.87-14.5 18.45-13.1 45.14 3.76 61.58 8.73 8.51 19.65 13.49 31.29 15.8q2.6 0.94 5.34 1.56c10.8 2.44 22.16 2.06 33.06 0.53 10.78-1.51 21.49-4.84 30.74-10.69 17.46-11.02 29.79-31.92 25.08-52.92z"/>
	<path id="&lt;Path&gt;" class="s3" d="m128.8 67.37c-1.49-1.03-3.38-0.33-4.88 0.35-2.48 1.14-6.59 2.55-8.66 4.92-2.07-2.37-6.17-3.78-8.66-4.92-1.49-0.68-3.38-1.38-4.87-0.35-1.3 0.9-1.92 3.14-0.84 4.41 1.68 1.95 3.67 3.64 5.86 4.99q0.45 0.28 0.91 0.53c1.39 0.78 5.47 3.69 7.6 2.98 2.13 0.71 6.22-2.2 7.61-2.98q0.46-0.25 0.9-0.53c2.2-1.35 4.18-3.04 5.86-4.99 1.09-1.27 0.47-3.51-0.83-4.41z"/>
	<path id="&lt;Path&gt;" class="s3" d="m79.36 54.54c-1.83-0.72-5.03 1.14-6.2 2.6-1.7 2.13-4.16 8.07 1.17 6.96 2.9-0.6 6.37-3.82 6.35-6.98-0.01-1.49-0.54-2.27-1.32-2.58z"/>
	<path id="&lt;Path&gt;" class="s3" d="m81.02 78.65c0 5.19-2.3 9.4-5.14 9.4-2.83 0-5.13-4.21-5.13-9.4 0-5.19 2.3-9.4 5.13-9.4 2.84 0 5.14 4.21 5.14 9.4z"/>
	<path id="&lt;Path&gt;" class="s1" d="m64.35 86.11c0 6.33-5.13 11.46-11.47 11.46-6.33 0-11.46-5.13-11.46-11.46 0-6.34 5.13-11.47 11.46-11.47 6.34 0 11.47 5.13 11.47 11.47z"/>
	<path id="&lt;Path&gt;" class="s3" d="m151.69 57.12c-0.02 3.16 3.45 6.38 6.35 6.98 5.32 1.11 2.87-4.83 1.17-6.96-1.18-1.46-4.38-3.32-6.2-2.6-0.79 0.31-1.32 1.09-1.32 2.58z"/>
	<path id="&lt;Path&gt;" class="s3" d="m151.03 78.64c0 5.18 2.3 9.38 5.13 9.38 2.82 0 5.12-4.2 5.12-9.38 0-5.17-2.3-9.37-5.12-9.37-2.83 0-5.13 4.2-5.13 9.37z"/>
	<path id="&lt;Path&gt;" class="s1" d="m167.66 86.08c0 6.31 5.12 11.43 11.43 11.43 6.31 0 11.43-5.12 11.43-11.43 0-6.32-5.12-11.43-11.43-11.43-6.31 0-11.43 5.11-11.43 11.43z"/>
	<path id="&lt;Path&gt;" class="s3" d="m127.36 90.83c-0.42-0.5-1.42-0.51-1.83 0-1.15 1.43-1.09 3.49-2.72 4.5-3.22 1.98-5.65-1.03-5.92-4.15-0.37-4.24-0.06-8.4-0.95-12.6-0.11-0.53-0.96-0.53-1.07 0q-0.03 0.2-0.07 0.41-0.03-0.21-0.07-0.41c-0.11-0.53-0.96-0.53-1.07 0-0.88 4.2-0.58 8.36-0.95 12.6-0.27 3.12-2.69 6.13-5.91 4.15-1.64-1.01-1.57-3.07-2.73-4.5-0.41-0.51-1.41-0.5-1.82 0-1.74 2.07-0.61 4.76 1.18 6.55 2.1 2.09 5.14 2.53 7.83 1.35 1.68-0.74 2.85-1.97 3.54-3.49 0.7 1.52 1.86 2.75 3.54 3.49 2.69 1.18 5.74 0.74 7.84-1.35 1.79-1.79 2.92-4.48 1.18-6.55z"/>
	<path id="&lt;Path&gt;" class="s4" d="m102.41 20.24c-0.57-2.18-2.89-4.04-4.82-5.03-1.21-0.64-2.73 1.04-1.55 2.01 0.83 0.67 1.65 1.36 2.38 2.13 0.75 0.79 1.32 1.61 2.18 2.28 0.9 0.69 2.05-0.45 1.81-1.39z"/>
	<path id="&lt;Path&gt;" class="s4" d="m112.91 29.54c-1.2-1.74-2.44-3.55-4-4.98-0.98-0.89-2.48 0.23-1.84 1.42 1 1.87 2.44 3.52 3.83 5.11 0.94 1.08 2.84-0.35 2.01-1.55z"/>
	<path id="&lt;Path&gt;" class="s4" d="m117.61 16.62c-0.17-0.63-1.01-0.71-1.35-0.18-1.37 2.17-1.53 6.01-0.32 8.29 0.35 0.68 1.33 0.46 1.55-0.2 0.4-1.23 0.38-2.7 0.37-3.98-0.01-1.34 0.12-2.62-0.25-3.93z"/>
	<path id="&lt;Path&gt;" class="s4" d="m108.54 17.13c-0.26-1.09-0.8-1.99-1.34-2.96-0.51-0.93-1.01-1.9-1.75-2.66-0.62-0.64-1.52 0.04-1.39 0.81 0.18 1.05 0.7 2.05 1.16 3.01 0.48 1.01 0.89 1.93 1.62 2.79 0.69 0.82 1.92-0.07 1.7-0.99z"/>
	<path id="&lt;Path&gt;" class="s4" d="m128.43 13.27c-0.94 1.12-1.7 2.38-2.47 3.61-0.78 1.24-1.55 2.44-1.82 3.9-0.13 0.66 0.6 1.46 1.27 0.98 1.13-0.83 1.86-1.87 2.62-3.04 0.83-1.27 1.71-2.57 2.35-3.95 0.53-1.17-0.97-2.67-1.95-1.5z"/>
	<path id="&lt;Path&gt;" class="s4" d="m119.12 27.4c-1.03 1.16-2.36 2.67-2.41 4.32-0.02 0.66 0.81 1.19 1.38 0.79 1.35-0.94 1.92-2.84 2.34-4.35 0.2-0.72-0.78-1.36-1.31-0.76z"/>
	<path id="&lt;Path&gt;" class="s4" d="m139.41 15.23c-1.52 0.41-2.55 1.28-3.69 2.31-1.13 1.02-2.24 2.11-3.1 3.37-0.46 0.67 0.41 1.31 1.02 1.02 1.33-0.62 2.53-1.53 3.68-2.45 1.19-0.95 2.23-1.8 2.87-3.23 0.25-0.53-0.15-1.19-0.78-1.02z"/>
	<path id="&lt;Path&gt;" class="s4" d="m125.08 4.83c-1.93 1.36-3.06 4.43-3.11 6.7-0.02 1.01 1.41 1.4 1.9 0.52 0.58-1.06 0.96-2.12 1.4-3.24 0.41-1.06 0.98-2.08 1.14-3.21 0.08-0.65-0.82-1.12-1.33-0.77z"/>
	<path id="&lt;Path&gt;" class="s4" d="m114.39 8.99c-0.47-1.21-0.98-2.53-1.9-3.46-0.8-0.8-1.88 0.05-1.73 1 0.18 1.23 0.8 2.43 1.2 3.6 0.37 1.09 0.77 2.15 1.5 3.06 0.4 0.5 1.32 0.22 1.45-0.38 0.26-1.32-0.05-2.59-0.52-3.82z"/>
	<path id="&lt;Path&gt;" class="s4" d="m141.51 6.18c-1.14 0.76-2.26 1.5-2.99 2.69-0.5 0.8 0.36 2.16 1.34 1.74 1.31-0.55 2.2-1.44 3.15-2.48 0.91-0.99-0.28-2.76-1.5-1.95z"/>
	<path id="&lt;Path&gt;" class="s4" d="m98.3 10.26c-0.99-1.02-2.03-1.92-3.11-2.85-0.68-0.58-1.92 0.19-1.33 1.03 0.81 1.18 1.6 2.32 2.52 3.43 0.91 1.1 1.64 2.11 3.03 2.58 0.65 0.22 1.19-0.45 1.06-1.05-0.31-1.36-1.22-2.18-2.17-3.14z"/>
	<path id="&lt;Path&gt;" class="s4" d="m13.82 52.83c-1.7-1.3-4.48 0.39-5.21 2.05-0.33 0.74 0.4 1.81 1.24 1.24 0.61-0.41 1.26-0.9 1.95-1.17 0.69-0.26 1.4-0.32 2.02-0.75 0.52-0.37 0.48-1 0-1.37z"/>
	<path id="&lt;Path&gt;" class="s4" d="m23.4 52.33c-1.07-0.56-2.3-0.51-3.48-0.45-0.98 0.05-1.95 0.12-2.57 0.96-0.07 0.1-0.07 0.28 0 0.38 0.62 0.84 1.59 0.91 2.57 0.96 1.18 0.07 2.41 0.12 3.48-0.44 0.53-0.28 0.53-1.13 0-1.41z"/>
	<path id="&lt;Path&gt;" class="s4" d="m31.25 56.53c-0.59-2.08-3.01-3.26-4.92-2-0.66 0.43-0.42 1.51 0.41 1.51 1.14 0.02 2.34 0.44 3.12 1.3 0.56 0.63 1.6-0.03 1.39-0.81z"/>
	<path id="&lt;Path&gt;" class="s4" d="m203.67 54.34c-1.17 0.21-1.99 1.28-2.76 2.1-0.84 0.89-1.76 1.77-2.42 2.82-0.6 0.96 0.64 2.31 1.62 1.61 1.06-0.76 1.92-1.76 2.81-2.7 0.84-0.89 1.71-1.72 1.87-2.98 0.07-0.62-0.63-0.94-1.12-0.85z"/>
	<path id="&lt;Path&gt;" class="s4" d="m214.81 50.88c-1.84-1.38-4.93 0.08-6.36 1.43-0.79 0.75 0.02 2.15 1.06 1.83 1.01-0.31 1.96-0.74 2.97-1.03 0.85-0.23 1.84-0.63 2.45-1.3 0.28-0.31 0.19-0.7-0.12-0.93z"/>
	<path id="&lt;Path&gt;" class="s4" d="m225.27 58c-0.78-1.82-3.06-2.93-4.7-3.79-0.49-0.26-1.25 0.32-0.84 0.85 1.16 1.53 2.62 3.64 4.63 4.12 0.74 0.18 1.17-0.55 0.91-1.18z"/>
</svg>