<svg version="1.2" xmlns="http://www.w3.org/2000/svg" viewBox="0 0 182 137" width="182" height="137">
	<style>
		.s0 { fill: #cbd9e1 } 
		.s1 { fill: #ff7e8d } 
		.s2 { fill: #fdebca } 
		.s3 { fill: #616e7e } 
		.s4 { fill: #878d9f } 
		.s5 { fill: #e5e9e8 } 
	</style>
	<path id="&lt;Path&gt;" class="s0" d="m17.1 61.49q0.04 0.16 0.08 0.32c0.06 0.24 0.25 0.31 0.44 0.28 6.59-8.94 14.51-16.87 22.68-24.36 4.14-3.8 8.5-7.49 13.25-10.46q-1.34-1.63-2.55-3.34c-6.37-7.57-14.03-14.24-22.52-19.48-2.07-1.28-3.93-2.12-5.64-2.59-2.41-0.81-4.93-0.85-7.26 0.83-6.31 4.55-4.3 17.21-3.99 23.73 0.57 11.84 2.05 23.62 5.24 35.13z"/>
	<path id="&lt;Path&gt;" class="s1" d="m34.89 29.52c-1.18-1.22-2.35-2.32-3.12-3.14-5.17-5.48-9.82-2.33-9.72 4.47 0.06 3.97 0.41 7.95 1.1 11.86 0.37 2.16 1.3 11.73 4.97 7.56 3.04-3.46 7.27-7.01 9.5-11.08 2.58-4.71-0.83-5.86-2.73-9.67z"/>
	<path id="&lt;Path&gt;" class="s0" d="m165.13 62.86q-0.04 0.17-0.08 0.33c-0.07 0.24-0.26 0.31-0.45 0.28-6.59-8.94-14.51-16.87-22.68-24.36-4.14-3.8-8.5-7.49-13.25-10.47q1.34-1.62 2.55-3.34c6.37-7.56 14.03-14.23 22.53-19.48q3.08-1.89 5.63-2.58c2.41-0.81 4.93-0.86 7.26 0.82 6.32 4.56 4.3 17.21 3.99 23.74-0.57 11.84-2.05 23.61-5.24 35.13z"/>
	<path id="&lt;Path&gt;" class="s1" d="m144.6 40.57c2.23 4.07 6.47 7.62 9.5 11.08 3.68 4.17 4.6-5.4 4.98-7.56 0.68-3.92 1.03-7.89 1.09-11.86 0.1-6.8-4.55-9.95-9.71-4.47-0.78 0.81-1.95 1.92-3.13 3.14-1.9 3.81-5.3 4.96-2.73 9.67z"/>
	<path id="&lt;Path&gt;" class="s2" d="m181.63 103.58c-2.91-21.92-13.25-42.8-29.01-58.27-16.7-16.38-39.31-26.57-62.61-28.2-10.55-0.73-21.37 0.27-31.18 4.22-12.55 5.05-22.81 14.63-31.27 25.21-12.21 15.24-21.3 32.98-26.57 51.8q0 0.08 0 0.15c0 5.37 11.85 14.95 18.68 18.68 9.65 5.27 19.38 10.04 29.89 13.39 21.32 6.78 43.81 8.93 65.85 4.8 12.8-2.39 25.67-5.1 37.71-10.19 5.99-2.52 11.74-5.64 16.96-9.54 2.81-2.1 12.1-7.88 11.55-12.05z"/>
	<path id="&lt;Path&gt;" class="s0" d="m133.94 68.92c9.87-4.91 20.86-7.48 31.86-7.57-3.82-5.79-8.23-11.18-13.18-16.04-16.7-16.38-39.31-26.57-62.61-28.2-10.55-0.73-21.37 0.27-31.18 4.22-12.55 5.05-22.81 14.63-31.27 25.21-4.08 5.09-7.8 10.46-11.15 16.05 11.54-1.73 23.69 0.14 34.39 4.96 15.31 6.9 27.72 19.37 36.31 33.82 4.93-0.51 11.42-1.67 16.35-2.17 7.07-13.18 17.12-23.62 30.48-30.28z"/>
	<path id="&lt;Path&gt;" class="s3" d="m94.43 94.25c-4.08-0.09-11.36-0.34-11.72 4.03-0.22 2.68 2.7 6.18 4.2 8.12 1.08 1.38 2.28 2.79 3.71 3.82 1.5 1.08 4.65 1.44 6.37 0.75 1.63-0.65 2.99-2.23 4.09-3.52 1.79-2.1 5.31-6.15 5.06-9.17-0.35-4.37-7.64-4.12-11.71-4.03z"/>
	<path id="&lt;Path&gt;" class="s3" d="m102.93 116.87c-0.32-0.49-1.07-0.29-1.09 0.3-0.05 1.6-1.03 4.54-3.06 4.79-2.85 0.36-2.58-3.66-2.73-5.27-0.28-2.95-0.36-5.91-0.52-8.86-0.03-0.68-0.63-0.92-1.1-0.77-0.48-0.15-1.07 0.09-1.11 0.77-0.16 2.95-0.23 5.91-0.52 8.86-0.15 1.61 0.13 5.63-2.73 5.27-2.02-0.25-3-3.19-3.06-4.79-0.02-0.59-0.77-0.79-1.09-0.3-2.16 3.36 2.52 8.42 6.12 7.07 1.57-0.59 2.11-1.87 2.39-3.33 0.27 1.46 0.81 2.74 2.38 3.33 3.61 1.35 8.28-3.71 6.12-7.07z"/>
	<path id="&lt;Path&gt;" class="s4" d="m170.08 115.63c2.81-2.1 12.1-7.88 11.55-12.05q-0.02-0.11-0.04-0.21c-1.4-1.34-4.85-3.15-5.87-3.84-9.24-6.22-20.87-14.82-32.05-15.88-9.65-0.92-25.37 2.87-26.81 14.23q-0.11 0.87-0.1 1.8c0.06 10.08 10.14 22.56 17.45 28.3 1.04 0.82 1.94 1.71 2.77 2.64 5.48-1.48 10.9-3.23 16.14-5.45 5.99-2.52 11.74-5.64 16.96-9.54z"/>
	<path id="&lt;Path&gt;" class="s4" d="m66.03 98.86q0.04-0.92-0.04-1.79c-1.03-11.42-16.61-15.76-26.28-15.19-11.21 0.66-22.34 5.18-31.79 11.08-1.24 0.77-6.04 3.02-6.6 4.31q-0.17 0.54-0.33 1.07 0 0.08 0 0.15c0 5.37 11.85 14.95 18.68 18.68 7.65 4.18 15.35 8.02 23.44 11.11 1.49-1.95 3.13-3.84 5.29-5.41 7.51-5.48 17.22-13.94 17.63-24.01z"/>
	<path id="&lt;Path&gt;" class="s3" d="m53.17 81.21c-1.19-1.56-4.87-1.62-6.63-0.97-2.55 0.95-7.7 4.76-2.58 6.56 2.79 0.98 7.41 0.02 9.02-2.7 0.76-1.28 0.71-2.22 0.19-2.89z"/>
	<path id="&lt;Path&gt;" class="s3" d="m54.85 102.77c0 5.19-2.3 9.4-5.13 9.4-2.83 0-5.12-4.21-5.12-9.4 0-5.19 2.29-9.4 5.12-9.4 2.83 0 5.13 4.21 5.13 9.4z"/>
	<path id="&lt;Path&gt;" class="s1" d="m31.43 102.31c-0.52 5-4.98 8.63-9.96 8.1-4.98-0.52-8.59-4.99-8.07-9.99 0.52-4.99 4.98-8.62 9.96-8.1 4.98 0.53 8.59 5 8.07 9.99z"/>
	<path id="&lt;Path&gt;" class="s3" d="m130.6 85.29c1.61 2.72 6.24 3.69 9.02 2.71 5.12-1.8-0.03-5.62-2.58-6.57-1.76-0.65-5.44-0.58-6.63 0.97-0.51 0.67-0.57 1.61 0.19 2.89z"/>
	<path id="&lt;Path&gt;" class="s3" d="m126.24 102.77c0 5.19 2.29 9.4 5.12 9.4 2.83 0 5.12-4.21 5.12-9.4 0-5.19-2.29-9.4-5.12-9.4-2.83 0-5.12 4.21-5.12 9.4z"/>
	<path id="&lt;Path&gt;" class="s1" d="m151.97 107.96c0.52 5 4.98 8.62 9.96 8.1 4.98-0.52 8.6-4.99 8.08-9.99-0.52-4.99-4.98-8.62-9.96-8.1-4.98 0.52-8.6 5-8.08 9.99z"/>
	<path id="&lt;Path&gt;" class="s5" d="m82.41 79.57c-0.98-1.54-3.29-0.19-2.45 1.43q0.8 1.54 1.34 3.19c0.33 0.99 0.74 1.97 1.61 2.59 0.43 0.31 1.12 0.09 1.36-0.35 1.15-2.12-0.73-5.08-1.86-6.86z"/>
	<path id="&lt;Path&gt;" class="s5" d="m105.68 81.68c-0.92 0.85-1.71 1.89-2.4 2.93-0.61 0.94-1.47 2.24-1.08 3.39 0.18 0.51 0.75 0.96 1.32 0.75 1.12-0.42 1.57-1.55 2.16-2.53 0.62-1.03 1.33-1.99 2.03-2.97 0.87-1.25-0.99-2.52-2.03-1.57z"/>
	<path id="&lt;Path&gt;" class="s5" d="m95.84 76.76c-0.31-1.12-1.96-1.12-2.27 0-0.62 2.21-0.42 4.78 0.37 6.91 0.28 0.74 1.24 0.74 1.52 0 0.8-2.13 0.99-4.7 0.38-6.91z"/>
	<path id="&lt;Path&gt;" class="s5" d="m84.37 67.61c-0.84-1.32-2.82-0.16-2.09 1.22 0.94 1.79 1.42 4.27 2.83 5.73 0.46 0.49 1.44 0.29 1.57-0.41 0.43-2.25-1.15-4.72-2.31-6.54z"/>
	<path id="&lt;Path&gt;" class="s5" d="m104.61 66.51c-0.57 1.25-1.47 3.11-1.08 4.48 0.24 0.87 1.27 1.06 1.91 0.51 0.97-0.85 1.27-2.8 1.47-4.03 0.2-1.27-1.66-2.37-2.3-0.96z"/>
	<path id="&lt;Path&gt;" class="s5" d="m94.24 60.05c-0.28-1.3-0.67-2.55-1.04-3.82-0.32-1.09-2.22-0.94-2.07 0.28 0.16 1.24 0.28 2.48 0.49 3.72 0.21 1.18 0.3 2.58 1.01 3.57 0.5 0.71 1.76 0.73 1.98-0.26 0.26-1.17-0.11-2.33-0.37-3.49z"/>
	<path id="&lt;Path&gt;" class="s5" d="m75.58 57.28c-0.75-1.46-2.87-0.18-2.18 1.28 0.65 1.39 1.16 2.8 2.3 3.88 0.54 0.52 1.7 0.19 1.62-0.67-0.17-1.67-0.99-3.02-1.74-4.49z"/>
	<path id="&lt;Path&gt;" class="s5" d="m114.92 52.96c-0.96 1.06-2.7 3.08-2.08 4.62 0.3 0.74 1.02 1.11 1.77 0.72 1.14-0.58 1.55-2.33 2.34-3.31 1.13-1.41-0.77-3.42-2.03-2.03z"/>
	<path id="&lt;Path&gt;" class="s5" d="m104.29 47.21c-0.36-0.48-1.12-0.62-1.46 0-0.42 0.77-0.43 1.71-0.55 2.57-0.13 0.9-0.45 1.87-0.13 2.75 0.28 0.77 1.18 1.06 1.81 0.48 1.25-1.15 1.36-4.47 0.33-5.8z"/>
	<path id="&lt;Path&gt;" class="s5" d="m84.37 46.56c-0.27-1.67-2.79-0.96-2.53 0.7 0.24 1.54 0.31 3.27 1.34 4.52 0.45 0.55 1.24 0.16 1.45-0.38 0.57-1.49-0.01-3.33-0.26-4.84z"/>
	<path id="&lt;Path&gt;" class="s5" d="m95.01 36.53c-0.03-1.24 0.02-2.52-0.29-3.73-0.28-1.07-1.88-1.07-2.16 0-0.31 1.21-0.26 2.49-0.29 3.73-0.04 1.2-0.15 2.42 0.41 3.51 0.37 0.72 1.55 0.72 1.92 0 0.56-1.09 0.45-2.31 0.41-3.51z"/>
	<path id="&lt;Path&gt;" class="s5" d="m109.38 31.49c-1.15 1.81-1.89 4.04-1.18 6.15 0.3 0.91 1.94 1.16 2.11 0 0.24-1.7 0.25-3.46 0.93-5.06 0.53-1.25-1.09-2.3-1.86-1.09z"/>
	<path id="&lt;Path&gt;" class="s5" d="m122.34 36.71c-0.51 0.87-0.87 1.82-1.24 2.76-0.38 0.95-0.82 1.79-0.58 2.82 0.17 0.7 1.15 1.17 1.77 0.72 0.86-0.62 1.07-1.42 1.42-2.39 0.36-0.97 0.72-1.94 0.91-2.95 0.25-1.33-1.53-2.24-2.28-0.96z"/>
	<path id="&lt;Path&gt;" class="s5" d="m79.83 34.57c-0.4-1.52-2.67-0.88-2.34 0.64 0.29 1.31 0.37 2.9 1.26 3.95 0.52 0.61 1.61 0.27 1.79-0.48 0.31-1.32-0.37-2.83-0.71-4.11z"/>
	<path id="&lt;Path&gt;" class="s5" d="m65.47 40.68c-0.71-0.69-1.67 0.18-1.3 1.01 0.67 1.52 1.71 3.66 3.19 4.54 0.71 0.42 1.43-0.27 1.3-1-0.31-1.66-2.02-3.41-3.19-4.55z"/>
	<path id="&lt;Path&gt;" class="s5" d="m68.68 27.2c-0.57-0.68-1.74 0.21-1.23 0.95 0.78 1.16 1.5 2.76 2.73 3.5 0.58 0.35 1.31-0.23 1.13-0.87-0.37-1.37-1.74-2.52-2.63-3.58z"/>
	<path id="&lt;Path&gt;" class="s5" d="m86.8 24.71c-0.03-0.84 0.11-1.64-0.34-2.39-0.33-0.55-0.97-0.55-1.43-0.19-1.55 1.25-0.92 4.35-0.04 5.8 0.53 0.89 2 0.54 1.98-0.53-0.02-0.91-0.15-1.79-0.17-2.69z"/>
	<path id="&lt;Path&gt;" class="s5" d="m103.81 24.58c-0.16-1.22-1.74-1.22-1.9 0-0.25 1.91-0.85 4.38 0.08 6.19 0.34 0.65 1.4 0.65 1.74 0 0.93-1.81 0.33-4.28 0.08-6.19z"/>
	<path id="&lt;Path&gt;" class="s5" d="m121.77 28.21c-0.59 2.28-1.33 4.59-1.35 6.96-0.01 0.81 0.97 0.93 1.39 0.38 1.54-2.01 1.98-4.59 2.14-7.05 0.08-1.26-1.88-1.5-2.18-0.29z"/>
	<path id="&lt;Path&gt;" class="s5" d="m55.09 28.72c-0.54-0.62-1.47 0.17-1.11 0.85 0.56 1.04 0.72 2.38 1.87 2.97 0.56 0.29 1.51-0.05 1.42-0.81-0.17-1.42-1.31-2.01-2.18-3.01z"/>
</svg>