<svg version="1.2" xmlns="http://www.w3.org/2000/svg" viewBox="0 0 176 166" width="176" height="166">
	<style>
		.s0 { fill: #dd7b51 } 
		.s1 { fill: #fdebca } 
		.s2 { fill: #674a51 } 
		.s3 { fill: #b1938e } 
		.s4 { fill: #ffa1a1 } 
		.s5 { fill: #e7885f } 
	</style>
	<path id="&lt;Path&gt;" class="s0" d="m93.14 18.67c23.09-0.37 46.55 8.39 62.46 25.13 15.91 16.73 23.5 41.51 17.96 63.93-5.02 20.33-20.23 37.35-38.86 46.9-18.63 9.56-40.33 12.11-61.13 9.73-13.58-1.54-27.04-5.17-38.94-11.89-11.89-6.72-22.17-16.66-28.08-28.98-5.23-10.88-6.91-23.31-5.6-35.31 1.79-16.32 9.13-31.98 20.52-43.81 11.4-11.82 26.78-19.73 43.02-22.12-0.29-5.58 2.16-10.78 6.06-14.79 1.33-1.38 3.18-2.64 5.04-2.17 1.65 0.41 2.72 2.13 2.92 3.83 0.2 1.69-0.29 3.39-0.77 5.02 1.79-5.22 5.66-9.7 10.56-12.24 1.34-0.69 2.86-1.26 4.33-0.93 2.44 0.53 3.77 3.41 3.47 5.89-0.3 2.49-1.78 4.65-3.22 6.7-0.16-1.62 1.01-3.26 2.59-3.64 1.58-0.39 3.37 0.53 3.97 2.04 0.64 1.61-0.04 3.49-1.23 4.75-1.19 1.25-3.5 1.24-5.07 1.96z"/>
	<path id="&lt;Path&gt;" class="s1" d="m164.24 84.5c-4.35-17.41-21.78-31.9-40.96-31.72-10.07 0.09-19.49 3.82-28.99 6.49-4.17 1.17-8.52 1.17-12.63 0.02-9.56-2.69-18.98-6.42-29.06-6.51-19.17-0.18-36.6 14.31-40.95 31.72-4.35 17.42 3.23 36.37 17.09 48.74 13.86 12.36 33.19 18.52 52.35 19.28 2.29 0.09 4.57 0.05 6.85 0.05 2.29 0 4.57 0.04 6.85-0.05 19.17-0.76 38.5-6.92 52.36-19.28 13.86-12.37 21.44-31.32 17.09-48.74z"/>
	<path id="&lt;Path&gt;" class="s2" d="m93.04 108.32c3.53-0.94 8.43-4.99 10.23-8.39 3.67-6.98-7.1-10.69-12.96-10.76-4.76-0.05-11.31 0.46-15.16 3.59-4.08 3.32-2.37 8.33 1.18 11.28 1.06 0.88 10.51 5.68 10.55 4.63-0.2 5.11 0.1 10.3 0.23 15.4-2.73-0.72-4.19-3.57-4.69-6.27-0.15-0.79-1.38-0.74-1.56 0-1.12 4.64 3.44 9.11 7.98 8.97 4.36-0.14 9.23-5.22 7.51-9.72-0.47-1.2-2.05-0.96-2.19 0.3-0.34 2.88-1.37 6.06-4.4 6.75-0.12-4.96-0.55-10.11-0.39-15.02 1.15-0.17 2.4-0.42 3.67-0.76z"/>
	<path id="&lt;Path&gt;" class="s3" d="m59.24 80.44c-4.51-0.78-9.13-0.04-13.64 0.76-12.16 2.16-24.28 5.13-35.11 11.04-0.6 10.96 3.06 22.04 9.63 31.33 7.94-4.87 16.5-8.72 25.42-11.42 6.27-1.89 12.87-3.3 18.18-7.13 5.3-3.83 8.92-11.02 6.31-17.01-1.83-4.2-6.28-6.79-10.79-7.57z"/>
	<path id="&lt;Path&gt;" class="s3" d="m117.83 80.44c-4.51 0.78-8.96 3.37-10.79 7.57-2.61 5.99 1.01 13.18 6.31 17.01 5.3 3.83 11.91 5.24 18.18 7.13 8.61 2.61 16.89 6.29 24.6 10.91 6.47-9.37 10-20.5 9.23-31.47-10.52-5.48-22.18-8.31-33.89-10.39-4.51-0.8-9.13-1.54-13.64-0.76z"/>
	<path id="&lt;Path&gt;" class="s2" d="m46.22 85.05c3.32 0.13 6.81-3.4 7.54-6.42 1.35-5.55-4.96-3.18-7.25-1.47-1.58 1.18-3.64 4.48-2.95 6.42 0.3 0.83 1.1 1.41 2.66 1.47z"/>
	<path id="&lt;Path&gt;" class="s2" d="m130.04 81.83c0.69-1.94-1.37-5.24-2.95-6.42-2.29-1.71-8.6-4.08-7.25 1.47 0.73 3.02 4.22 6.55 7.54 6.42 1.56-0.06 2.36-0.64 2.66-1.47z"/>
	<path id="&lt;Path&gt;" class="s2" d="m125.04 94.98c0 5.45-2.41 9.87-5.39 9.87-2.98 0-5.39-4.42-5.39-9.87 0-5.45 2.41-9.87 5.39-9.87 2.98 0 5.39 4.42 5.39 9.87z"/>
	<path id="&lt;Path&gt;" class="s2" d="m51.19 94.98c0 5.45 2.42 9.87 5.39 9.87 2.98 0 5.4-4.42 5.4-9.87 0-5.45-2.42-9.87-5.4-9.87-2.97 0-5.39 4.42-5.39 9.87z"/>
	<path id="&lt;Path&gt;" class="s4" d="m150.52 117.94c0 6.65-5.39 12.04-12.04 12.04-6.64 0-12.03-5.39-12.03-12.04 0-6.64 5.39-12.03 12.03-12.03 6.65 0 12.04 5.39 12.04 12.03z"/>
	<path id="&lt;Path&gt;" class="s4" d="m27.12 117.94c0 6.65 5.39 12.04 12.04 12.04 6.64 0 12.03-5.39 12.03-12.04 0-6.64-5.39-12.03-12.03-12.03-6.65 0-12.04 5.39-12.04 12.03z"/>
	<path id="&lt;Path&gt;" class="s5" d="m72.23 38.02c-0.49-1.14-0.91-2.37-1.68-3.36-0.6-0.78-2.14-0.14-2.02 0.84 0.15 1.26 0.73 2.46 1.2 3.64 0.43 1.08 0.84 2.45 1.74 3.22 0.72 0.63 1.74 0.19 1.82-0.75 0.1-1.21-0.6-2.5-1.06-3.59z"/>
	<path id="&lt;Path&gt;" class="s5" d="m83.36 31.44c-0.13-1.22-1.79-1.23-1.92 0-0.2 2-0.83 4.74 0.09 6.61 0.32 0.66 1.42 0.66 1.74 0 0.92-1.87 0.3-4.61 0.09-6.61z"/>
	<path id="&lt;Path&gt;" class="s5" d="m97.82 29.92c-0.15-1.5-2.18-1.5-2.33 0-0.15 1.46-0.21 2.92-0.35 4.38-0.14 1.34-0.45 2.69-0.18 4.02 0.18 0.94 1.57 1.06 2.01 0.27 1.27-2.29 1.1-6.15 0.85-8.67z"/>
	<path id="&lt;Path&gt;" class="s5" d="m93.11 43.34c-0.29-1.22-2.4-0.98-2.23 0.3 0.1 0.77 0.09 1.49-0.03 2.26-0.11 0.73-0.35 1.35-0.18 2.09 0.13 0.59 0.94 0.95 1.45 0.59 1.56-1.09 1.37-3.59 0.99-5.24z"/>
	<path id="&lt;Path&gt;" class="s5" d="m110.94 31.95c-0.17-1.39-2.06-1.42-2.19 0-0.12 1.35-0.25 2.71-0.48 4.04-0.2 1.17-0.63 2.4-0.5 3.58 0.08 0.78 1.15 1.53 1.78 0.74 1.69-2.12 1.69-5.78 1.39-8.36z"/>
	<path id="&lt;Path&gt;" class="s5" d="m102.76 46.63c-0.91 1.81-1.39 3.61-1.36 5.64 0.02 1.3 1.88 1.26 1.99 0 0.15-1.55 0.49-3.19 1.11-4.62 0.49-1.16-1.14-2.2-1.74-1.02z"/>
	<path id="&lt;Path&gt;" class="s5" d="m82.77 51.55c-0.3-0.75-0.94-1.12-1.46-1.73-0.54-0.63-0.86-1.33-1.29-2.01-0.46-0.72-1.41-0.37-1.5 0.4-0.18 1.67 1.41 4.66 3.35 4.52 0.54-0.04 1.14-0.57 0.9-1.18z"/>
	<path id="&lt;Path&gt;" class="s5" d="m77.03 28.69c-0.33-0.92-0.27-1.85-0.21-2.81 0.05-0.93-1.33-1.29-1.76-0.48-1.03 2-0.66 6.28 2.06 6.8 0.62 0.12 1.09-0.36 0.97-0.98-0.16-0.91-0.76-1.66-1.06-2.53z"/>
	<path id="&lt;Path&gt;" class="s5" d="m93.36 26.06c0-0.86-0.02-1.7-0.16-2.55-0.19-1.14-2.11-1.14-2.3 0-0.14 0.85-0.15 1.69-0.16 2.55-0.01 0.86-0.12 1.63 0.36 2.38 0.45 0.71 1.45 0.71 1.9 0 0.48-0.76 0.37-1.51 0.36-2.38z"/>
	<path id="&lt;Path&gt;" class="s5" d="m103.95 25.01c-0.3 1.13-0.59 2.25-0.73 3.41-0.12 1.06-0.41 2.23-0.13 3.26 0.24 0.88 1.39 0.96 1.85 0.25 0.6-0.91 0.69-2.16 0.88-3.22 0.21-1.12 0.28-2.26 0.34-3.4 0.07-1.28-1.88-1.51-2.21-0.3z"/>
	<path id="&lt;Path&gt;" class="s5" d="m75.29 19.09c-5.67-0.54-12.7 1.37-17.45 4.47-0.47 0.31-0.18 1.05 0.39 0.92 2.88-0.68 5.65-1.74 8.53-2.43 2.88-0.69 5.85-0.94 8.7-1.69 0.75-0.19 0.52-1.2-0.17-1.27z"/>
	<path id="&lt;Path&gt;" class="s1" d="m95.29 93.66c-3.21-1.77-8.44-0.97-11.96-0.48-2.21 0.31-5.23 1.19-5.05 3.92 0.05 0.84 0.93 1.46 1.71 0.99 4.73-2.87 10.5 0.01 15.3-2.24 0.86-0.41 0.78-1.75 0-2.19z"/>
</svg>