<svg version="1.2" xmlns="http://www.w3.org/2000/svg" viewBox="0 0 158 165" width="158" height="165">
	<style>
		.s0 { fill: #feb03d } 
		.s1 { fill: #ffddaf } 
		.s2 { fill: #ac3e1f } 
		.s3 { fill: #ffd6a3 } 
		.s4 { fill: #914538 } 
		.s5 { fill: #ff5342 } 
		.s6 { fill: #313131 } 
		.s7 { fill: #feb367 } 
	</style>
	<path id="&lt;Path&gt;" class="s0" d="m12.7 8.55c3.16-5.48 9.63-9.11 15.88-8.17 5.98 0.91 10.81 5.64 13.46 11.07 2.65 5.43 3.48 11.54 4.28 17.53-0.06-0.38-13.55 6.56-14.71 7.31-4.21 2.75-7.42 4.87-11.99 1.58-8.6-6.2-12.25-20.08-6.92-29.32z"/>
	<path id="&lt;Path&gt;" class="s1" d="m41.21 27.49c-0.39-2.33-1.27-5.89-3.03-7.56-3.2-3.04-8.6-3.97-11.44-0.08-3.24 4.42-2.76 10.83 0.37 15.19 0.33 0.46 1.79 0.85 2.26 0.44 3.31-2.93 6.98-5.06 11.17-6.49 0.63-0.22 0.79-0.77 0.67-1.5z"/>
	<path id="&lt;Path&gt;" class="s0" d="m141.56 8.91c-3.16-5.48-9.63-9.11-15.88-8.16-5.98 0.9-10.82 5.63-13.47 11.06-2.65 5.43-3.47 11.54-4.27 17.53 0.05-0.38 13.55 6.56 14.71 7.32 4.2 2.74 7.42 4.86 11.99 1.57 8.6-6.19 12.25-20.07 6.92-29.32z"/>
	<path id="&lt;Path&gt;" class="s1" d="m113.72 29.35c4.18 1.43 7.86 3.56 11.17 6.5 0.47 0.41 1.93 0.01 2.26-0.45 3.13-4.35 3.61-10.77 0.37-15.19-2.85-3.89-8.24-2.96-11.44 0.08-1.76 1.67-2.65 5.23-3.03 7.57-0.12 0.72 0.04 1.28 0.67 1.49z"/>
	<path id="&lt;Path&gt;" class="s0" d="m156.23 86.97c-1.72-13.56-3.89-27.63-12.3-39.04-7.63-10.35-18.37-19.31-31.31-23.85-21.15-7.42-45.46-7.42-66.6 0-12.94 4.54-23.68 13.5-31.3 23.85-8.42 11.41-10.59 25.48-12.31 39.04-2.25 17.71-3.58 37.23 8.11 51.7 6.63 8.22 16.72 13.71 27.15 17.72 27.78 10.69 55.5 10.69 83.3 0 10.43-4.01 20.53-9.5 27.15-17.72 11.69-14.47 10.36-33.99 8.11-51.7z"/>
	<path id="&lt;Path&gt;" class="s2" d="m53.02 42.82c1.86 1.67 5.19 1.23 6.55-0.87 0.67-1.03 0.88-2.29 1.04-3.5 0.68-4.97 1.03-9.99 0.94-15q0.29-1.59 0.51-3.2-0.31 0.06-0.63 0.11-0.01-0.14-0.02-0.27-6.62 1.16-12.97 3.2c0 0-0.27 0.09-0.4 0.13-0.1 0.04-0.18 0.08-0.18 0.08 0.08 5.13 1.56 10.88 3.17 15.75 0.44 1.3 0.97 2.65 1.99 3.57z"/>
	<path id="&lt;Path&gt;" class="s2" d="m156.3 87.55q-5.23-1.13-10.57-1.42c-4.68-0.24-14.36-1.17-18.11 2.27-6.97 6.4 8.06 7.05 11.42 7.63 6.13 1.05 12.37 2.31 18.45 3.57-0.25-4.05-0.69-8.09-1.19-12.05z"/>
	<path id="&lt;Path&gt;" class="s2" d="m154.57 75.66c-0.03-0.15-0.19-1.06-0.24-1.37q-0.86-4.59-2.15-9.06c-0.21-0.14-0.54-0.17-0.82-0.13-5.29 0.79-10.51 2.13-15.53 4-3.09 1.14-11.09 3.52-11.36 7.64-0.43 6.41 30.02-1.53 30.1-1.08z"/>
	<path id="&lt;Path&gt;" class="s2" d="m147.41 108.11c-6.1 0.17-12.21 0.85-18.27 1.15-2.21 0.11-3.36 0.66-3.12 2.88 0.48 4.56 6.98 3.2 10.06 3.38 6.61 0.38 12.84 1.97 19.24 3.49q0.66 0.16 1.33 0.32 0.05-0.32 0.11-0.64c0.38-3.23-0.14-9.04 0.91-8.97q0.02-0.63 0.03-1.25c-3.41-0.39-6.85-0.45-10.29-0.36z"/>
	<path id="&lt;Path&gt;" class="s2" d="m82.85 18.59q-6.86-0.23-13.68 0.44c-0.69 4.38 0.61 9.62 1.22 13.59 0.64 4.13 4.36 8.28 8.54 4.92 1.78-1.43 2.64-3.72 3.02-5.97 0.72-4.26 0.77-8.64 0.9-12.98z"/>
	<path id="&lt;Path&gt;" class="s2" d="m87.06 30.96c0.45 2.58 2.09 14.22 6.12 13.1 1.01-0.28 1.78-1.11 2.37-1.97 2.71-3.93 2.99-8.89 3.65-13.46 0.38-2.69 0.62-5.38 0.81-8.02q-6.26-1.28-12.67-1.78c0 0-0.28-0.01-0.41-0.02-1.21 3.85-0.54 8.28 0.13 12.15z"/>
	<path id="&lt;Path&gt;" class="s2" d="m3.22 81.71c6.28-1.38 12.69-2.16 18.94-3.65 1.66-0.39 3.53-1.28 4.95-2.49 2.15-1.83 3.27-4.42 1.05-7.21-2.89-3.65-10.23-3.02-14.37-3.25-2.4-0.14-4.83-0.21-7.26-0.11-1.44 4.87-2.41 9.91-3.16 14.95 0.18 0.01 0.32 0 0.35-0.06-0.07 0.15-0.66 1.86-0.5 1.82z"/>
	<path id="&lt;Path&gt;" class="s2" d="m27.3 50.35c-4.16-0.79-8.61-0.49-12.81-0.16q-0.69 0.05-1.4 0.1-0.39 0.62-0.76 1.24 0.91-0.05 1.67-0.07-0.9 0.11-1.79 0.27c-1.74 2.96-3.15 5.98-4.3 9.09 4.06-0.21 8.25-0.87 12.16-1.25 3.59-0.35 7.74-0.61 10.62-3.05 1.07-0.91 1.47-1.78 1.42-2.57-0.11-1.82-2.64-3.19-4.81-3.6z"/>
	<path id="&lt;Path&gt;" class="s2" d="m24.18 94.27q0.15-0.41 0.16-0.85c0.02-0.9-0.39-1.82-1.13-2.35-0.88-0.65-2.06-0.72-3.16-0.69-3.18 0.09-6.15 0.9-9.17 1.85-1.13 0.36-9.28 2.51-9.45 3.65q-0.01 0.16-0.03 0.33-0.38 4.27-0.47 8.55 0 0.22 0 0.44 0.25-0.09 0.5-0.17-0.25 0.15-0.5 0.31c-0.01 0.26-0.01 2.16 0 2.84q0.01 0.39 0.02 0.78 0.25-0.19 0.5-0.38c2.44-1.29 4.78-3.03 6.79-4.26q0.9-0.45 1.8-0.89c4.3-2.08 8.73-4.05 12.44-7.11 0.69-0.57 1.39-1.21 1.7-2.05z"/>
	<path id="&lt;Path&gt;" class="s3" d="m69.53 68.75c1.31-4.19 3.31-8.72 6.89-9.88 2.5-0.82 5.23 0.3 7.23 2.28 2 1.97 3.38 4.71 4.54 7.5 5.38 12.98 6.69 27.79 7.9 42.23-7.59-3.03-15.78-3.83-23.68-2.32-2.04 0.39-6.23 1.72-7.61-0.79-1.37-2.51-0.21-10.12-0.03-13.04 0.54-8.88 2.14-17.66 4.76-25.98z"/>
	<path id="&lt;Path&gt;" class="s4" d="m92.73 104.43c-8.94-3.5-30.32-2.6-29.01 4.09 0.49 2.53 4.91 4.59 6.78 5.79 1.68 1.08 3.53 2.11 5.45 2.91q1.92 0.79 3.9 1.2 0.02 0.06 0.04 0.12 0.11-0.02 0.23-0.05 0.11 0.03 0.23 0.05 0.02-0.06 0.04-0.12 1.97-0.41 3.89-1.2c1.92-0.8 3.77-1.83 5.45-2.91 1.87-1.2 6.29-3.26 6.79-5.79 0.33-1.71-1.21-3.08-3.79-4.09z"/>
	<path id="&lt;Path&gt;" class="s2" d="m52.25 79.48c-1.82-0.72-5.01 1.13-6.18 2.6-1.69 2.12-4.14 8.03 1.16 6.93 2.9-0.6 6.36-3.81 6.34-6.96-0.01-1.49-0.54-2.27-1.32-2.57z"/>
	<path id="&lt;Path&gt;" class="s2" d="m53.91 103.52c0 5.18-2.29 9.37-5.12 9.37-2.83 0-5.13-4.19-5.13-9.37 0-5.18 2.3-9.37 5.13-9.37 2.83 0 5.12 4.19 5.12 9.37z"/>
	<path id="&lt;Path&gt;" class="s2" d="m106.67 82.05c-0.02 3.15 3.44 6.36 6.34 6.96 5.31 1.1 2.86-4.81 1.16-6.93-1.17-1.47-4.36-3.32-6.18-2.6-0.78 0.3-1.31 1.08-1.32 2.57z"/>
	<path id="&lt;Path&gt;" class="s2" d="m106.33 103.52c0 5.18 2.29 9.37 5.12 9.37 2.83 0 5.13-4.19 5.13-9.37 0-5.18-2.3-9.37-5.13-9.37-2.83 0-5.12 4.19-5.12 9.37z"/>
	<path id="&lt;Path&gt;" class="s5" d="m43.87 118.57c-0.65 6.27-6.28 10.83-12.56 10.18-6.28-0.66-10.83-6.28-10.18-12.56 0.66-6.28 6.28-10.84 12.56-10.18 6.28 0.65 10.84 6.28 10.18 12.56z"/>
	<path id="&lt;Path&gt;" class="s5" d="m138.65 118.57c-0.66 6.27-6.28 10.83-12.56 10.18-6.28-0.66-10.84-6.28-10.18-12.56 0.66-6.28 6.28-10.84 12.56-10.18 6.28 0.65 10.83 6.28 10.18 12.56z"/>
	<path id="&lt;Path&gt;" class="s6" d="m78.75 124.1c-0.06-0.09-0.23-0.03-0.19 0.08 0.12 0.32 0.07 0.23 0.28 0.5 0.05 0.07 0.18 0.03 0.15-0.06-0.1-0.33-0.05-0.23-0.24-0.52z"/>
	<path id="&lt;Path&gt;" class="s4" d="m81.14 115.43c-0.1-1.36-2.01-1.36-2.11 0-0.21 2.93-0.19 5.87-0.23 8.81-0.02 1.52 0.18 3.29-0.49 4.7q-0.43 2.32-3.4 2.53-1.93-0.23-2.45-2.16c0.4-1.91-2.45-2.73-2.95-0.81-1.25 4.84 5.24 7.37 8.84 4.89 1.85-1.27 2.62-3.38 2.89-5.53 0.5-4 0.18-8.42-0.1-12.43z"/>
	<path id="&lt;Path&gt;" class="s4" d="m79.09 115.43c0.1-1.36 2.01-1.36 2.11 0 0.22 2.93 0.2 5.87 0.24 8.81 0.02 1.52-0.18 3.29 0.49 4.7q0.42 2.32 3.39 2.53 1.93-0.23 2.45-2.16c-0.4-1.91 2.46-2.73 2.95-0.81 1.25 4.84-5.23 7.37-8.84 4.89-1.85-1.27-2.62-3.38-2.89-5.53-0.49-4-0.18-8.42 0.1-12.43z"/>
	<path id="&lt;Path&gt;" class="s7" d="m78.8 70.22c-0.03-0.94-0.05-1.9-0.27-2.82-0.28-1.2-2.16-1.2-2.44 0-0.21 0.92-0.24 1.89-0.26 2.82-0.02 0.93-0.13 1.9 0.41 2.7 0.53 0.8 1.61 0.8 2.15 0 0.53-0.8 0.43-1.77 0.41-2.7z"/>
	<path id="&lt;Path&gt;" class="s7" d="m86.15 71.94c-0.12-1.33-1.95-1.34-2.07 0-0.12 1.39-0.51 3.1 0.23 4.37 0.35 0.6 1.26 0.6 1.61 0 0.74-1.27 0.35-2.99 0.23-4.37z"/>
	<path id="&lt;Path&gt;" class="s7" d="m73.07 76.24c-0.47-1.27-2.1-0.97-2.27 0.31-0.1 0.83-0.02 1.68-0.09 2.52-0.06 0.76-0.19 1.64 0.09 2.37 0.26 0.66 1.06 0.97 1.62 0.42 1.26-1.24 1.23-4.06 0.65-5.62z"/>
	<path id="&lt;Path&gt;" class="s7" d="m79.86 84.55q-0.17-1.49-0.46-2.97c-0.26-1.23-2.11-0.9-2.14 0.29q-0.02 1.55 0.09 3.1c0.06 0.99 0.08 1.8 0.72 2.59 0.42 0.52 1.33 0.33 1.62-0.21 0.5-0.91 0.29-1.81 0.17-2.8z"/>
	<path id="&lt;Path&gt;" class="s7" d="m89 85.61c-0.14-0.64-0.07-1.29-0.21-1.93-0.22-0.93-1.4-0.9-1.88-0.24-0.95 1.3-0.68 4.27 0.86 5.04 0.8 0.4 1.57-0.1 1.66-0.95 0.08-0.69-0.3-1.25-0.43-1.92z"/>
	<path id="&lt;Path&gt;" class="s7" d="m70.94 87.24c-0.18-1.07-1.97-1.07-2.16 0-0.21 1.22-0.48 2.9 0.23 3.99 0.41 0.64 1.3 0.64 1.71 0 0.71-1.09 0.44-2.77 0.22-3.99z"/>
	<path id="&lt;Path&gt;" class="s7" d="m75.15 95.35c-0.03-1.01 0.01-2.01-0.14-3.02-0.08-0.55-0.88-0.57-1.13-0.15-0.96 1.61-1.57 4.61-0.24 6.15 0.31 0.35 0.91 0.23 1.12-0.15 0.52-0.88 0.41-1.84 0.39-2.83z"/>
	<path id="&lt;Path&gt;" class="s7" d="m86.94 91.13c-0.16-1.11-2.07-1.11-2.24 0-0.15 1.04-0.36 2.03 0.22 2.97 0.42 0.67 1.38 0.67 1.8 0 0.59-0.94 0.38-1.93 0.22-2.97z"/>
	<path id="&lt;Path&gt;" class="s7" d="m91.18 96.37c-0.73-0.74-2.12 0-1.79 1.04 0.35 1.07 0.34 2.36 1.05 3.25 0.33 0.42 1.07 0.36 1.41 0 1.19-1.23 0.37-3.25-0.67-4.29z"/>
	<path id="&lt;Path&gt;" class="s7" d="m81.49 96.49c-0.18-0.98-1.79-0.98-1.98 0-0.22 1.18-0.56 2.91 0.15 3.96 0.43 0.62 1.26 0.62 1.69 0 0.71-1.05 0.36-2.78 0.14-3.96z"/>
	<path id="&lt;Path&gt;" class="s7" d="m68.03 96.37c-1.35 1.11-1.85 3.64-0.62 4.97 0.32 0.35 1.05 0.4 1.36 0 0.49-0.63 0.65-1.15 0.76-1.95 0.11-0.75 0.31-1.53 0.27-2.29-0.06-0.94-1.07-1.3-1.77-0.73z"/>
</svg>