<svg version="1.2" xmlns="http://www.w3.org/2000/svg" viewBox="0 0 180 164" width="180" height="164">
	<style>
		.s0 { fill: #fdebca } 
		.s1 { fill: #ffb1ae } 
		.s2 { fill: #947373 } 
		.s3 { fill: #b1938e } 
		.s4 { fill: #fdf2e9 } 
	</style>
	<path id="&lt;Path&gt;" class="s0" d="m31.23 10.18c0.92-2.55 1.96-5.14 3.82-7.14 1.87-2 4.77-3.3 7.45-2.6 2.8 0.72 4.59 3.3 6.03 5.74 4.47 7.56 8.04 15.63 10.61 23.99 0.37 1.2 0.72 2.46 0.44 3.69-0.31 1.33-1.32 2.4-2.29 3.39-5.33 5.46-21.42 21.92-24.13 24.7-1.85 1.89-4.51 5.98-7.19 6.72-6.15 1.7-3.79-11.08-3.63-14.26 0.35-7.16 1.22-14.3 2.58-21.35 1.51-7.8 3.74-15.36 6.31-22.88z"/>
	<path id="&lt;Path&gt;" class="s1" d="m51.73 35.35c0.2-4.91-7.9-21.72-13.43-15.75-3 3.22-4.7 17.5-4.82 21.63-0.06 1.93-0.95 10.11 2.74 9.47 0.9-0.15 1.63-0.83 2.29-1.47q5.44-5.26 10.88-10.51c1.17-1.13 2.29-2.19 2.34-3.37z"/>
	<path id="&lt;Path&gt;" class="s0" d="m150.9 11.07c-0.93-2.55-1.96-5.14-3.83-7.14-1.86-2-4.76-3.31-7.45-2.61-2.79 0.73-4.58 3.31-6.03 5.75-4.47 7.56-8.03 15.63-10.6 23.98-0.37 1.2-0.72 2.47-0.44 3.69 0.3 1.34 1.31 2.4 2.28 3.39 5.34 5.47 21.43 21.93 24.14 24.7 1.85 1.9 4.5 5.98 7.19 6.72 6.14 1.7 3.79-11.08 3.63-14.25-0.36-7.17-1.22-14.31-2.58-21.36-1.51-7.8-3.74-15.35-6.31-22.87z"/>
	<path id="&lt;Path&gt;" class="s1" d="m132.73 39.6q5.45 5.26 10.89 10.52c0.66 0.64 1.38 1.31 2.29 1.47 3.69 0.63 2.8-7.55 2.74-9.48-0.13-4.13-1.82-18.4-4.82-21.63-5.54-5.96-13.63 10.85-13.43 15.76 0.05 1.17 1.17 2.23 2.33 3.36z"/>
	<path id="&lt;Path&gt;" class="s0" d="m31.57 51.99c-6.76 8.9-11.8 19.15-15.06 30.06-2.47 8.28-3.97 16.83-4.71 25.43-0.68 7.88-0.69 16.08 2.66 23.37 4.85 10.54 15.96 17.55 27.3 22.36 28.26 11.99 61.7 13.65 91.01 3.98 10.27-3.39 20.33-8.34 26.93-16.29 9.9-11.91 10.32-28.27 7.96-43.07-3.3-20.66-10.01-43.53-25.85-58.18-5.77-5.34-12.55-9.54-19.8-12.57-21.32-8.94-45.91-7.89-66.09 3.51-9.68 5.46-17.82 12.8-24.35 21.4z"/>
	<path id="&lt;Path&gt;" class="s2" d="m105.04 104.19c-0.25-2.65-2.41-4.09-4.89-4.67-3.9-0.92-6.68 1.14-10.18 1.5-3.5-0.36-6.29-2.42-10.18-1.5-2.48 0.58-4.64 2.02-4.89 4.67-0.54 5.71 13.59 10.94 15.07 11.58 1.47-0.64 15.61-5.87 15.07-11.58z"/>
	<path id="&lt;Path&gt;" class="s2" d="m79.68 113.85c-0.89-0.38-2.27 0.6-1.57 1.74 0.69 1.13 2.44 0.35 2.18-0.91-0.1-0.44-0.33-0.71-0.61-0.83z"/>
	<path id="&lt;Path&gt;" class="s2" d="m79.68 120.44c-0.89-0.38-2.27 0.6-1.57 1.74 0.69 1.13 2.44 0.35 2.18-0.91-0.1-0.44-0.33-0.71-0.61-0.83z"/>
	<path id="&lt;Path&gt;" class="s2" d="m74.25 116.81c-0.89-0.38-2.27 0.6-1.57 1.74 0.69 1.13 2.44 0.35 2.18-0.91-0.1-0.44-0.33-0.71-0.61-0.83z"/>
	<path id="&lt;Path&gt;" class="s2" d="m98.63 113.85c0.89-0.38 2.27 0.6 1.57 1.74-0.68 1.13-2.44 0.35-2.18-0.91 0.1-0.44 0.33-0.71 0.61-0.83z"/>
	<path id="&lt;Path&gt;" class="s2" d="m98.63 120.44c0.89-0.38 2.27 0.6 1.57 1.74-0.68 1.13-2.44 0.35-2.18-0.91 0.1-0.44 0.33-0.71 0.61-0.83z"/>
	<path id="&lt;Path&gt;" class="s2" d="m106.34 112.08c1.01-0.43 2.6 0.69 1.8 2-0.79 1.3-2.81 0.4-2.51-1.04 0.11-0.51 0.38-0.82 0.71-0.96z"/>
	<path id="&lt;Path&gt;" class="s3" d="m96.08 65.07c2.75-9.53 3.48-19.64 4.55-29.49q0.13-1.24 0.22-2.5c-0.23 3.18 0.8 7.24 1.31 10.47q0.9 5.77 2.32 11.43c0.83 3.28 2.48 14.2 6.83 14.7 4.44 0.5 5.19-5.15 5.92-8.42 1.69-7.56 2.41-15.34 3.56-23 0.52-3.53 1.04-7.51 0.82-11.34-18.23-7.51-38.79-7.75-56.95-0.5q0 0.11-0.01 0.22c-0.04 3.27 0.83 6.38 1.21 9.6 0.36 3.09 4.47 33.37 9.99 30.03 4.23 0.37 3.09-13.15 3.14-15.37q0.28-12.78 0.55-25.55 0.04 0.1 0.11 0.18c1.25 8.16 2.63 16.31 4.64 24.31 1.41 5.6 2.8 12.3 5.96 17.14 0.49 0.77 1.09 1.51 1.92 1.84 2.21 0.89 3.42-2.07 3.91-3.75z"/>
	<path id="&lt;Path&gt;" class="s2" d="m98.56 126.3c-0.06-0.44-0.6-0.43-0.86-0.23-1.37 1.05-2.53 2.81-4.57 2.13-2.21-0.74-2.5-3.58-2.63-5.53-0.23-3.38 0.26-6.89-0.39-10.22-0.09-0.44-0.56-0.54-0.92-0.39-0.36-0.15-0.83-0.05-0.91 0.39-0.65 3.33-0.17 6.84-0.4 10.22-0.13 1.95-0.41 4.79-2.63 5.53-2.03 0.68-3.2-1.08-4.57-2.13-0.26-0.2-0.8-0.21-0.86 0.23-0.53 3.69 5.16 4.79 7.54 2.96 0.89-0.67 1.46-1.58 1.83-2.58 0.37 1 0.95 1.91 1.83 2.58 2.39 1.83 8.07 0.73 7.54-2.96z"/>
	<path id="&lt;Path&gt;" class="s2" d="m46.01 88.5c-1.82-0.71-5.01 1.14-6.18 2.6-1.69 2.12-4.14 8.04 1.17 6.94 2.89-0.61 6.35-3.82 6.33-6.97-0.01-1.48-0.53-2.26-1.32-2.57z"/>
	<path id="&lt;Path&gt;" class="s2" d="m132.96 91.07c-0.02 3.15 3.44 6.36 6.34 6.97 5.31 1.1 2.86-4.82 1.16-6.94-1.17-1.46-4.36-3.31-6.18-2.6-0.78 0.31-1.31 1.09-1.32 2.57z"/>
	<path id="&lt;Path&gt;" class="s2" d="m47.67 112.55c0 5.17-2.29 9.37-5.12 9.37-2.83 0-5.12-4.2-5.12-9.37 0-5.18 2.29-9.38 5.12-9.38 2.83 0 5.12 4.2 5.12 9.38z"/>
	<path id="&lt;Path&gt;" class="s2" d="m132.62 112.55c0 5.17 2.29 9.37 5.12 9.37 2.83 0 5.13-4.2 5.13-9.37 0-5.18-2.3-9.38-5.13-9.38-2.83 0-5.12 4.2-5.12 9.38z"/>
	<path id="&lt;Path&gt;" class="s1" d="m39.36 131.75c-0.56 5.36-5.36 9.25-10.72 8.69-5.36-0.56-9.25-5.36-8.69-10.72 0.56-5.36 5.36-9.25 10.72-8.69 5.36 0.56 9.25 5.36 8.69 10.72z"/>
	<path id="&lt;Path&gt;" class="s1" d="m159.44 131.75c-0.56 5.36-5.36 9.25-10.72 8.69-5.36-0.56-9.25-5.36-8.69-10.72 0.56-5.36 5.36-9.25 10.72-8.69 5.36 0.56 9.25 5.36 8.69 10.72z"/>
	<path id="&lt;Path&gt;" class="s3" d="m177.55 103.85c-5.45 0.73-10.59 3.3-15.23 6.12-0.45 0.27-0.16 1.09 0.38 0.88 5.03-1.9 10.34-3.39 15.2-5.71 0.59-0.29 0.33-1.38-0.35-1.29z"/>
	<path id="&lt;Path&gt;" class="s3" d="m178.66 117.39c-4.32-1.79-10.11-2.48-14.78-2.34-0.49 0.02-0.64 0.79-0.12 0.88 4.79 0.9 9.73 2.05 14.56 2.7 0.82 0.12 1.12-0.92 0.34-1.24z"/>
	<path id="&lt;Path&gt;" class="s3" d="m176.14 129.81c-2.09-1.4-4.41-2.46-6.58-3.72-1.88-1.11-3.83-2.77-5.96-3.27-0.36-0.08-0.77 0.33-0.52 0.68 1.33 1.84 3.71 2.92 5.66 3.99 2.23 1.23 4.55 2.52 7.02 3.22 0.55 0.16 0.83-0.6 0.38-0.9z"/>
	<path id="&lt;Path&gt;" class="s3" d="m15.85 108.92c-2.63-0.87-5.43-1.2-8.17-1.59-2.11-0.31-4.22-0.71-6.34-0.31-0.21 0.04-0.26 0.37-0.06 0.47 2.18 1.06 4.68 1.23 7.05 1.62 2.44 0.41 4.88 0.93 7.35 1.04 0.74 0.03 0.82-1.02 0.17-1.23z"/>
	<path id="&lt;Path&gt;" class="s3" d="m16 114.78c-4.67-0.42-10.19 0.13-14.76 1.21-0.74 0.18-0.54 1.25 0.18 1.28 4.67 0.22 10.2-0.26 14.71-1.54 0.56-0.15 0.4-0.91-0.13-0.95z"/>
	<path id="&lt;Path&gt;" class="s3" d="m13.7 122.54c-2.02 0.77-3.85 2.02-5.58 3.3-1.76 1.3-3.57 2.59-4.93 4.31-0.36 0.45 0.07 1.09 0.62 0.81 1.99-1.01 3.72-2.48 5.53-3.76 1.67-1.18 3.43-2.32 4.89-3.74 0.38-0.36 0-1.11-0.53-0.92z"/>
	<path id="&lt;Path&gt;" class="s4" d="m75.53 81.48c-0.41-1.35-2.62-1.16-2.55 0.35 0.1 2.23 0.38 5.31 1.57 7.24 0.44 0.71 1.69 0.65 1.88-0.25 0.47-2.22-0.25-5.19-0.9-7.34z"/>
	<path id="&lt;Path&gt;" class="s4" d="m84.73 74.38c-0.06-0.99-0.23-2.1-0.63-3.01-0.28-0.65-1.44-0.66-1.73 0-0.85 1.99-0.27 4.68 1.16 6.28 0.31 0.34 0.99 0.19 1.08-0.29 0.16-0.92 0.19-2.05 0.12-2.98z"/>
	<path id="&lt;Path&gt;" class="s4" d="m103.16 73.06c-0.04-0.62-0.07-1.27-0.24-1.88-0.19-0.69-0.51-0.74-0.96-1.15-0.29-0.27-0.68-0.19-0.9 0.12-0.27 0.36-0.56 0.51-0.67 0.99-0.15 0.62-0.08 1.29-0.09 1.92-0.01 1.2-0.31 2.61 0.37 3.66 0.38 0.57 1.33 0.84 1.83 0.24 0.91-1.1 0.75-2.54 0.66-3.9z"/>
	<path id="&lt;Path&gt;" class="s4" d="m95.51 82.1c-0.02-1.17-0.02-2.33-0.14-3.48-0.15-1.44-2.09-1.44-2.24 0-0.12 1.15-0.12 2.31-0.14 3.48-0.02 1.06-0.09 2.09 0.39 3.06 0.33 0.65 1.41 0.65 1.74 0 0.48-0.97 0.41-2 0.39-3.06z"/>
	<path id="&lt;Path&gt;" class="s4" d="m108.86 85.7c-0.06-1.01-1.37-1.16-1.71-0.24-0.42 1.12-0.7 2.22-0.92 3.39-0.2 1.02-0.5 2.17-0.18 3.19 0.29 0.92 1.44 1.02 1.97 0.25 0.6-0.87 0.63-2.07 0.74-3.1 0.12-1.18 0.18-2.31 0.1-3.49z"/>
	<path id="&lt;Path&gt;" class="s4" d="m102.37 90.74c-0.36-0.87-1.9-1.19-2.11 0-0.17 0.93-0.1 1.86-0.17 2.79-0.06 0.89-0.34 1.93 0.01 2.76 0.29 0.69 1.12 1.05 1.72 0.45 1.25-1.25 1.18-4.44 0.55-6z"/>
	<path id="&lt;Path&gt;" class="s4" d="m86.62 88.17c-0.03-0.68 0.15-1.28-0.28-1.86-0.21-0.29-0.57-0.52-0.95-0.39-0.97 0.34-1.24 1.28-1.31 2.25-0.08 1.15 0.19 2.01 0.92 2.9 0.59 0.71 1.88 0.13 1.83-0.76-0.04-0.72-0.17-1.42-0.21-2.14z"/>
	<path id="&lt;Path&gt;" class="s4" d="m93.23 93.56c-0.25-1.1-1.97-1.1-2.22 0-0.26 1.12-0.43 2.67 0.2 3.68 0.43 0.67 1.39 0.67 1.82 0 0.64-1.01 0.46-2.56 0.2-3.68z"/>
	<path id="&lt;Path&gt;" class="s4" d="m79.01 93.22c-0.15-1.06-1.99-1.06-2.15 0-0.17 1.21-0.55 2.84 0.42 3.78 0.37 0.36 0.94 0.36 1.31 0 0.97-0.93 0.59-2.58 0.42-3.78z"/>
	<path id="&lt;Path&gt;" class="s4" d="m74.83 71.52c-0.09-1.48-2.21-1.48-2.3 0-0.08 1.2-0.4 2.29 0.18 3.41 0.37 0.74 1.57 0.74 1.94 0 0.58-1.12 0.26-2.21 0.18-3.41z"/>
	<path id="&lt;Path&gt;" class="s4" d="m110.17 73.37c-0.34-1.21-2.04-0.91-2.12 0.28-0.1 1.68-0.62 3.53-0.39 5.19 0.09 0.67 0.95 0.68 1.36 0.35 1.61-1.28 1.66-4.01 1.15-5.82z"/>
</svg>