<svg version="1.2" xmlns="http://www.w3.org/2000/svg" viewBox="0 0 233 217" width="233" height="217">
	<style>
		.s0 { fill: #ffb1ae } 
		.s1 { fill: #dd7b51 } 
		.s2 { fill: #fdebca } 
		.s3 { fill: #ac3e1f } 
		.s4 { fill: #e68d6a } 
	</style>
	<path id="&lt;Path&gt;" class="s0" d="m26.49 78.5c-1.6 0.55-3.34 1.34-3.9 2.92-0.87 2.5 1.7 4.77 3.98 6.12 6.61 3.93 13.61 7.41 21.14 9.01 7.53 1.6 15.67 1.2 22.52-2.32 3.05-1.57 6.69-4.96 4.82-8.81-1.3-2.69-6.22-4.08-8.77-5.19-7.92-3.43-16.66-4.98-25.28-4.52-4.93 0.27-9.84 1.19-14.51 2.79z"/>
	<path id="&lt;Path&gt;" class="s1" d="m75.6 82.41c0.01-0.63-0.34-1.28-0.74-1.81-1.66-2.23-4.14-3.7-6.69-4.81-9.59-4.16-22.08-5.15-32.31-3.2-3.48 0.67-15.66 3.27-16.21 7.8-0.98 8.13 14.13 13.49 20.05 15.4 9.42 3.03 19.82 3.06 29.22-0.09 3.66-1.22 7.57-3.38 8.42-7.14-7.51 4.7-19.58 8.38-28.45 7.57-4.85-0.44-9.62-1.85-13.89-4.19-3.25-1.77-16.29-9.27-7.62-12.31 11.33-3.97 24.16-3.84 35.34 0.59 3.09 1.23 6.85 4.73 9.98 5.23 2.03 0.32 1.11 0.03 2.01-1.39 0.24-0.37 0.59-0.66 0.77-1.06q0.12-0.29 0.12-0.59z"/>
	<path id="&lt;Path&gt;" class="s0" d="m211.64 81.91c1.59 0.56 3.33 1.36 3.88 2.95 0.86 2.5-1.73 4.76-4.02 6.09-6.64 3.89-13.66 7.33-21.19 8.88-7.54 1.56-15.68 1.11-22.51-2.46-3.04-1.59-6.66-5-4.77-8.84 1.33-2.68 6.25-4.04 8.81-5.13 7.94-3.39 16.68-4.88 25.3-4.36 4.94 0.29 9.83 1.24 14.5 2.87z"/>
	<path id="&lt;Path&gt;" class="s1" d="m162.62 86.11c0.18 0.4 0.53 0.69 0.76 1.06 0.89 1.43-0.02 1.71 2.01 1.4 3.13-0.47 6.91-3.95 10.01-5.16 11.2-4.37 24.04-4.41 35.34-0.37 8.65 3.09-4.44 10.51-7.7 12.26-4.28 2.31-9.06 3.7-13.91 4.11-8.87 0.75-20.92-3.01-28.4-7.75 0.82 3.76 4.72 5.95 8.37 7.19 9.38 3.21 19.78 3.24 29.23 0.27 5.92-1.87 21.07-7.14 20.14-15.28-0.52-4.53-12.69-7.21-16.17-7.89-10.21-2.02-22.71-1.1-32.32 3-2.56 1.09-5.05 2.55-6.73 4.76-0.4 0.53-0.76 1.18-0.75 1.81q0 0.3 0.12 0.59z"/>
	<path id="&lt;Path&gt;" class="s1" d="m65.78 101.98c2.08-13 3.6-26.54 11.14-37.8 7.33-10.94 20.33-18.79 34.47-20.42 14.15-1.63 29.12 3.12 38.65 12.61 7.55 7.52 11.46 17.38 14.16 27.18 7.09 25.73 6.83 54.35 19.4 78.34-11.88-11.7-28.87-19.27-46.36-21.52-17.5-2.26-35.34-0.61-52.8 1.85-6.63 0.93-13.31 2-19.43 4.46-3.95 1.59-7.3 9.47-10.68 11.68-1.01-3.22 4.37-14.54 5.26-17.71q1.87-6.6 3.47-13.25c2.14-8.88 1.28-16.44 2.72-25.42z"/>
	<path id="&lt;Path&gt;" class="s2" d="m185.42 169.28c-1.47-13.54-12.75-25.07-26.3-31.27-13.7-6.26-27.89-8.35-42.09-7.78-14.21-0.57-28.4 1.52-42.1 7.78-13.55 6.2-24.83 17.73-26.3 31.27-1.65 15.17 9.43 29.78 24.07 37.58 12.94 6.9 28.18 9.3 43.31 9.92 0.34 0.07 0.68 0.05 1.02 0.04q0.5 0.02 1.01 0.04c15.13-0.7 30.37-3.1 43.31-10 14.64-7.8 25.72-22.41 24.07-37.58z"/>
	<path id="&lt;Path&gt;" class="s3" d="m138.79 143.37c-1.25-1.11-2.77-1.79-4.29-2.37-5.54-2.11-11.53-3.03-17.47-3-5.95-0.03-11.94 0.89-17.48 3-1.52 0.58-3.04 1.26-4.29 2.37-4.9 4.33-1.85 10.79 2.26 13.97 3.99 3.09 8.72 4.57 13.14 6.67 2.3 1.1 4.34 1.53 6.37 1.53 2.02 0 4.06-0.43 6.36-1.53 4.42-2.1 9.15-3.58 13.14-6.67 4.11-3.18 7.17-9.64 2.26-13.97z"/>
	<path id="&lt;Path&gt;" class="s3" d="m79.95 63.4c-0.61-0.47-1.34-0.82-2.06-1.11-3.57-1.46-6.6-3.57-9.42-6.19-3.36-3.13-5.92-6.38-6.6-11.04-0.4-2.79-0.11-5.64-0.46-8.44-0.35-2.73-1.66-6.46-4.64-7.26-3.06-0.82-5.57 1.88-5.63 4.81-0.07 3.64 0.93 8.36 2.52 11.6-8.44-0.83-10.28-10.59-10.26-17.29 0.02-6.15-0.84-12.31-2.55-18.22-1.14-3.94-3.01-8.15-6.79-9.75-0.58-0.24-1.25-0.41-1.82-0.15-0.49 0.22-0.79 0.7-1.05 1.17-2.27 4.13-3.08 9.27-3.01 13.93 0.02 1.81 0.2 3.63-0.14 5.41-2.23 11.73-14.3 0.65-19.86-0.21-2.07-0.32-7.97-2.44-8.46 1.19-0.57 4.12 5.85 8.45 8.74 10.36 2.71 1.79 5.67 3.2 8.77 4.16 2.97 0.92 5.67 0.31 8.17 2.58 1.37 1.24 2.41 2.8 3.56 4.25 2.62 3.31 5.89 6.11 9.56 8.2 3.14 1.8 8.54 2.57 11.02 4.89 0.54 0.5-8.23 1.82-8.7 1.88-3.84 0.48-7.7 1.36-11.07 3.35-1.29 0.75-2.62 1.97-2.41 3.44 0.93 6.65 25.6 1.94 29.92 1.33 1.7-0.24 3.44-0.51 5.1-0.13 3.8 0.86 7.35 2.39 10.98 3.79 1.23 0.48 2.52 0.96 3.84 0.84 2.29-0.21 5.11-4.1 3.8-6.26q-0.42-0.66-1.05-1.13z"/>
	<path id="&lt;Path&gt;" class="s3" d="m150.23 64.53c-1.31 2.16 1.51 6.05 3.8 6.26 1.32 0.12 2.61-0.36 3.84-0.84 3.62-1.4 7.18-2.93 10.97-3.79 1.67-0.38 3.41-0.11 5.11 0.13 4.32 0.61 28.99 5.32 29.92-1.33 0.21-1.47-1.12-2.69-2.41-3.44-3.37-1.99-7.23-2.87-11.08-3.35-0.46-0.06-9.23-1.38-8.69-1.88 2.48-2.32 7.88-3.09 11.02-4.89 3.67-2.09 6.94-4.89 9.56-8.2 1.15-1.45 2.19-3.01 3.56-4.25 2.5-2.27 5.2-1.66 8.17-2.58 3.1-0.96 6.06-2.37 8.77-4.16 2.89-1.91 9.31-6.24 8.74-10.36-0.49-3.63-6.39-1.51-8.46-1.19-5.56 0.86-17.63 11.94-19.86 0.21-0.34-1.78-0.17-3.6-0.14-5.41 0.07-4.66-0.74-9.8-3.01-13.93-0.26-0.47-0.57-0.95-1.05-1.17-0.57-0.26-1.24-0.09-1.82 0.15-3.78 1.6-5.65 5.81-6.79 9.75-1.71 5.91-2.58 12.07-2.55 18.22 0.02 6.7-1.83 16.46-10.26 17.29 1.59-3.24 2.59-7.96 2.52-11.6-0.06-2.93-2.58-5.63-5.64-4.81-2.97 0.8-4.28 4.53-4.63 7.26-0.35 2.8-0.06 5.65-0.46 8.44-0.68 4.66-3.24 7.91-6.6 11.04-2.82 2.62-5.86 4.73-9.42 6.19-0.72 0.29-1.45 0.64-2.06 1.11q-0.63 0.47-1.05 1.13z"/>
	<path id="&lt;Path&gt;" class="s0" d="m79.58 165.34c-0.58 5.55-5.55 9.58-11.1 9-5.55-0.58-9.58-5.55-9-11.1 0.58-5.55 5.55-9.58 11.1-9 5.55 0.58 9.58 5.55 9 11.1z"/>
	<path id="&lt;Path&gt;" class="s0" d="m174.57 165.34c-0.58 5.55-5.55 9.58-11.1 9-5.55-0.58-9.58-5.55-9-11.1 0.58-5.55 5.55-9.58 11.1-9 5.55 0.58 9.58 5.55 9 11.1z"/>
	<path id="&lt;Path&gt;" class="s3" d="m128.14 176.34c-0.88 2.48-5.13 2.35-6.89 1.22-1.64-1.04-2.09-2.84-2.36-4.6-0.24-1.56-0.32-3.15-0.33-4.75q0-0.05 0-0.1c-0.01-1.61 0.06-3.22 0.12-4.79 0.04-1.06-0.84-1.51-1.65-1.42-0.82-0.09-1.7 0.36-1.66 1.42 0.06 1.57 0.13 3.18 0.12 4.78q0 0.06 0 0.12c-0.01 1.59-0.09 3.19-0.33 4.74-0.27 1.76-0.72 3.56-2.36 4.6-1.76 1.13-6.01 1.26-6.89-1.22-0.39-1.1-2.29-1.03-2.18 0.29 0.4 4.81 7.09 5.56 10.57 3.5 1.22-0.73 2.09-1.75 2.73-2.95 0.63 1.2 1.5 2.22 2.72 2.95 3.48 2.06 10.18 1.31 10.57-3.5 0.11-1.32-1.79-1.39-2.18-0.29z"/>
	<path id="&lt;Path&gt;" class="s3" d="m99.46 91.69c-1.88-0.74-5.19 1.17-6.4 2.69-1.75 2.19-4.29 8.32 1.21 7.18 2.99-0.62 6.58-3.95 6.56-7.21-0.01-1.54-0.56-2.34-1.37-2.66z"/>
	<path id="&lt;Path&gt;" class="s3" d="m131.63 94.35c-0.01 3.26 3.57 6.59 6.56 7.21 5.5 1.14 2.97-4.99 1.21-7.18-1.21-1.52-4.52-3.43-6.4-2.69-0.81 0.32-1.36 1.12-1.37 2.66z"/>
	<path id="&lt;Path&gt;" class="s3" d="m107.39 114.06c0 5.36-2.38 9.7-5.3 9.7-2.93 0-5.31-4.34-5.31-9.7 0-5.36 2.38-9.71 5.31-9.71 2.92 0 5.3 4.35 5.3 9.71z"/>
	<path id="&lt;Path&gt;" class="s3" d="m125.07 114.06c0 5.36 2.38 9.7 5.31 9.7 2.93 0 5.3-4.34 5.3-9.7 0-5.36-2.37-9.71-5.3-9.71-2.93 0-5.31 4.35-5.31 9.71z"/>
	<path id="&lt;Path&gt;" class="s4" d="m115.3 48.3c-0.21-1.25-2.32-1.25-2.52 0-0.37 2.19-0.55 5.12 0.4 7.18 0.3 0.65 1.41 0.65 1.71 0 0.96-2.06 0.78-4.99 0.41-7.18z"/>
	<path id="&lt;Path&gt;" class="s4" d="m116.41 62.13c-0.03-1.25-1.99-1.63-2.26-0.31-0.23 1.12-0.3 2.28-0.34 3.43-0.04 1.06-0.1 2.25 0.47 3.19 0.37 0.6 1.42 0.72 1.76 0 0.45-0.95 0.37-1.94 0.35-2.97-0.01-1.11 0.05-2.23 0.02-3.34z"/>
	<path id="&lt;Path&gt;" class="s4" d="m116.79 76.51c-0.24-0.74-1.48-0.87-1.65 0-0.2 1.07-0.32 2.1-0.31 3.19 0.01 1.06-0.06 2.18 0.52 3.1 0.4 0.65 1.54 0.79 1.91 0 0.84-1.82 0.11-4.46-0.47-6.29z"/>
	<path id="&lt;Path&gt;" class="s4" d="m128.41 78.98c-0.23-0.67-1.29-0.95-1.64-0.21-0.46 0.95-0.47 2.02-0.57 3.06-0.1 1.09-0.27 2.08 0.19 3.1 0.3 0.68 1.3 0.55 1.64 0 0.53-0.86 0.48-1.89 0.51-2.88 0.04-1.01 0.19-2.09-0.13-3.07z"/>
	<path id="&lt;Path&gt;" class="s4" d="m122.55 68.54c-0.83 1.49-1.45 3.82-0.32 5.27 0.47 0.61 1.33 0.16 1.55-0.41 0.25-0.64 0.12-1.29 0.13-1.97 0.02-0.75 0.18-1.45 0.36-2.17 0.26-1.01-1.19-1.68-1.72-0.72z"/>
	<path id="&lt;Path&gt;" class="s4" d="m123.4 56.78c-0.51 1.1-0.72 2.25-0.5 3.45 0.17 0.91 1.58 1.06 1.99 0.26 0.5-0.97 0.68-2.08 0.54-3.16-0.12-0.93-1.52-1.67-2.03-0.55z"/>
	<path id="&lt;Path&gt;" class="s4" d="m131.78 63.08c-0.86 1.01-1.23 2.35-1.57 3.62-0.33 1.25-0.77 2.72-0.39 3.99 0.28 0.93 1.42 0.97 1.94 0.25 0.71-0.97 0.84-2.35 1.1-3.51 0.28-1.18 0.73-2.41 0.65-3.64-0.06-0.79-1.12-1.43-1.73-0.71z"/>
	<path id="&lt;Path&gt;" class="s4" d="m137.21 50.1c-0.21-0.71-1.07-0.73-1.46-0.19-0.63 0.85-0.88 2.01-1.23 3-0.35 1.01-0.9 2.08-0.81 3.16 0.08 0.89 0.98 1.21 1.65 0.69 0.93-0.72 1.31-2.08 1.6-3.18 0.29-1.1 0.57-2.37 0.25-3.48z"/>
	<path id="&lt;Path&gt;" class="s4" d="m125.42 46.54c-0.8 1.03-1.7 2.83-0.78 4.04 0.51 0.68 1.43 0.75 1.93 0 0.56-0.84 0.39-2.07 0.54-3.06 0.14-0.85-0.99-1.87-1.69-0.98z"/>
	<path id="&lt;Path&gt;" class="s4" d="m106.89 60.62c-0.22-0.86-0.39-1.7-0.67-2.55-0.29-0.91-1.48-0.67-1.58 0.22-0.18 1.49 0.02 3.88 1.2 4.95 0.41 0.36 1.26 0.28 1.37-0.37 0.12-0.82-0.11-1.44-0.32-2.25z"/>
	<path id="&lt;Path&gt;" class="s4" d="m102.47 48.85c-0.65-1.24-2.25-0.31-2.08 0.87 0.15 1.04 0.45 1.85 1.04 2.7 0.53 0.79 1.91 0.56 1.88-0.5-0.04-1.14-0.31-2.07-0.84-3.07z"/>
	<path id="&lt;Path&gt;" class="s4" d="m109.45 72.29q-0.51-1.46-1.11-2.89c-0.35-0.85-1.6-0.55-1.4 0.39q0.3 1.51 0.7 3c0.27 1.01 0.61 1.74 1.09 2.65 0.31 0.58 1.37 0.35 1.3-0.35-0.12-1.02-0.24-1.82-0.58-2.8z"/>
	<path id="&lt;Path&gt;" class="s4" d="m105.49 82.54c-0.85-0.93-2.44 0.28-1.75 1.35q0.57 0.87 0.96 1.83c0.26 0.65 0.32 1.18 0.83 1.68 0.6 0.59 1.49 0.27 1.75-0.46 0.53-1.48-0.84-3.36-1.79-4.4z"/>
	<path id="&lt;Path&gt;" class="s4" d="m101.71 72.52c-0.29-0.81-0.54-1.7-1.06-2.4-0.63-0.86-2.18-0.67-2.16 0.58 0.02 0.95 0.36 1.85 0.66 2.74 0.31 0.89 0.6 1.68 1.27 2.36 0.68 0.7 1.67 0.11 1.77-0.73 0.1-0.93-0.17-1.68-0.48-2.55z"/>
	<path id="&lt;Path&gt;" class="s4" d="m94.71 58.27c-0.53-1.36-2.61-0.86-2.24 0.62 0.34 1.35 1.02 3.33 2.57 3.66 0.58 0.12 1.32-0.28 1.26-0.96-0.12-1.26-1.14-2.16-1.59-3.32z"/>
	<path id="&lt;Path&gt;" class="s4" d="m120.86 88.31c-0.42-0.78-1.71-0.62-1.91 0.25-0.2 0.85-0.14 1.69-0.15 2.56-0.01 0.88-0.09 1.63 0.33 2.42 0.42 0.79 1.43 0.61 1.89 0 0.94-1.28 0.55-3.91-0.16-5.23z"/>
	<path id="&lt;Path&gt;" class="s4" d="m113.98 92.02c-0.29-0.58-1.37-0.5-1.47 0.19-0.18 1.23-0.28 2.97 0.47 4.02 0.48 0.69 1.55 0.63 1.81-0.23 0.38-1.26-0.22-2.85-0.81-3.98z"/>
	<path id="&lt;Path&gt;" class="s4" d="m130.59 145.6c-7.32-4.43-23.58-4.06-29.92 2.07-0.56 0.55-0.12 1.48 0.62 1.5 4.43 0.14 8.82-2.08 13.3-2.48 5.17-0.46 9.84 0.84 14.88 1.58 1.55 0.23 2.64-1.75 1.12-2.67z"/>
</svg>