<svg version="1.2" xmlns="http://www.w3.org/2000/svg" viewBox="0 0 240 135" width="240" height="135">
	<style>
		.s0 { fill: #cbd9e1 } 
		.s1 { fill: #fdf2e9 } 
		.s2 { fill: #616e7e } 
		.s3 { fill: #878d9f } 
		.s4 { fill: #ff979f } 
	</style>
	<path id="&lt;Path&gt;" class="s0" d="m159.42 12.01c-12.01-7.71-28.21-10.83-44.65-10.84-16.43-0.02-32.63 3.08-44.66 10.77-26.28 16.81-50.66 60.31-32.95 92.08 3.83 6.87 9.77 12.48 16.46 16.87 11.39 7.46 24.92 11.5 38.57 13.27 7.45 0.97 14.95 1.28 22.47 1.24 7.51 0.05 15.02-0.25 22.47-1.2 13.65-1.75 27.19-5.76 38.59-13.21 6.7-4.37 12.65-9.98 16.49-16.83 17.76-31.74-6.54-75.29-32.79-92.15z"/>
	<path id="&lt;Path&gt;" class="s1" d="m148.7 72.82c-2.58-8.89-8.59-19.74-16.77-27.27-11.2-10.3-23.04-10.43-34.39-0.03-8.19 7.51-14.22 18.36-16.82 27.24-1.45 4.98-2.33 10.2-1.64 15.32 4.09 30.09 67.2 29.37 71.24 0.06 0.7-5.12-0.17-10.34-1.62-15.32z"/>
	<path id="&lt;Path&gt;" class="s2" d="m136.76 69.22c-1.94-9.73-12.02-13.44-21.08-13.8q-0.08 0-0.17 0-0.08-0.01-0.16-0.01c-9.06 0.33-19.14 4.05-21.11 13.77-1.09 5.41 3.27 8.25 8.67 9.63 4.23 1.09 8.16 2.81 12.42 3.23q0.08 0.04 0.16 0.02 0.08 0.01 0.17 0.02c4.25-0.45 8.18-2.17 12.41-3.24 5.41-1.38 9.77-4.21 8.69-9.62z"/>
	<path id="&lt;Path&gt;" class="s2" d="m124.25 96.46c-4.19 3.84-7.22-1.17-7.45-4.4-0.1-1.37 0.01-2.81 0.02-4.19 0.02-2.81 0.23-5.66-0.45-8.41-0.09-0.36-0.56-0.42-0.82-0.21-0.26-0.21-0.73-0.15-0.83 0.21-0.68 2.75-0.48 5.6-0.46 8.41 0.01 1.38 0.12 2.82 0.01 4.19-0.24 3.23-3.27 8.23-7.46 4.38-0.81-0.75-1.94 0.19-1.5 1.08 1.99 4.02 6.95 2.84 9.37-0.22q0.53-0.68 0.85-1.42 0.33 0.74 0.85 1.42c2.42 3.06 7.38 4.25 9.37 0.24 0.45-0.89-0.68-1.83-1.5-1.08z"/>
	<path id="&lt;Path&gt;" class="s3" d="m69.96 21.03c-1.53-4.42-8.77-3.65-12.43-3.23-7.94 0.91-15.85 1.69-23.37 4.6-7.58 2.94-14.97 7.34-21.29 12.46-7.59 6.14-21.27 24.35-4.37 28.94 4.56 1.23 9.53-0.1 13.5-2.66 11.9-7.66 12.79-23.94 26.85-29.34 4.79-1.84 9.9-1.78 14.82-2.97 3.39-0.83 7.68-3.78 6.29-7.8z"/>
	<path id="&lt;Path&gt;" class="s3" d="m170.1 27.18c4.85-1.46 9.23-4.09 14.28-4.93 14.87-2.45 23.86 11.14 38.01 11.74 4.71 0.2 9.67-1.17 12.98-4.54 12.27-12.5-8.74-21.29-18.4-22.75-8.04-1.22-16.64-1.28-24.66 0.02-7.96 1.28-15.18 4.61-22.5 7.84-3.36 1.49-10 4.49-9.08 9.07 0.83 4.18 6.02 4.55 9.37 3.55z"/>
	<path id="&lt;Path&gt;" class="s2" d="m72.42 55.69c-1.82-0.72-5.02 1.13-6.2 2.6-1.7 2.12-4.16 8.06 1.16 6.95 2.9-0.6 6.38-3.81 6.36-6.97 0-1.49-0.53-2.27-1.32-2.58z"/>
	<path id="&lt;Path&gt;" class="s2" d="m74.06 79.8c0 5.19-2.3 9.4-5.14 9.4-2.84 0-5.13-4.21-5.13-9.41 0.01-5.19 2.31-9.39 5.15-9.39 2.83 0 5.13 4.21 5.12 9.4z"/>
	<path id="&lt;Path&gt;" class="s2" d="m156.37 60.3c-0.02 3.16 3.44 6.39 6.34 6.99 5.33 1.11 2.87-4.82 1.18-6.95-1.17-1.47-4.37-3.33-6.2-2.61-0.78 0.3-1.32 1.09-1.32 2.57z"/>
	<path id="&lt;Path&gt;" class="s2" d="m155.69 81.83c0 5.18 2.29 9.37 5.12 9.38 2.83 0 5.13-4.2 5.13-9.37 0-5.18-2.29-9.38-5.11-9.38-2.83 0-5.13 4.19-5.14 9.37z"/>
	<path id="&lt;Path&gt;" class="s4" d="m188.64 99.22c-0.56 5.36-5.37 9.24-10.72 8.68-5.36-0.57-9.25-5.37-8.69-10.73 0.57-5.36 5.37-9.24 10.73-8.68 5.36 0.57 9.25 5.37 8.68 10.73z"/>
	<path id="&lt;Path&gt;" class="s4" d="m61.4 99.11c-0.56 5.36-5.36 9.24-10.72 8.68-5.36-0.57-9.25-5.37-8.68-10.73 0.56-5.36 5.37-9.24 10.72-8.68 5.36 0.57 9.25 5.37 8.68 10.73z"/>
	<path id="&lt;Path&gt;" class="s1" d="m100.33 28.56c-0.52-1.33-1-2.94-2.6-3.12-0.38-0.04-0.8 0.25-0.97 0.56-0.67 1.21 0.21 2.41 0.62 3.58 0.41 1.17 0.59 2.67 1.58 3.51 0.53 0.43 1.4 0.46 1.76-0.23 0.72-1.38 0.13-2.95-0.39-4.3z"/>
	<path id="&lt;Path&gt;" class="s1" d="m94.03 13.18c-0.57-0.43-1.57 0.02-1.69 0.69-0.29 1.57 0.42 4.11 2.08 4.64 0.46 0.15 1.02-0.1 1.26-0.51 0.87-1.52-0.4-3.87-1.65-4.82z"/>
	<path id="&lt;Path&gt;" class="s1" d="m105.25 16.15c-0.58-1.23-2.2-0.28-2.03 0.86 0.22 1.49 0.46 3.12 1.6 4.21 0.47 0.45 1.37 0.29 1.52-0.4 0.36-1.65-0.4-3.21-1.09-4.67z"/>
	<path id="&lt;Path&gt;" class="s1" d="m111.05 29.79c-0.24-0.91-0.4-1.84-1.06-2.53-0.62-0.65-1.68-0.29-1.93 0.51-0.28 0.9 0.02 1.88 0.21 2.79 0.19 0.96 0.36 1.81 1.01 2.57 0.6 0.71 1.83 0.31 2.04-0.53 0.25-0.97-0.03-1.87-0.27-2.81z"/>
	<path id="&lt;Path&gt;" class="s1" d="m116.12 8.54c-0.18-1.07-0.55-2.02-1.11-2.9q-0.05-0.21-0.15-0.42c-0.28-0.64-1.2-0.78-1.74-0.46q-0.07 0.03-0.13 0.07c-0.66 0.38-0.78 1.17-0.48 1.81 0.46 0.99 0.65 1.97 0.79 3.04 0.13 1.01 0.15 2.1 0.92 2.85 0.51 0.51 1.45 0.43 1.81-0.23 0.58-1.08 0.3-2.59 0.09-3.76z"/>
	<path id="&lt;Path&gt;" class="s1" d="m102.72 5.94c-0.74-0.79-2.4 0.03-1.94 1.13 0.52 1.23 0.57 2.84 1.76 3.65 0.34 0.23 0.82 0.12 1.09-0.14 1.43-1.37 0.17-3.51-0.91-4.64z"/>
	<path id="&lt;Path&gt;" class="s1" d="m117 18.92c-0.3-0.89-1.51-0.89-1.8 0-0.44 1.32-0.76 3.05 0.01 4.31 0.41 0.66 1.37 0.66 1.77 0 0.77-1.26 0.45-3 0.02-4.31z"/>
	<path id="&lt;Path&gt;" class="s1" d="m118.14 31.49c0.17-1.12-1.38-2.05-2-0.84-0.66 1.3-1.33 3.41-0.12 4.57 0.52 0.5 1.44 0.43 1.8-0.23 0.58-1.04 0.15-2.34 0.32-3.5z"/>
	<path id="&lt;Path&gt;" class="s1" d="m124.56 12.04c-1.37 1.11-1.88 3.64-0.68 5.01 0.47 0.54 1.27 0.3 1.61-0.2 0.68-0.98 0.86-2.91 0.84-4.08-0.02-0.96-1.09-1.28-1.77-0.73z"/>
	<path id="&lt;Path&gt;" class="s1" d="m125.03 24.53c-0.25-1.33-2.36-1.01-2.33 0.31 0.03 1.26-0.38 2.58-0.06 3.8 0.19 0.72 1.07 0.89 1.59 0.42 1.24-1.13 1.08-3.03 0.8-4.53z"/>
	<path id="&lt;Path&gt;" class="s1" d="m137.79 7.06c-0.25-0.49-0.91-0.49-1.28-0.16-0.8 0.7-0.99 1.96-1.34 2.93-0.38 1.06-0.91 2.14-0.79 3.29 0.06 0.6 0.68 1.1 1.26 0.73 1.11-0.71 1.59-1.94 1.95-3.14 0.34-1.15 0.77-2.53 0.2-3.65z"/>
	<path id="&lt;Path&gt;" class="s1" d="m131.94 20.82c-1.07 1-1.76 3.25-0.63 4.41 0.52 0.53 1.26 0.31 1.65-0.21 0.35-0.46 0.34-0.96 0.45-1.5 0.11-0.54 0.34-1.03 0.5-1.55 0.34-1.17-1.14-1.94-1.97-1.15z"/>
	<path id="&lt;Path&gt;" class="s1" d="m129.91 32.21c-1.92 0.47-3.04 2.89-2.81 4.68 0.13 1.02 1.3 1.41 1.93 0.53 0.45-0.64 0.81-1.23 1.19-1.91 0.36-0.65 0.85-1.22 1.04-1.95 0.21-0.82-0.53-1.54-1.35-1.35z"/>
	<path id="&lt;Path&gt;" class="s1" d="m125.21 2.58c-0.74 1.42-1.1 4.02 0.09 5.27 0.48 0.51 1.33 0.36 1.67-0.21 0.4-0.67 0.36-1.35 0.37-2.11 0.01-0.78 0.14-1.58 0.07-2.36-0.09-1.08-1.61-1.71-2.2-0.59z"/>
</svg>