<svg version="1.2" xmlns="http://www.w3.org/2000/svg" viewBox="0 0 159 195" width="159" height="195">
	<style>
		.s0 { fill: #ffb1ae } 
		.s1 { fill: #feb03d } 
		.s2 { fill: #fdebca } 
		.s3 { fill: #dd7b51 } 
		.s4 { fill: #ac3e1f } 
		.s5 { fill: #947373 } 
	</style>
	<path id="&lt;Path&gt;" class="s0" d="m8.27 28.49c-1.62 0.09-3.44 0.38-4.37 1.71-1.46 2.1 0.35 4.88 2.12 6.72 5.14 5.37 10.75 10.41 17.34 13.84 6.59 3.44 14.28 5.17 21.56 3.66 3.25-0.68 7.51-2.89 6.76-6.95-0.52-2.84-4.74-5.41-6.82-7.1-6.49-5.24-14.22-8.93-22.36-10.73-4.66-1.03-9.46-1.43-14.23-1.15z"/>
	<path id="&lt;Path&gt;" class="s1" d="m52.97 44.81c0.17-0.59 0.01-1.29-0.22-1.88-0.98-2.5-2.9-4.52-4.99-6.2-7.85-6.35-19.22-10.5-29.24-11.32-3.41-0.28-15.42-1.01-17.1 3.07-3.01 7.32 9.67 16.2 14.68 19.5 7.99 5.26 17.66 7.97 27.22 7.47 3.72-0.19 7.92-1.2 9.68-4.47-8.2 2.43-20.39 2.74-28.43-0.3-4.4-1.66-8.47-4.21-11.84-7.48-2.57-2.49-12.77-12.84-3.91-13.43 11.56-0.77 23.47 2.66 32.72 9.67 2.57 1.94 5.16 6.17 7.95 7.44 1.8 0.82 1.02 0.32 2.23-0.77 0.31-0.29 0.71-0.46 0.98-0.79q0.19-0.23 0.27-0.51z"/>
	<path id="&lt;Path&gt;" class="s0" d="m151.61 29.83c1.62 0.1 3.45 0.38 4.38 1.71 1.46 2.1-0.35 4.88-2.12 6.72-5.14 5.37-10.76 10.41-17.35 13.84-6.59 3.44-14.27 5.17-21.55 3.66-3.25-0.68-7.51-2.89-6.76-6.95 0.52-2.84 4.73-5.41 6.82-7.1 6.49-5.24 14.21-8.93 22.35-10.73 4.66-1.03 9.47-1.43 14.23-1.15z"/>
	<path id="&lt;Path&gt;" class="s1" d="m107.19 46.66c0.26 0.33 0.67 0.51 0.98 0.79 1.2 1.09 0.43 1.6 2.23 0.77 2.78-1.27 5.38-5.49 7.94-7.44 9.25-7.01 21.17-10.44 32.73-9.67 8.86 0.59-1.35 10.94-3.91 13.43-3.37 3.27-7.45 5.82-11.84 7.48-8.05 3.04-20.23 2.73-28.43 0.3 1.76 3.28 5.96 4.28 9.67 4.47 9.56 0.5 19.24-2.21 27.22-7.47 5.02-3.3 17.7-12.18 14.68-19.5-1.68-4.08-13.68-3.35-17.1-3.07-10.02 0.82-21.38 4.97-29.23 11.32-2.09 1.68-4.02 3.7-4.99 6.2-0.24 0.59-0.4 1.29-0.22 1.88q0.08 0.28 0.27 0.51z"/>
	<path id="&lt;Path&gt;" class="s1" d="m108.82 7.56c-0.23-1.73-0.94-3.52-2.26-4.74-2.73-2.5-6.7-3.15-9.99-1.28q-0.12 0.07-0.24 0.13c-4.67 2.66-5.42 9.32-1.68 13.06q0.62 0.61 1.33 1.06c0.83 1.21 0.45 2.58 0.43 3.99q-0.06 5.16 0.05 10.31 0.06 3.21 0.17 6.41c0.08 2.12 0.79 5.04 0.36 7.1-0.17 0.81 0.23 1.7 1.2 1.96 2.17 0.57 3.27-1.52 3.73-3.34 1.53-6.11 0.51-13.35 0.48-19.59 0-1.92-0.4-3.83-0.01-5.73 2.16-0.47 4.14-1.77 5.32-3.85q0.07-0.12 0.14-0.24c0.92-1.62 1.22-3.42 0.97-5.25z"/>
	<path id="&lt;Path&gt;" class="s1" d="m50.27 7.56c0.23-1.73 0.94-3.52 2.26-4.74 2.73-2.5 6.7-3.15 9.99-1.28q0.12 0.07 0.24 0.13c4.67 2.66 5.42 9.32 1.68 13.06q-0.62 0.61-1.33 1.06c-0.84 1.21-0.45 2.58-0.43 3.99q0.06 5.16-0.05 10.31-0.07 3.21-0.17 6.41c-0.08 2.12-0.79 5.04-0.36 7.1 0.17 0.81-0.24 1.7-1.21 1.96-2.16 0.57-3.26-1.52-3.72-3.34-1.54-6.11-0.51-13.35-0.49-19.59 0.01-1.92 0.41-3.83 0.02-5.73-2.16-0.47-4.14-1.77-5.32-3.85q-0.07-0.12-0.14-0.24c-0.92-1.62-1.22-3.42-0.97-5.25z"/>
	<path id="&lt;Path&gt;" class="s1" d="m144.02 139.68c-16.8-24.36-7.33-63.87-25.12-87.52-8.36-11.11-21.88-18.15-35.77-18.63-13.89-0.48-27.86 5.61-36.96 16.11-6.63 7.65-10.61 17.27-13.31 27.03-2.7 9.75-4.22 19.8-6.59 29.64-1.99 8.3-4.71 16.7-10.23 23.2-1.79 2.11-1.03 6.12 1.72 6.37 2.75 0.25 5.3-1.28 7.68-2.68 16.29-9.62 34.83-15.98 53.75-16.01 18.91-0.03 38.18 6.71 51.42 20.22 2.2 2.25 4.36 4.75 7.32 5.8 2.97 1.06 5.33-0.47 6.09-3.53z"/>
	<path id="&lt;Path&gt;" class="s2" d="m146.72 145.31c-3.64-13.31-15.18-23.04-28.35-28.16-1.76-7.15-6.53-17.12-15.13-16.9-4.27 0.11-6.77 2.83-9.01 6.06-1.06 1.54-2.04 3.03-2.73 4.59-9.15-1.12-18.41-1.31-27.6-0.58-2.44-6.22-8.5-10.89-15.85-9.28-6.46 1.42-10.55 7.89-12.47 14.59q-1.89 0.56-3.77 1.19c-20.39 6.8-29.07 28.77-20.51 47.96 1.25 2.8 2.86 5.44 4.83 7.82 14.54 17.61 38.83 22.31 60.82 22.26 27.86-0.07 71.82-5.25 70.95-41.45q-0.11-4.24-1.18-8.1z"/>
	<path id="&lt;Path&gt;" class="s3" d="m43.11 101.14c2.02-3.01 4.38-6.19 5.88-9.63q0.48-0.72 0.85-1.55c1.17-2.69 1.26-6.1 0.05-8.86-0.55-1.58-1.44-2.63-2.59-3.28-0.97-0.66-2.07-0.97-3.13-0.86-1.23-0.09-2.57 0.01-4.01 0.24q-1.01 0.16-1.98 0.42-0.59-0.25-1.35-0.32-0.32-0.14-0.64-0.27-1.65-0.44-3.3-0.46c-2.73 9.85-4.25 19.9-6.62 29.74q-0.48 2.01-1.04 4.02-0.13 0.48-0.27 0.96-0.55 1.92-1.19 3.81-0.03 0.12-0.07 0.23c2.06 0.4 4.26 0.21 6.21-0.5 6.27-2.28 9.7-8.47 13.2-13.69z"/>
	<path id="&lt;Path&gt;" class="s3" d="m45.11 56.97c-2.53 1.85-5.07 6.28-5.41 7.63-1.44 5.78 7.53 3.25 8.88-0.53 0.9-2.52 1.19-10.5-3.47-7.1z"/>
	<path id="&lt;Path&gt;" class="s3" d="m66.11 43.22c-4.82-4.01-11.84 0.89-12.36 6.5-0.95 10.08 17.93 12.65 17.26 2.7-0.12-1.77-0.85-3.43-1.69-4.98q-0.66-1.24-1.48-2.37-0.76-1.03-1.73-1.85z"/>
	<path id="&lt;Path&gt;" class="s3" d="m83.83 49.87c1.04-0.66 1.64-1.62 2.39-2.55 1.95-2.46 3.52-3.22 6.73-2.97 1.33 0.1 2.42 0.65 3.8 0.26 4.21-1.2 3.78-4.64 2.09-7.7-2.11-0.85-4.29-1.51-6.49-2.05-3.01-0.77-6.1-1.22-9.22-1.33-4.29-0.15-8.59 0.33-12.75 1.38q0.45 0.86 1.06 1.62c0.1 1.52 0.41 3.06 0.91 4.45-0.26 3.86 0.48 7.54 3.55 9.11 2.19 1.12 5.82 1.09 7.93-0.22z"/>
	<path id="&lt;Path&gt;" class="s3" d="m132.88 103.98c-1.17-8.78-2.03-17.74-3.71-26.22-0.17-0.72-0.3-1.47-0.46-2.2q-1.72 0.13-3.39 0.8c-5.56 2.29-9.27 8.81-8.5 14.77 0.62 4.88 4.26 7.26 8.33 8.9 1.2 1.1 2.56 1.95 3.99 2.44q1.55 0.9 3.32 1.41 0.21 0.06 0.42 0.1z"/>
	<path id="&lt;Path&gt;" class="s4" d="m63.35 68.49c-1.82-0.72-5.01 1.13-6.18 2.59-1.69 2.12-4.14 8.04 1.16 6.94 2.9-0.6 6.36-3.81 6.34-6.96-0.01-1.49-0.54-2.27-1.32-2.57z"/>
	<path id="&lt;Path&gt;" class="s4" d="m94.42 71.06c-0.02 3.15 3.44 6.36 6.33 6.96 5.31 1.1 2.86-4.82 1.17-6.94-1.17-1.46-4.36-3.31-6.18-2.59-0.78 0.3-1.31 1.08-1.32 2.57z"/>
	<path id="&lt;Path&gt;" class="s4" d="m71.01 90.09c0 5.17-2.3 9.37-5.13 9.37-2.82 0-5.12-4.2-5.12-9.37 0-5.18 2.3-9.37 5.12-9.37 2.83 0 5.13 4.19 5.13 9.37z"/>
	<path id="&lt;Path&gt;" class="s4" d="m88.08 90.09c0 5.17 2.3 9.37 5.12 9.37 2.83 0 5.13-4.2 5.13-9.37 0-5.18-2.3-9.37-5.13-9.37-2.82 0-5.12 4.19-5.12 9.37z"/>
	<path id="&lt;Path&gt;" class="s0" d="m41.79 138.1c-0.56 5.36-5.36 9.25-10.72 8.69-5.36-0.56-9.25-5.36-8.69-10.72 0.56-5.36 5.36-9.25 10.72-8.69 5.36 0.56 9.25 5.36 8.69 10.72z"/>
	<path id="&lt;Path&gt;" class="s0" d="m133.51 138.1c-0.56 5.36-5.36 9.25-10.72 8.69-5.36-0.56-9.25-5.36-8.69-10.72 0.56-5.36 5.36-9.25 10.72-8.69 5.36 0.56 9.25 5.36 8.69 10.72z"/>
	<path id="&lt;Path&gt;" class="s5" d="m101.35 115.53c0 3.68 1.63 6.66 3.64 6.66 2 0 3.63-2.98 3.63-6.66 0-3.67-1.63-6.65-3.63-6.65-2.01 0-3.64 2.98-3.64 6.65z"/>
	<path id="&lt;Path&gt;" class="s5" d="m45.74 115.53c0 3.68 1.63 6.66 3.63 6.66 2.01 0 3.64-2.98 3.64-6.66 0-3.67-1.63-6.65-3.64-6.65-2 0-3.63 2.98-3.63 6.65z"/>
	<path id="&lt;Path&gt;" class="s5" d="m83.46 159.95c-0.3-0.51-1.17-0.73-1.6-0.2-2.48 3.09 0.72 9.23-4.41 10.57-2.25 0.59-4.1-0.66-5.04-2.67-1.09-2.3-0.39-4.94-1.52-7.19-0.24-0.48-0.93-0.41-1.18 0-3.15 5.06 1.05 13.49 7.26 12.96 2.5-0.22 4.84-1.69 5.94-3.97 0.67-1.39 0.75-2.95 0.86-4.47 0.12-1.7 0.6-3.51-0.31-5.03z"/>
</svg>