<svg version="1.2" xmlns="http://www.w3.org/2000/svg" viewBox="0 0 252 160" width="252" height="160">
	<style>
		.s0 { fill: #cbd9e1 } 
		.s1 { fill: #ffa1a1 } 
		.s2 { fill: #8d8ca7 } 
		.s3 { fill: #e5e9e8 } 
	</style>
	<path id="&lt;Path&gt;" class="s0" d="m84.66 40.77c1.43-17.03-11.23-33.72-27.68-38.34-16.45-4.62-35.09 2.25-45.87 15.51-11.43 14.08-13.87 35.3-4.62 50.91 9.24 15.6 30.17 23.64 47.02 16.94-0.73-0.44 17.24-32.17 31.15-45.02z"/>
	<path id="&lt;Path&gt;" class="s1" d="m75.25 42.24c-1.35-3.79-4.28-7.17-7.94-9.67-11.15-7.6-25.51-4.63-33.02 6.55-4.38 6.52-3.93 15.66 0.11 22.24 2.31 3.76 5.68 6.67 9.36 9.06 3.6 2.33 9.28 4.4 13.76 0.84 2.18-1.73 1.89-1.38 3.73-3.46 2.19-2.48 4.69-4.68 7.03-7.02 4.99-4.99 9.58-11.18 6.97-18.54z"/>
	<path id="&lt;Path&gt;" class="s0" d="m167.53 40.77c-1.43-17.03 11.23-33.72 27.68-38.34 16.45-4.62 35.09 2.25 45.87 15.51 11.43 14.08 13.87 35.3 4.63 50.91-9.25 15.6-30.18 23.64-47.03 16.94 0.73-0.44-17.24-32.17-31.15-45.02z"/>
	<path id="&lt;Path&gt;" class="s1" d="m183.91 60.78c2.34 2.34 4.84 4.54 7.03 7.02 1.84 2.08 1.55 1.73 3.73 3.46 4.48 3.56 10.16 1.49 13.76-0.84 3.68-2.39 7.05-5.3 9.36-9.06 4.04-6.58 4.49-15.72 0.11-22.24-7.5-11.18-21.87-14.15-33.02-6.55-3.66 2.5-6.59 5.88-7.94 9.67-2.61 7.36 1.98 13.55 6.97 18.54z"/>
	<path id="&lt;Path&gt;" class="s0" d="m73.66 47.97c-19.83 18.3-40.93 57.89-25.59 84.59 4.03 7.02 10.83 12.12 18.18 15.51 23.97 11.04 53.46 12.01 79.34 10.64 17.2-0.91 40.2-0.43 53.95-12.41 8.78-7.65 12.61-19.83 12.4-31.47-0.54-29.67-19.35-60.17-44.68-75.1-29.91-17.62-67.75-15.62-93.6 8.24z"/>
	<path id="&lt;Path&gt;" class="s2" d="m143.6 83.86c-2.36-7.55-7.95-17.62-16.23-17.36-8.27-0.26-13.86 9.81-16.22 17.36-2.78 8.86-4.92 19.89-4.13 29.26 0.3 3.49 1.18 7.1 3.47 9.84 1.1 1.31 2.47 2.35 4 3.11 1.54 0.76 9.94 1.76 11.35 1.71-0.32 1.35 0.2 7.68 0.06 8.22-2.14-0.17-3.62-1.97-4.61-3.68-0.41-0.71-1.38-2.15-2.34-1.42q-0.19 0.15-0.28 0.38c-0.91 2.16 1.04 4.79 2.64 6.01 1.7 1.32 3.9 2.14 6.06 2.21 2.16-0.07 4.36-0.89 6.07-2.21 1.59-1.22 3.55-3.85 2.64-6.01q-0.09-0.23-0.28-0.38c-0.96-0.73-1.93 0.71-2.34 1.42-0.99 1.71-2.47 3.51-4.61 3.68-0.15-0.54 0.38-6.87 0.06-8.22 1.4 0.05 9.81-0.95 11.35-1.71 1.53-0.76 2.89-1.8 3.99-3.11 2.3-2.74 3.18-6.35 3.47-9.84 0.8-9.37-1.35-20.4-4.12-29.26z"/>
	<path id="&lt;Path&gt;" class="s2" d="m89.82 91.93c-1.83-0.72-5.03 1.14-6.2 2.61-1.7 2.12-4.16 8.06 1.17 6.95 2.9-0.6 6.37-3.82 6.35-6.98-0.01-1.49-0.54-2.27-1.32-2.58z"/>
	<path id="&lt;Path&gt;" class="s2" d="m91.48 116.04c0 5.19-2.3 9.4-5.13 9.4-2.84 0-5.14-4.21-5.14-9.4 0-5.19 2.3-9.4 5.14-9.4 2.83 0 5.13 4.21 5.13 9.4z"/>
	<path id="&lt;Path&gt;" class="s1" d="m74.81 123.5c0 6.33-5.13 11.46-11.46 11.46-6.34 0-11.47-5.13-11.47-11.46 0-6.33 5.13-11.47 11.47-11.47 6.33 0 11.46 5.14 11.46 11.47z"/>
	<path id="&lt;Path&gt;" class="s2" d="m162.15 94.51c-0.02 3.16 3.45 6.38 6.35 6.98 5.32 1.11 2.87-4.83 1.17-6.95-1.18-1.47-4.38-3.33-6.2-2.61-0.79 0.31-1.32 1.09-1.32 2.58z"/>
	<path id="&lt;Path&gt;" class="s2" d="m161.49 116.03c0 5.18 2.3 9.38 5.13 9.38 2.83 0 5.12-4.2 5.12-9.38 0-5.17-2.29-9.37-5.12-9.37-2.83 0-5.13 4.2-5.13 9.37z"/>
	<path id="&lt;Path&gt;" class="s1" d="m178.12 123.47c0 6.31 5.12 11.43 11.43 11.43 6.32 0 11.43-5.12 11.43-11.43 0-6.31-5.11-11.43-11.43-11.43-6.31 0-11.43 5.12-11.43 11.43z"/>
	<path id="&lt;Path&gt;" class="s3" d="m126.53 35.18c0.02-0.76-0.02-1.49-0.15-2.24-0.19-1.17-2.16-1.17-2.35 0-0.13 0.75-0.16 1.48-0.15 2.24 0.01 0.75-0.09 1.5 0.38 2.13 0.53 0.69 1.36 0.69 1.89 0 0.48-0.63 0.37-1.37 0.38-2.13z"/>
	<path id="&lt;Path&gt;" class="s3" d="m127 44.76c-0.14-1.49-2.17-1.49-2.32 0-0.15 1.57-0.39 3.71 0.39 5.14 0.32 0.57 1.22 0.57 1.54 0 0.79-1.43 0.54-3.57 0.39-5.14z"/>
	<path id="&lt;Path&gt;" class="s3" d="m127.89 59.02q-0.04-1.3-0.12-2.59c-0.07-1.26-1.88-1.26-1.96 0q-0.08 1.29-0.11 2.59c-0.02 0.81-0.12 1.59 0.29 2.32 0.34 0.61 1.27 0.61 1.61 0 0.41-0.73 0.31-1.5 0.29-2.32z"/>
	<path id="&lt;Path&gt;" class="s3" d="m120.23 49.47c-0.33-1.42-2.32-0.78-2.13 0.59 0.23 1.74 0.25 4 1.36 5.43 0.45 0.57 1.34 0.19 1.53-0.4 0.52-1.68-0.37-3.97-0.76-5.62z"/>
	<path id="&lt;Path&gt;" class="s3" d="m117.11 39.47c-0.26-0.83-0.52-1.77-1.16-2.38-0.46-0.43-1.36-0.29-1.5 0.4-0.18 0.89 0.1 1.75 0.37 2.61 0.26 0.81 0.48 1.83 1.14 2.4 0.51 0.44 1.38 0.31 1.56-0.41 0.22-0.88-0.14-1.78-0.41-2.62z"/>
	<path id="&lt;Path&gt;" class="s3" d="m109.6 45.12c-0.58-1.03-2.14-0.32-1.88 0.79 0.3 1.27 0.69 2.91 1.75 3.73 0.46 0.36 1.3-0.01 1.4-0.57 0.23-1.31-0.64-2.82-1.27-3.95z"/>
	<path id="&lt;Path&gt;" class="s3" d="m106.03 37.22c-0.28-0.65-0.61-1.32-0.8-2.01-0.31-1.13-2.06-0.91-2.05 0.28 0 1.28 0.46 2.35 1.59 2.99 0.87 0.5 1.59-0.46 1.26-1.26z"/>
	<path id="&lt;Path&gt;" class="s3" d="m116.13 59.48c-0.37-0.97-0.76-1.96-1.33-2.82-0.49-0.74-1.73-0.3-1.47 0.62 0.28 0.97 0.68 1.92 0.99 2.89 0.29 0.87 0.48 1.82 1.06 2.55 0.36 0.44 1.23 0.21 1.32-0.35 0.15-0.98-0.22-1.97-0.57-2.89z"/>
	<path id="&lt;Path&gt;" class="s3" d="m133.2 49.49c-0.25 0.71-0.38 1.49-0.5 2.23-0.12 0.7-0.29 1.43 0 2.11 0.24 0.57 0.98 0.93 1.48 0.39 0.94-1.01 1.08-3.12 1.09-4.45 0.01-1.24-1.69-1.37-2.07-0.28z"/>
	<path id="&lt;Path&gt;" class="s3" d="m136.72 36.33c-0.3-0.68-1.39-0.47-1.55 0.2-0.13 0.56-0.16 1.13-0.28 1.7-0.13 0.59-0.28 1.03-0.12 1.63 0.19 0.74 1.05 0.85 1.57 0.42 1.03-0.85 0.88-2.86 0.38-3.95z"/>
	<path id="&lt;Path&gt;" class="s3" d="m147.94 34.31c-0.09-0.63-1.02-0.81-1.42-0.37-0.58 0.65-0.85 1.55-1.09 2.37-0.25 0.83-0.57 1.73-0.37 2.6 0.14 0.65 1 0.81 1.44 0.38 0.62-0.6 0.85-1.57 1.09-2.38 0.25-0.85 0.48-1.72 0.35-2.6z"/>
	<path id="&lt;Path&gt;" class="s3" d="m142.91 44.31c-0.58 0.68-0.85 1.48-1.19 2.3-0.33 0.81-0.59 1.57-0.44 2.45 0.08 0.42 0.62 0.68 1.03 0.55q-0.02 0.07-0.04 0.14c-0.05 0.14 0.16 0.19 0.22 0.06q0.07-0.19 0.14-0.38c0.59-0.5 0.91-1.12 1.19-1.85 0.34-0.84 0.72-1.67 0.75-2.58 0.03-0.81-1.1-1.32-1.66-0.69z"/>
	<path id="&lt;Path&gt;" class="s3" d="m136.21 59.94c-0.54 1.14-1.42 2.47-1.19 3.75 0.11 0.65 0.99 0.95 1.51 0.62 1.08-0.69 1.46-2.29 1.91-3.43 0.51-1.28-1.64-2.19-2.23-0.94z"/>
	<path id="&lt;Path&gt;" class="s3" d="m58.03 6.59c-1.77-1.29-4.6-1.66-6.75-1.66-1.07 0.01-1.26 1.54-0.25 1.85 1.11 0.34 2.23 0.57 3.35 0.86 1.07 0.29 2.08 0.62 3.2 0.62 0.95-0.01 1.13-1.17 0.45-1.67z"/>
	<path id="&lt;Path&gt;" class="s3" d="m70.24 14.94c-0.75-2.04-3.45-3.27-5.34-4.03-1.18-0.47-2.01 1.5-0.87 2.06q1.37 0.66 2.62 1.52c0.82 0.56 1.48 1.28 2.45 1.6 0.64 0.22 1.39-0.49 1.14-1.15z"/>
	<path id="&lt;Path&gt;" class="s3" d="m61.43 17.07c-0.49-0.88-1.66-1.51-2.56-1.91-0.98-0.43-2.05-0.89-3.14-0.87-0.84 0.02-1.1 1.1-0.42 1.55 0.81 0.52 1.78 0.8 2.64 1.24 0.78 0.41 1.7 1.05 2.57 1.18 0.67 0.1 1.29-0.52 0.91-1.19z"/>
	<path id="&lt;Path&gt;" class="s3" d="m73.71 23.83c-0.69-0.7-1.65 0.33-1.06 1.07 0.66 0.82 1.22 1.71 1.73 2.63 0.46 0.83 0.77 1.73 1.41 2.45 0.42 0.47 1.24 0.09 1.23-0.51-0.02-2.11-1.9-4.22-3.31-5.64z"/>
	<path id="&lt;Path&gt;" class="s3" d="m69.47 25.25c-0.36-0.84-1.24-1.34-1.95-1.88-0.73-0.56-1.44-1.22-2.35-1.46-0.77-0.2-1.37 0.63-1 1.31 0.44 0.82 1.26 1.36 1.97 1.94 0.69 0.56 1.38 1.29 2.28 1.45 0.85 0.14 1.38-0.6 1.05-1.36z"/>
	<path id="&lt;Path&gt;" class="s3" d="m79.72 37.15c-0.36-1-1.87-0.88-1.89 0.25-0.03 1.28 0.23 3.12 1.22 4.02 0.42 0.39 1.24 0.27 1.37-0.36 0.25-1.22-0.28-2.77-0.7-3.91z"/>
	<path id="&lt;Path&gt;" class="s3" d="m45.64 3.68c-0.91-0.46-1.95-0.35-2.94-0.26-1.01 0.09-2.02 0.16-2.91 0.68-0.61 0.35-0.4 1.15 0.18 1.37 0.94 0.37 1.94 0.28 2.93 0.21 0.92-0.07 1.97-0.09 2.74-0.64 0.44-0.31 0.57-1.07 0-1.36z"/>
	<path id="&lt;Path&gt;" class="s3" d="m172.5 31.45c-0.19-0.78-1.25-0.84-1.65-0.21-0.58 0.9-0.64 2.04-0.77 3.08-0.15 1.13-0.35 2.26-0.24 3.39 0.06 0.68 1.1 1.18 1.46 0.4 0.48-1.07 0.7-2.2 0.93-3.34 0.21-1.08 0.53-2.23 0.27-3.32z"/>
	<path id="&lt;Path&gt;" class="s3" d="m175.58 20.87c-1.6 0.67-2.42 3.19-2.34 4.78 0.04 0.82 1.17 1.22 1.6 0.44 0.41-0.76 0.68-1.57 1.05-2.35 0.35-0.74 0.74-1.41 0.78-2.24 0.03-0.61-0.63-0.83-1.09-0.63z"/>
	<path id="&lt;Path&gt;" class="s3" d="m179.34 25.81c-0.09-0.37-0.5-0.47-0.8-0.33-1.39 0.64-2.22 2.62-2.56 4.03-0.21 0.88 0.99 1.78 1.65 0.96 0.98-1.22 2.09-3.05 1.71-4.66z"/>
	<path id="&lt;Path&gt;" class="s3" d="m181.55 13.29c-2.01-0.32-3.37 2.29-3.77 3.9-0.25 0.99 1.1 1.29 1.47 0.41 0.31-0.73 0.84-1.43 1.41-1.99 0.52-0.51 1.06-0.82 1.34-1.52 0.12-0.3-0.13-0.75-0.45-0.8z"/>
	<path id="&lt;Path&gt;" class="s3" d="m190.13 7.51c-1.89-0.36-3.48 1.36-4.38 2.81-0.51 0.83 0.6 1.57 1.27 0.99 1.1-0.94 2.72-1.55 3.54-2.75 0.24-0.37 0.01-0.97-0.43-1.05z"/>
	<path id="&lt;Path&gt;" class="s3" d="m201.4 5.05c-0.99-0.55-2.15-0.14-3.19 0.11-1.22 0.3-2.47 0.53-3.53 1.23-0.45 0.3-0.49 1.21 0.17 1.3 1.28 0.18 2.46-0.1 3.71-0.35 1.14-0.23 2.38-0.34 3.09-1.33 0.22-0.31 0.05-0.79-0.25-0.96z"/>
	<path id="&lt;Path&gt;" class="s3" d="m187.14 14.66c-1.3 0.47-2.3 2.29-2.82 3.5-0.43 0.99 0.69 2.07 1.57 1.22 0.56-0.56 1.01-1.24 1.47-1.88 0.44-0.63 0.87-1.22 0.85-2.03-0.01-0.51-0.53-1-1.07-0.81z"/>
	<path id="&lt;Path&gt;" class="s3" d="m197.69 10.64c-0.99 0.26-1.52 0.97-2.65 0.84-0.78-0.09-1.09 1.15-0.4 1.47 1.41 0.67 3.87 0.37 4.03-1.56 0.04-0.52-0.53-0.87-0.98-0.75z"/>
	<path id="&lt;Path&gt;" class="s3" d="m210.61 4c-0.87-1-2.45-1.25-3.7-0.98-0.62 0.14-0.59 0.92-0.16 1.24 1.05 0.76 2.56 1.07 3.76 0.51 0.31-0.14 0.29-0.55 0.1-0.77z"/>
</svg>