<svg version="1.2" xmlns="http://www.w3.org/2000/svg" viewBox="0 0 176 158" width="176" height="158">
	<style>
		.s0 { fill: #91787e } 
		.s1 { fill: #ffa1a1 } 
		.s2 { fill: #fdebca } 
		.s3 { fill: #674a51 } 
		.s4 { fill: #fdf2e9 } 
	</style>
	<path id="&lt;Path&gt;" class="s0" d="m17.59 48.62q0.27-0.34 0.54-0.68c0.03-0.04 0.31-0.39 0.42-0.52q1.67-2.06 3.45-4.01 0.23-0.32 0.55-0.59 3.19-3.46 6.67-6.64c4.1-3.75 8.34-7.36 12.92-10.3q1.16-0.75 2.39-1.47c-1.32-5.68-3.87-10.99-7.64-14.98-4.88-5.17-11.85-7.9-18.39-6.49-12.57 2.7-17.95 19.21-13.33 31.82 2.13 5.83 6.81 12.08 12.42 13.86z"/>
	<path id="&lt;Path&gt;" class="s0" d="m155.18 46.74q-0.26-0.35-0.54-0.69c-0.03-0.04-0.31-0.39-0.42-0.52q-1.67-2.06-3.45-4.01-0.23-0.32-0.54-0.59-3.2-3.45-6.68-6.64c-4.09-3.74-8.34-7.35-12.92-10.3q-1.16-0.75-2.39-1.46c1.32-5.69 3.88-11 7.64-14.98 4.88-5.17 11.85-7.9 18.39-6.5 12.57 2.7 17.95 19.22 13.33 31.83-2.13 5.82-6.81 12.08-12.42 13.86z"/>
	<path id="&lt;Path&gt;" class="s1" d="m17.79 37.74c0.48 1.28 2.16 5.23 3.68 5.43 1.58 0.22 2.97-2.27 4.03-3.27 1.71-1.6 9.85-5.8 9.79-8.01-0.01-0.54-0.25-1.04-0.49-1.52-0.96-2-1.95-4.03-3.41-5.69-5.51-6.25-13.5-1.31-14.49 5.86-0.34 2.44 0.05 4.95 0.89 7.2z"/>
	<path id="&lt;Path&gt;" class="s1" d="m155.88 28.65c-1-7.17-8.98-12.1-14.49-5.86-1.47 1.67-2.45 3.69-3.42 5.69-0.23 0.49-0.47 0.99-0.49 1.53-0.06 2.2 8.08 6.4 9.79 8.01 1.06 0.99 2.45 3.48 4.04 3.27 1.51-0.21 3.19-4.16 3.67-5.43 0.85-2.25 1.24-4.77 0.9-7.21z"/>
	<path id="&lt;Path&gt;" class="s2" d="m138.77 27.02c-31.03-21.01-70.3-21.14-101.53 0-20.08 13.6-36.27 35.04-36.81 62.17-0.68 34.54 24.43 54.26 51.85 62.69 25.57 7.86 51.93 7.44 77.13-1.92 17.72-6.58 35.35-18.83 42.66-38.74 2.56-6.97 3.66-14.51 3.52-22.03-0.54-27.13-16.73-48.57-36.82-62.17z"/>
	<path id="&lt;Path&gt;" class="s0" d="m64.98 92.5c-2.21 6.76-5.66 13.44-11.49 17.74-7.19 5.3-17.62 6.08-25.56 1.9-7.95-4.18-12.96-13.09-12.3-21.83 0.64-8.38 5.92-15.71 11.55-22.1 3.37-3.82 7-7.52 11.42-10.16 4.42-2.64 9.74-4.14 14.84-3.24 16.63 2.94 15.3 26.12 11.54 37.69z"/>
	<path id="&lt;Path&gt;" class="s3" d="m101.9 108.07c-0.23-0.98-1.81-0.68-1.72 0.29 0.37 4.15-3.77 5.63-7.19 4.26-2.23-0.89-2.63-2.97-3.58-4.88q0.08-5.55-0.2-11.09c-0.06-1.31 2.63-2.42 3.48-3.05 2.81-2.07 5.61-4.39 7.43-7.42 0.7-1.18 1.29-2.47 1.35-3.84 0.2-4.46-5.33-5.78-8.72-6.4-5.23-0.95-18.97-1.14-18.26 6.75 0.47 5.32 7.4 9.33 11.27 12.54q0.38 0.31 0.75 0.62 0.08 0.09 0.14 0.2-0.02 0.32 0.16 0.6-0.28 5.54-0.2 11.09c-0.95 1.91-1.35 3.99-3.58 4.88-3.42 1.37-7.57-0.11-7.19-4.26 0.09-0.97-1.5-1.27-1.72-0.29-0.98 4.32 2.76 7.02 6.77 6.72 2.67-0.2 4.79-1.6 5.93-3.71q0.1-0.23 0.22-0.45 0.16-0.33 0.28-0.69 0.32-0.42 0.69-0.89 0.37 0.46 0.67 0.95 0.14 0.28 0.3 0.63 0.11 0.22 0.22 0.45c1.13 2.11 3.25 3.51 5.93 3.71 4.01 0.3 7.75-2.4 6.77-6.72z"/>
	<path id="&lt;Path&gt;" class="s2" d="m94.07 80.72c-1.08-2.19-4.21-2.1-6.33-1.91-2.01 0.18-4.8 0.53-5.86 2.46-0.44 0.81-0.19 1.8 0.6 2.29 1.57 0.98 3.79 0.43 5.58 0.51 2.06 0.08 3.99 0.8 5.67-0.71 0.76-0.68 0.76-1.8 0.34-2.64z"/>
	<path id="&lt;Path&gt;" class="s0" d="m110.31 92.5c2.21 6.76 5.66 13.44 11.48 17.74 7.2 5.3 17.63 6.08 25.57 1.9 7.94-4.18 12.96-13.09 12.29-21.83-0.63-8.38-5.91-15.71-11.54-22.1-3.38-3.82-7-7.52-11.42-10.16-4.42-2.64-9.74-4.14-14.85-3.24-16.62 2.94-15.3 26.12-11.53 37.69z"/>
	<path id="&lt;Path&gt;" class="s1" d="m165.89 111.4c0 6.65-5.39 12.03-12.03 12.03-6.65 0-12.03-5.38-12.03-12.03 0-6.65 5.38-12.03 12.03-12.03 6.64 0 12.03 5.38 12.03 12.03z"/>
	<path id="&lt;Path&gt;" class="s1" d="m10.13 111.4c0 6.65 5.38 12.03 12.03 12.03 6.65 0 12.03-5.38 12.03-12.03 0-6.65-5.38-12.03-12.03-12.03-6.65 0-12.03 5.38-12.03 12.03z"/>
	<path id="&lt;Path&gt;" class="s2" d="m47.31 81.11c-5.74 0.29-8.76 6.2-7.65 11.38 0.29 1.38 2.49 1.07 2.45-0.33-0.09-3.65 1.36-8.61 6.04-8.04 3.81 0.47 4.38 5.21 4.8 8.24 0.24 1.7 3.24 1.31 3.02-0.4-0.66-4.93-2.51-11.15-8.66-10.85z"/>
	<path id="&lt;Path&gt;" class="s2" d="m125.15 81.11c-5.75 0.29-8.76 6.2-7.66 11.38 0.3 1.38 2.49 1.07 2.46-0.33-0.09-3.65 1.36-8.61 6.04-8.04 3.8 0.47 4.37 5.21 4.8 8.24 0.24 1.7 3.24 1.31 3.01-0.4-0.66-4.93-2.5-11.15-8.65-10.85z"/>
	<path id="&lt;Path&gt;" class="s4" d="m78.11 66.58c-0.35-1.03-0.6-2.16-1.35-2.97-0.55-0.6-1.87-0.37-1.99 0.53-0.17 1.18 0.25 2.28 0.58 3.41 0.34 1.15 0.53 2.25 1.51 3 0.68 0.52 1.6-0.06 1.82-0.74 0.36-1.07-0.23-2.21-0.57-3.23z"/>
	<path id="&lt;Path&gt;" class="s4" d="m89.15 56.79c-0.16-1.01-1.86-1.01-2.03 0-0.44 2.7-0.7 5.91 0.4 8.44 0.21 0.47 1.03 0.47 1.23 0 1.11-2.53 0.85-5.74 0.4-8.44z"/>
	<path id="&lt;Path&gt;" class="s4" d="m101.45 64.98c-0.13-0.89-1.65-0.88-1.79 0q-0.21 1.33-0.47 2.65c-0.16 0.86-0.49 1.64-0.25 2.5 0.2 0.75 1.17 1 1.72 0.46 1.3-1.29 1.03-3.96 0.79-5.61z"/>
	<path id="&lt;Path&gt;" class="s4" d="m82.61 54.15c-0.29-1.07-0.36-2.2-0.82-3.22-0.35-0.77-1.45-0.45-1.67 0.22-0.41 1.22-0.11 2.64 0.18 3.86 0.3 1.25 0.75 2.28 1.81 3.06 0.5 0.37 1.11-0.14 1.14-0.66 0.08-1.16-0.34-2.16-0.64-3.26z"/>
	<path id="&lt;Path&gt;" class="s4" d="m97.52 49.81c-0.35 0.74-0.47 1.52-0.63 2.32-0.19 0.93-0.13 1.53-0.04 2.46 0.07 0.77 1.27 1.35 1.66 0.45 0.32-0.77 0.64-1.34 0.74-2.19 0.1-0.81 0.28-1.71 0.18-2.52-0.11-0.88-1.43-1.56-1.91-0.52z"/>
	<path id="&lt;Path&gt;" class="s4" d="m89.36 43.45c-0.08-0.9-0.04-1.79-0.05-2.69-0.02-1.26-1.98-1.61-2.25-0.31-0.36 1.7-0.63 4.64 0.71 5.97 0.55 0.55 1.38 0.24 1.63-0.43 0.31-0.83 0.03-1.69-0.04-2.54z"/>
	<path id="&lt;Path&gt;" class="s4" d="m71.79 46.46c-0.48-0.84-0.78-1.84-1.34-2.62-0.54-0.77-1.71-0.5-1.77 0.48-0.06 1.13 0.51 2.37 1.02 3.36 0.5 0.95 1.23 2.09 2.28 2.45 0.75 0.26 1.25-0.51 1.16-1.16-0.14-0.87-0.91-1.75-1.35-2.51z"/>
	<path id="&lt;Path&gt;" class="s4" d="m80.15 36.62q-0.58-1.7-1.34-3.33c-0.31-0.68-1.53-0.36-1.43 0.39q0.21 1.79 0.6 3.54c0.24 1.06 0.32 2.22 1.33 2.81 0.39 0.22 0.93 0.1 1.15-0.3 0.57-1.05 0.05-2.05-0.31-3.11z"/>
	<path id="&lt;Path&gt;" class="s4" d="m105.1 36.99c-0.67 1.3-1.65 3.32-1.26 4.78 0.22 0.84 1.18 0.95 1.78 0.47 1.06-0.84 1.5-3.02 1.72-4.3 0.22-1.27-1.56-2.28-2.24-0.95z"/>
	<path id="&lt;Path&gt;" class="s4" d="m98.29 31.76c-0.85 1.78-1.86 4.31-0.93 6.23 0.35 0.72 1.28 0.39 1.53-0.21 0.34-0.81 0.27-1.7 0.37-2.56q0.17-1.43 0.63-2.78c0.3-0.93-1.17-1.58-1.6-0.68z"/>
	<path id="&lt;Path&gt;" class="s4" d="m89.61 26.98c-0.09-1.14-0.18-2.32-0.56-3.4-0.19-0.55-0.92-0.55-1.11 0-0.38 1.08-0.47 2.26-0.56 3.4-0.1 1.13-0.24 2.24 0.26 3.28 0.32 0.64 1.39 0.64 1.7 0 0.51-1.04 0.36-2.15 0.27-3.28z"/>
	<path id="&lt;Path&gt;" class="s4" d="m112.26 25.07c-0.56 0.76-0.9 1.56-1.26 2.43-0.35 0.83-0.7 1.59-0.43 2.49 0.17 0.58 0.87 0.91 1.41 0.58 1.43-0.9 1.91-3.45 2.05-5.02 0.1-1.04-1.28-1.15-1.77-0.48z"/>
	<path id="&lt;Path&gt;" class="s4" d="m103.23 15.45c-1.14 1.37-2.78 3.84-1.85 5.66 0.34 0.64 1.27 0.71 1.76 0.22 0.62-0.62 0.63-1.38 0.88-2.19 0.25-0.8 0.53-1.63 0.89-2.39 0.48-1.02-0.85-2.3-1.68-1.3z"/>
	<path id="&lt;Path&gt;" class="s4" d="m76.24 17.54c-0.51-1.06-2.27-0.32-1.9 0.8 0.52 1.58 0.95 3.41 2.03 4.7 0.54 0.64 1.74 0.13 1.68-0.7-0.11-1.67-1.09-3.31-1.81-4.8z"/>
	<path id="&lt;Path&gt;" class="s4" d="m63.89 22.44c-0.52-0.65-1.69 0.05-1.41 0.81 0.55 1.5 1.24 3.42 2.57 4.38 0.5 0.37 1.32-0.12 1.27-0.73-0.14-1.64-1.44-3.22-2.43-4.46z"/>
	<path id="&lt;Path&gt;" class="s4" d="m61.59 36.64c-0.29-0.76-1.65-0.76-1.56 0.21 0.14 1.56 0.53 3.98 2.34 4.46 0.54 0.14 1.28-0.29 1.21-0.93-0.15-1.41-1.47-2.44-1.99-3.74z"/>
	<path id="&lt;Path&gt;" class="s4" d="m54.23 29.79c-0.45-0.92-1.16-1.82-1.26-2.87-0.13-1.32-2.07-1.38-2.1 0-0.05 1.74 0.92 3.74 2.89 3.7 0.44 0 0.66-0.45 0.47-0.83z"/>
	<path id="&lt;Path&gt;" class="s4" d="m93.78 65.97c-0.29-0.38-1.05-0.38-1.35 0-0.76 0.95-0.8 2.23-0.11 3.26 0.39 0.58 1.18 0.58 1.57 0 0.69-1.03 0.65-2.31-0.11-3.26z"/>
</svg>