<svg version="1.2" xmlns="http://www.w3.org/2000/svg" viewBox="0 0 152 193" width="152" height="193">
	<style>
		.s0 { fill: #fdebca } 
		.s1 { fill: #ff8a9c } 
		.s2 { fill: #947373 } 
		.s3 { fill: #fdf2e9 } 
		.s4 { fill: #fde1d5 } 
	</style>
	<path id="&lt;Path&gt;" class="s0" d="m23.93 27.97c3.5-6.98 7.5-13.78 12.18-20.17 2.54-3.46 5.86-7.11 10.41-7.39 4.51-0.28 8.52 3.07 10.11 6.94 1.59 3.86 1.32 8.13 1.02 12.25q-1.81 25.02-3.62 50.05c-0.02 0.26-13.1 4.89-14.41 5.56-4.84 2.48-9.37 5.47-13.49 8.87-8.49 7.03-16.76 21.91-22.86 30.35 1.83-4.47 2.71-20.54 3.03-24.26q0.93-10.8 3.23-21.43c3.04-14.04 7.87-27.76 14.4-40.77z"/>
	<path id="&lt;Path&gt;" class="s1" d="m43.5 73.01c1.45-8.37 2.6-16.8 3.05-25.26 0.12-2.24 0.94-15.64-1.37-21.26-0.95-2.32-2.43-3.31-4.71-1.67-3.95 2.86-6.39 8.02-8.4 12.09-2.42 4.89-4 10.09-5.59 15.25-2.21 7.21-3.55 14.62-4.2 22.08q-0.47 5.61-0.48 11.22c0 0.78-0.19 3.57 0.06 5.43 7.17-5.99 14.78-11.59 21.64-17.88z"/>
	<path id="&lt;Path&gt;" class="s0" d="m128.63 27.97c-3.5-6.98-7.5-13.78-12.18-20.17-2.54-3.46-5.86-7.11-10.41-7.39-4.51-0.28-8.52 3.07-10.11 6.94-1.59 3.86-1.32 8.13-1.02 12.25q1.81 25.02 3.62 50.05c0.02 0.26 13.1 4.89 14.41 5.56 4.84 2.48 9.37 5.47 13.49 8.87 8.49 7.03 16.76 21.91 22.86 30.35-1.83-4.47-2.71-20.54-3.03-24.26q-0.93-10.8-3.23-21.43c-3.04-14.04-7.87-27.76-14.4-40.77z"/>
	<path id="&lt;Path&gt;" class="s1" d="m109.06 73.01c-1.45-8.37-2.6-16.8-3.05-25.26-0.12-2.24-0.94-15.64 1.37-21.26 0.95-2.32 2.43-3.31 4.71-1.67 3.95 2.86 6.39 8.02 8.4 12.09 2.42 4.89 4 10.09 5.59 15.25 2.21 7.21 3.55 14.62 4.2 22.08q0.47 5.61 0.48 11.22c0 0.78 0.19 3.57-0.06 5.43-7.17-5.99-14.78-11.59-21.64-17.88z"/>
	<path id="&lt;Path&gt;" class="s0" d="m133.92 82.92c-13.67-17.65-35.87-26.24-57.6-25.46-21.73-0.78-43.93 7.81-57.6 25.46-10.91 14.08-18.03 32.66-17.9 50.59 0.19 28.03 19.82 45.35 44.75 54.01 20.48 7.11 41 7.12 61.5 0 24.93-8.66 44.56-25.98 44.76-54.01 0.12-17.93-7-36.51-17.91-50.59z"/>
	<path id="&lt;Path&gt;" class="s2" d="m86.17 136.05c-0.87 0.36-1.4 1.36-1.41 2.33-0.19 0.63-0.06 1.39 0.42 1.85 1.18 1.13 3.12 0.25 3.48-1.21 0.35-1.43-0.76-3.67-2.49-2.97z"/>
	<path id="&lt;Path&gt;" class="s2" d="m93.99 143.14c-0.87 0.35-1.4 1.35-1.41 2.32-0.18 0.63-0.06 1.39 0.42 1.85 1.18 1.13 3.12 0.26 3.48-1.2 0.36-1.43-0.76-3.68-2.49-2.97z"/>
	<path id="&lt;Path&gt;" class="s2" d="m86.17 145.55c-0.87 0.35-1.4 1.35-1.41 2.32-0.19 0.64-0.06 1.39 0.42 1.85 1.18 1.14 3.12 0.26 3.48-1.2 0.35-1.43-0.76-3.67-2.49-2.97z"/>
	<path id="&lt;Path&gt;" class="s2" d="m63.98 139.02c0.36 1.46 2.3 2.34 3.48 1.21 0.48-0.46 0.61-1.22 0.42-1.85-0.01-0.97-0.54-1.97-1.41-2.33-1.73-0.7-2.84 1.54-2.49 2.97z"/>
	<path id="&lt;Path&gt;" class="s2" d="m56.16 146.11c0.36 1.46 2.3 2.33 3.48 1.2 0.48-0.46 0.6-1.22 0.42-1.85-0.01-0.97-0.54-1.97-1.41-2.32-1.73-0.71-2.85 1.54-2.49 2.97z"/>
	<path id="&lt;Path&gt;" class="s2" d="m63.98 148.52c0.36 1.46 2.3 2.34 3.48 1.2 0.48-0.46 0.61-1.21 0.42-1.85-0.01-0.97-0.54-1.97-1.41-2.32-1.73-0.7-2.84 1.54-2.49 2.97z"/>
	<path id="&lt;Path&gt;" class="s2" d="m83.23 152.55c-0.29 0.22-0.38 0.53-0.46 0.85q-0.06 0.28-0.16 0.55c-0.26 0.66-0.73 1.29-1.34 1.67-0.79 0.5-1.9 0.54-2.63-0.04-0.42-0.32-0.68-0.8-0.87-1.29-0.97-2.51-0.64-19.96-0.82-20.41q-0.18-0.43-0.38-0.82-0.01-0.08-0.01-0.15c-0.01-0.11-0.13-0.14-0.24-0.11-0.11-0.03-0.23 0-0.24 0.11q0 0.07-0.01 0.15c-0.14 0.26-0.81 0.27-0.93 0.55-0.19 0.46 0.7 18.17-0.27 20.68-0.19 0.49-0.45 0.97-0.87 1.29-0.73 0.58-1.84 0.54-2.63 0.04-0.61-0.38-1.08-1.01-1.34-1.67q-0.09-0.27-0.16-0.55c-0.08-0.32-0.17-0.63-0.46-0.85-0.76-0.61-1.79-0.09-1.84 0.85-0.3 5.21 5.81 6.81 8.75 3.42 2.94 3.39 9.05 1.79 8.75-3.42-0.05-0.94-1.08-1.46-1.84-0.85z"/>
	<path id="&lt;Path&gt;" class="s2" d="m113.38 112.41c-0.01 3.03 3.32 6.13 6.11 6.71 5.11 1.06 2.75-4.64 1.12-6.68-1.13-1.41-4.2-3.2-5.96-2.51-0.75 0.3-1.26 1.05-1.27 2.48z"/>
	<path id="&lt;Path&gt;" class="s2" d="m122.93 133.09c0 4.99-2.21 9.03-4.94 9.03-2.72 0-4.93-4.04-4.93-9.03 0-4.98 2.21-9.03 4.93-9.03 2.73 0 4.94 4.05 4.94 9.03z"/>
	<path id="&lt;Path&gt;" class="s2" d="m37.99 109.93c-1.76-0.69-4.83 1.1-5.96 2.51-1.63 2.04-3.99 7.74 1.12 6.68 2.79-0.58 6.12-3.68 6.11-6.71-0.01-1.43-0.52-2.18-1.27-2.48z"/>
	<path id="&lt;Path&gt;" class="s2" d="m29.71 133.09c0 4.99 2.21 9.03 4.94 9.03 2.72 0 4.93-4.04 4.93-9.03 0-4.98-2.21-9.03-4.93-9.03-2.73 0-4.94 4.05-4.94 9.03z"/>
	<path id="&lt;Path&gt;" class="s1" d="m135.09 156.43c0 6.08-4.94 11.01-11.02 11.01-6.08 0-11.01-4.93-11.01-11.01 0-6.08 4.93-11.01 11.01-11.01 6.08 0 11.02 4.93 11.02 11.01z"/>
	<path id="&lt;Path&gt;" class="s1" d="m17.56 156.43c0 6.08 4.93 11.01 11.01 11.01 6.08 0 11.01-4.93 11.01-11.01 0-6.08-4.93-11.01-11.01-11.01-6.08 0-11.01 4.93-11.01 11.01z"/>
	<path id="&lt;Path&gt;" class="s1" d="m88.05 122.14c-1.44-6.62-8.24-1.51-11.73 2.17-3.49-3.68-10.29-8.79-11.73-2.17-0.67 3.08 1.3 6.04 3.41 8.08 1.54 1.49 3.37 2.73 5.19 3.86 0.91 0.56 1.99 1.36 3.13 1.85 1.14-0.49 2.23-1.29 3.14-1.85 1.81-1.13 3.64-2.37 5.19-3.86 2.1-2.04 4.07-5 3.4-8.08z"/>
	<path id="&lt;Path&gt;" class="s3" d="m65.57 110.26c-0.47-0.81-1.89-0.51-1.84 0.5 0.05 0.84 0.28 1.66 0.51 2.46 0.21 0.77 0.46 1.59 1.11 2.09 0.49 0.39 1.15 0.27 1.37-0.36 0.46-1.36-0.46-3.52-1.15-4.69z"/>
	<path id="&lt;Path&gt;" class="s3" d="m78.35 113.08c-0.15-1.2-0.4-2.32-0.95-3.4-0.41-0.81-1.92-0.47-1.79 0.49 0.15 1.14 0.36 2.26 0.46 3.4 0.06 0.8 0.26 2.2 1.42 1.93 1.08-0.25 0.96-1.59 0.86-2.42z"/>
	<path id="&lt;Path&gt;" class="s3" d="m89.23 109.62c-0.18-0.57-0.81-0.67-1.25-0.32-0.89 0.71-1.17 2.07-1.5 3.12-0.36 1.1-0.99 2.31-0.69 3.47 0.19 0.73 1.06 0.87 1.58 0.42 0.87-0.76 1.04-2.2 1.36-3.27 0.33-1.08 0.84-2.3 0.5-3.42z"/>
	<path id="&lt;Path&gt;" class="s3" d="m83.84 101.61c-0.37 0.88-0.56 1.86-0.79 2.79-0.2 0.85-0.46 1.77-0.19 2.62 0.19 0.61 1 0.89 1.46 0.39 0.66-0.71 0.82-1.66 1.01-2.58 0.2-0.97 0.44-1.97 0.48-2.96 0.06-1.22-1.56-1.22-1.97-0.26z"/>
	<path id="&lt;Path&gt;" class="s3" d="m69.75 104.88c-0.24-0.66-0.3-1.34-0.52-2-0.28-0.84-1.41-0.83-1.69 0-0.46 1.33-0.06 3.93 1.55 4.31 0.38 0.09 0.77-0.12 0.89-0.51 0.19-0.64-0.02-1.18-0.23-1.8z"/>
	<path id="&lt;Path&gt;" class="s3" d="m78.78 95.66c-0.11-0.96-0.16-1.94-0.4-2.87-0.28-1.03-1.65-0.71-1.76 0.24-0.1 0.99 0 2.01 0.05 3.01 0.05 0.9 0.02 1.74 0.67 2.43 0.36 0.39 0.95 0.24 1.22-0.16 0.54-0.79 0.31-1.75 0.22-2.65z"/>
	<path id="&lt;Path&gt;" class="s3" d="m94.91 90.99c-0.1-0.46-0.81-0.68-1.11-0.3-0.58 0.72-0.81 1.6-1.06 2.47-0.28 0.98-0.55 1.88-0.51 2.91 0.03 0.81 1.16 1.18 1.58 0.42 0.51-0.89 0.69-1.79 0.89-2.79 0.17-0.9 0.39-1.81 0.21-2.71z"/>
	<path id="&lt;Path&gt;" class="s3" d="m85.84 83.29c-0.27 1.35-0.52 2.81-0.2 4.15 0.15 0.66 1.24 0.87 1.54 0.2 0.55-1.26 0.62-2.71 0.6-4.09-0.01-1.07-1.71-1.38-1.94-0.26z"/>
	<path id="&lt;Path&gt;" class="s3" d="m66.22 92.44c-0.24-0.83-0.49-1.64-0.8-2.44-0.49-1.26-2.29-0.79-2.03 0.56 0.16 0.84 0.38 1.66 0.61 2.49 0.2 0.77 0.32 1.65 0.95 2.18 0.56 0.47 1.37 0.3 1.6-0.42 0.26-0.8-0.09-1.59-0.33-2.37z"/>
	<path id="&lt;Path&gt;" class="s3" d="m55.84 82.89c-0.39-0.45-1.12 0.04-0.97 0.57 0.36 1.28 1.12 2.93 2.13 3.82 0.28 0.25 0.91 0.11 0.85-0.35-0.18-1.42-1.1-2.96-2.01-4.04z"/>
	<path id="&lt;Path&gt;" class="s3" d="m58.14 96.07c-0.63-0.13-1.06 0.46-0.79 1.03 0.27 0.57 0.76 1.01 1.06 1.57 0.31 0.57 0.42 1.12 1.01 1.48 0.49 0.31 1.01-0.02 1.2-0.49 0.54-1.31-1.24-3.35-2.48-3.59z"/>
	<path id="&lt;Path&gt;" class="s3" d="m73.43 80.27c-0.18-0.93-1.79-0.73-1.68 0.23 0.22 1.77-0.01 3.69 0.46 5.4 0.22 0.77 1.31 0.74 1.54 0 0.54-1.75 0.04-3.87-0.32-5.63z"/>
	<path id="&lt;Path&gt;" class="s3" d="m83.64 72.6c-0.22-0.87-1.55-0.87-1.77 0-0.41 1.66-0.61 3.98 0.28 5.49 0.27 0.46 0.94 0.46 1.21 0 0.89-1.51 0.69-3.83 0.28-5.49z"/>
	<path id="&lt;Path&gt;" class="s3" d="m97.94 71.88c-0.04-0.93 0.12-2.22-0.65-2.87-0.29-0.25-0.65-0.25-0.95 0-0.76 0.65-0.61 1.94-0.65 2.87-0.04 1.08-0.03 2.21 0.43 3.21 0.25 0.52 1.15 0.52 1.39 0 0.47-0.99 0.48-2.13 0.43-3.21z"/>
	<path id="&lt;Path&gt;" class="s3" d="m70.64 68.91c-0.38-0.97-1.7-0.83-1.8 0.24-0.08 0.78 0.03 1.56 0.03 2.33-0.01 0.7-0.05 1.54 0.22 2.2 0.27 0.64 1.1 0.84 1.51 0.19 0.79-1.25 0.58-3.64 0.04-4.96z"/>
	<path id="&lt;Path&gt;" class="s3" d="m61.98 74.36c-0.73-0.74-1.94 0.21-1.43 1.1 0.43 0.74 0.87 1.47 1.24 2.25 0.35 0.75 0.56 1.56 1.14 2.19 0.59 0.64 1.54 0.09 1.6-0.67 0.14-1.68-1.45-3.73-2.55-4.87z"/>
	<path id="&lt;Path&gt;" class="s3" d="m79.54 61.38c-0.47-0.8-1.75-0.45-1.75 0.47 0.01 1.26 0 2.62 0.68 3.72 0.31 0.49 0.91 0.42 1.24 0 0.94-1.23 0.55-2.94-0.17-4.19z"/>
	<path id="&lt;Path&gt;" class="s3" d="m90.86 62.54c-0.21-0.89-1.67-0.72-1.62 0.22 0.04 0.75-0.1 1.49-0.29 2.21-0.17 0.69-0.45 1.27-0.28 1.99 0.13 0.56 0.78 0.75 1.25 0.51 1.65-0.84 1.29-3.47 0.94-4.93z"/>
	<path id="&lt;Path&gt;" class="s3" d="m64.45 64.77c-0.26-1.06-1.22-1.81-1.06-3.01 0.14-1.01-1.12-1.36-1.52-0.42-0.63 1.49-0.2 4.34 1.89 4.34 0.48 0 0.81-0.46 0.69-0.91z"/>
	<path id="&lt;Path&gt;" class="s3" d="m50.88 69.35c-0.4-0.69-0.68-1.43-1.08-2.11-0.41-0.68-1.63-0.44-1.57 0.43 0.11 1.52 0.95 3.85 2.48 4.44 0.48 0.18 1.03-0.29 1-0.77-0.03-0.76-0.45-1.35-0.83-1.99z"/>
	<path id="&lt;Path&gt;" class="s4" d="m74.33 125.62c-0.46-0.79-0.83-1.34-1.57-1.91q-1.07-0.82-2.28-1.42c-0.67-0.34-3.31-1.44-3.34 0.15-0.02 1.16 1.61 1.68 2.44 2.16q0.86 0.49 1.65 1.09c0.3 0.23 0.6 0.49 0.92 0.7 0.31 0.2 0.63 0.27 0.95 0.45 0.78 0.43 1.67-0.43 1.23-1.22z"/>
</svg>